<?xml version="1.0" encoding="utf-8" standalone="no"?>
<!DOCTYPE svg PUBLIC "-//W3C//DTD SVG 1.1//EN"
  "http://www.w3.org/Graphics/SVG/1.1/DTD/svg11.dtd">
<svg xmlns:xlink="http://www.w3.org/1999/xlink" width="1152pt" height="720pt" viewBox="0 0 1152 720" xmlns="http://www.w3.org/2000/svg" version="1.1">
 <metadata>
  <rdf:RDF xmlns:dc="http://purl.org/dc/elements/1.1/" xmlns:cc="http://creativecommons.org/ns#" xmlns:rdf="http://www.w3.org/1999/02/22-rdf-syntax-ns#">
   <cc:Work>
    <dc:type rdf:resource="http://purl.org/dc/dcmitype/StillImage"/>
    <dc:date>2026-06-11T07:53:43.861851</dc:date>
    <dc:format>image/svg+xml</dc:format>
    <dc:creator>
     <cc:Agent>
      <dc:title>Matplotlib v3.10.7+dfsg1, https://matplotlib.org/</dc:title>
     </cc:Agent>
    </dc:creator>
   </cc:Work>
  </rdf:RDF>
 </metadata>
 <defs>
  <style type="text/css">*{stroke-linejoin: round; stroke-linecap: butt}</style>
 </defs>
 <g id="figure_1">
  <g id="patch_1">
   <path d="M 0 720 
L 1152 720 
L 1152 0 
L 0 0 
z
" style="fill: #ffffff"/>
  </g>
  <g id="axes_1">
   <g id="patch_2">
    <path d="M 144 640.8 
L 1036.8 640.8 
L 1036.8 86.4 
L 144 86.4 
z
" style="fill: #ffffff"/>
   </g>
   <g id="matplotlib.axis_1">
    <g id="xtick_1">
     <g id="line2d_1">
      <path d="M 184.581818 640.8 
L 184.581818 86.4 
" clip-path="url(#p79df245589)" style="fill: none; stroke: #b0b0b0; stroke-width: 0.8; stroke-linecap: square"/>
     </g>
     <g id="line2d_2">
      <defs>
       <path id="m3ab8c38e7f" d="M 0 0 
L 0 3.5 
" style="stroke: #000000; stroke-width: 0.8"/>
      </defs>
      <g>
       <use xlink:href="#m3ab8c38e7f" x="184.581818" y="640.8" style="stroke: #000000; stroke-width: 0.8"/>
      </g>
     </g>
     <g id="text_1">
      <!-- 1 -->
      <g transform="translate(181.400568 655.398438) scale(0.1 -0.1)">
       <defs>
        <path id="DejaVuSans-31" d="M 794 531 
L 1825 531 
L 1825 4091 
L 703 3866 
L 703 4441 
L 1819 4666 
L 2450 4666 
L 2450 531 
L 3481 531 
L 3481 0 
L 794 0 
L 794 531 
z
" transform="scale(0.015625)"/>
       </defs>
       <use xlink:href="#DejaVuSans-31"/>
      </g>
     </g>
    </g>
    <g id="xtick_2">
     <g id="line2d_3">
      <path d="M 268.742796 640.8 
L 268.742796 86.4 
" clip-path="url(#p79df245589)" style="fill: none; stroke: #b0b0b0; stroke-width: 0.8; stroke-linecap: square"/>
     </g>
     <g id="line2d_4">
      <g>
       <use xlink:href="#m3ab8c38e7f" x="268.742796" y="640.8" style="stroke: #000000; stroke-width: 0.8"/>
      </g>
     </g>
     <g id="text_2">
      <!-- 2 -->
      <g transform="translate(265.561546 655.398438) scale(0.1 -0.1)">
       <defs>
        <path id="DejaVuSans-32" d="M 1228 531 
L 3431 531 
L 3431 0 
L 469 0 
L 469 531 
Q 828 903 1448 1529 
Q 2069 2156 2228 2338 
Q 2531 2678 2651 2914 
Q 2772 3150 2772 3378 
Q 2772 3750 2511 3984 
Q 2250 4219 1831 4219 
Q 1534 4219 1204 4116 
Q 875 4013 500 3803 
L 500 4441 
Q 881 4594 1212 4672 
Q 1544 4750 1819 4750 
Q 2544 4750 2975 4387 
Q 3406 4025 3406 3419 
Q 3406 3131 3298 2873 
Q 3191 2616 2906 2266 
Q 2828 2175 2409 1742 
Q 1991 1309 1228 531 
z
" transform="scale(0.015625)"/>
       </defs>
       <use xlink:href="#DejaVuSans-32"/>
      </g>
     </g>
    </g>
    <g id="xtick_3">
     <g id="line2d_5">
      <path d="M 317.973812 640.8 
L 317.973812 86.4 
" clip-path="url(#p79df245589)" style="fill: none; stroke: #b0b0b0; stroke-width: 0.8; stroke-linecap: square"/>
     </g>
     <g id="line2d_6">
      <g>
       <use xlink:href="#m3ab8c38e7f" x="317.973812" y="640.8" style="stroke: #000000; stroke-width: 0.8"/>
      </g>
     </g>
     <g id="text_3">
      <!-- 3 -->
      <g transform="translate(314.792562 655.398438) scale(0.1 -0.1)">
       <defs>
        <path id="DejaVuSans-33" d="M 2597 2516 
Q 3050 2419 3304 2112 
Q 3559 1806 3559 1356 
Q 3559 666 3084 287 
Q 2609 -91 1734 -91 
Q 1441 -91 1130 -33 
Q 819 25 488 141 
L 488 750 
Q 750 597 1062 519 
Q 1375 441 1716 441 
Q 2309 441 2620 675 
Q 2931 909 2931 1356 
Q 2931 1769 2642 2001 
Q 2353 2234 1838 2234 
L 1294 2234 
L 1294 2753 
L 1863 2753 
Q 2328 2753 2575 2939 
Q 2822 3125 2822 3475 
Q 2822 3834 2567 4026 
Q 2313 4219 1838 4219 
Q 1578 4219 1281 4162 
Q 984 4106 628 3988 
L 628 4550 
Q 988 4650 1302 4700 
Q 1616 4750 1894 4750 
Q 2613 4750 3031 4423 
Q 3450 4097 3450 3541 
Q 3450 3153 3228 2886 
Q 3006 2619 2597 2516 
z
" transform="scale(0.015625)"/>
       </defs>
       <use xlink:href="#DejaVuSans-33"/>
      </g>
     </g>
    </g>
    <g id="xtick_4">
     <g id="line2d_7">
      <path d="M 352.903773 640.8 
L 352.903773 86.4 
" clip-path="url(#p79df245589)" style="fill: none; stroke: #b0b0b0; stroke-width: 0.8; stroke-linecap: square"/>
     </g>
     <g id="line2d_8">
      <g>
       <use xlink:href="#m3ab8c38e7f" x="352.903773" y="640.8" style="stroke: #000000; stroke-width: 0.8"/>
      </g>
     </g>
     <g id="text_4">
      <!-- 4 -->
      <g transform="translate(349.722523 655.398438) scale(0.1 -0.1)">
       <defs>
        <path id="DejaVuSans-34" d="M 2419 4116 
L 825 1625 
L 2419 1625 
L 2419 4116 
z
M 2253 4666 
L 3047 4666 
L 3047 1625 
L 3713 1625 
L 3713 1100 
L 3047 1100 
L 3047 0 
L 2419 0 
L 2419 1100 
L 313 1100 
L 313 1709 
L 2253 4666 
z
" transform="scale(0.015625)"/>
       </defs>
       <use xlink:href="#DejaVuSans-34"/>
      </g>
     </g>
    </g>
    <g id="xtick_5">
     <g id="line2d_9">
      <path d="M 379.997556 640.8 
L 379.997556 86.4 
" clip-path="url(#p79df245589)" style="fill: none; stroke: #b0b0b0; stroke-width: 0.8; stroke-linecap: square"/>
     </g>
     <g id="line2d_10">
      <g>
       <use xlink:href="#m3ab8c38e7f" x="379.997556" y="640.8" style="stroke: #000000; stroke-width: 0.8"/>
      </g>
     </g>
     <g id="text_5">
      <!-- 5 -->
      <g transform="translate(376.816306 655.398438) scale(0.1 -0.1)">
       <defs>
        <path id="DejaVuSans-35" d="M 691 4666 
L 3169 4666 
L 3169 4134 
L 1269 4134 
L 1269 2991 
Q 1406 3038 1543 3061 
Q 1681 3084 1819 3084 
Q 2600 3084 3056 2656 
Q 3513 2228 3513 1497 
Q 3513 744 3044 326 
Q 2575 -91 1722 -91 
Q 1428 -91 1123 -41 
Q 819 9 494 109 
L 494 744 
Q 775 591 1075 516 
Q 1375 441 1709 441 
Q 2250 441 2565 725 
Q 2881 1009 2881 1497 
Q 2881 1984 2565 2268 
Q 2250 2553 1709 2553 
Q 1456 2553 1204 2497 
Q 953 2441 691 2322 
L 691 4666 
z
" transform="scale(0.015625)"/>
       </defs>
       <use xlink:href="#DejaVuSans-35"/>
      </g>
     </g>
    </g>
    <g id="xtick_6">
     <g id="line2d_11">
      <path d="M 402.134789 640.8 
L 402.134789 86.4 
" clip-path="url(#p79df245589)" style="fill: none; stroke: #b0b0b0; stroke-width: 0.8; stroke-linecap: square"/>
     </g>
     <g id="line2d_12">
      <g>
       <use xlink:href="#m3ab8c38e7f" x="402.134789" y="640.8" style="stroke: #000000; stroke-width: 0.8"/>
      </g>
     </g>
     <g id="text_6">
      <!-- 6 -->
      <g transform="translate(398.953539 655.398438) scale(0.1 -0.1)">
       <defs>
        <path id="DejaVuSans-36" d="M 2113 2584 
Q 1688 2584 1439 2293 
Q 1191 2003 1191 1497 
Q 1191 994 1439 701 
Q 1688 409 2113 409 
Q 2538 409 2786 701 
Q 3034 994 3034 1497 
Q 3034 2003 2786 2293 
Q 2538 2584 2113 2584 
z
M 3366 4563 
L 3366 3988 
Q 3128 4100 2886 4159 
Q 2644 4219 2406 4219 
Q 1781 4219 1451 3797 
Q 1122 3375 1075 2522 
Q 1259 2794 1537 2939 
Q 1816 3084 2150 3084 
Q 2853 3084 3261 2657 
Q 3669 2231 3669 1497 
Q 3669 778 3244 343 
Q 2819 -91 2113 -91 
Q 1303 -91 875 529 
Q 447 1150 447 2328 
Q 447 3434 972 4092 
Q 1497 4750 2381 4750 
Q 2619 4750 2861 4703 
Q 3103 4656 3366 4563 
z
" transform="scale(0.015625)"/>
       </defs>
       <use xlink:href="#DejaVuSans-36"/>
      </g>
     </g>
    </g>
    <g id="xtick_7">
     <g id="line2d_13">
      <path d="M 420.851553 640.8 
L 420.851553 86.4 
" clip-path="url(#p79df245589)" style="fill: none; stroke: #b0b0b0; stroke-width: 0.8; stroke-linecap: square"/>
     </g>
     <g id="line2d_14">
      <g>
       <use xlink:href="#m3ab8c38e7f" x="420.851553" y="640.8" style="stroke: #000000; stroke-width: 0.8"/>
      </g>
     </g>
     <g id="text_7">
      <!-- 7 -->
      <g transform="translate(417.670303 655.398438) scale(0.1 -0.1)">
       <defs>
        <path id="DejaVuSans-37" d="M 525 4666 
L 3525 4666 
L 3525 4397 
L 1831 0 
L 1172 0 
L 2766 4134 
L 525 4134 
L 525 4666 
z
" transform="scale(0.015625)"/>
       </defs>
       <use xlink:href="#DejaVuSans-37"/>
      </g>
     </g>
    </g>
    <g id="xtick_8">
     <g id="line2d_15">
      <path d="M 437.064751 640.8 
L 437.064751 86.4 
" clip-path="url(#p79df245589)" style="fill: none; stroke: #b0b0b0; stroke-width: 0.8; stroke-linecap: square"/>
     </g>
     <g id="line2d_16">
      <g>
       <use xlink:href="#m3ab8c38e7f" x="437.064751" y="640.8" style="stroke: #000000; stroke-width: 0.8"/>
      </g>
     </g>
     <g id="text_8">
      <!-- 8 -->
      <g transform="translate(433.883501 655.398438) scale(0.1 -0.1)">
       <defs>
        <path id="DejaVuSans-38" d="M 2034 2216 
Q 1584 2216 1326 1975 
Q 1069 1734 1069 1313 
Q 1069 891 1326 650 
Q 1584 409 2034 409 
Q 2484 409 2743 651 
Q 3003 894 3003 1313 
Q 3003 1734 2745 1975 
Q 2488 2216 2034 2216 
z
M 1403 2484 
Q 997 2584 770 2862 
Q 544 3141 544 3541 
Q 544 4100 942 4425 
Q 1341 4750 2034 4750 
Q 2731 4750 3128 4425 
Q 3525 4100 3525 3541 
Q 3525 3141 3298 2862 
Q 3072 2584 2669 2484 
Q 3125 2378 3379 2068 
Q 3634 1759 3634 1313 
Q 3634 634 3220 271 
Q 2806 -91 2034 -91 
Q 1263 -91 848 271 
Q 434 634 434 1313 
Q 434 1759 690 2068 
Q 947 2378 1403 2484 
z
M 1172 3481 
Q 1172 3119 1398 2916 
Q 1625 2713 2034 2713 
Q 2441 2713 2670 2916 
Q 2900 3119 2900 3481 
Q 2900 3844 2670 4047 
Q 2441 4250 2034 4250 
Q 1625 4250 1398 4047 
Q 1172 3844 1172 3481 
z
" transform="scale(0.015625)"/>
       </defs>
       <use xlink:href="#DejaVuSans-38"/>
      </g>
     </g>
    </g>
    <g id="xtick_9">
     <g id="line2d_17">
      <path d="M 451.365805 640.8 
L 451.365805 86.4 
" clip-path="url(#p79df245589)" style="fill: none; stroke: #b0b0b0; stroke-width: 0.8; stroke-linecap: square"/>
     </g>
     <g id="line2d_18">
      <g>
       <use xlink:href="#m3ab8c38e7f" x="451.365805" y="640.8" style="stroke: #000000; stroke-width: 0.8"/>
      </g>
     </g>
     <g id="text_9">
      <!-- 9 -->
      <g transform="translate(448.184555 655.398438) scale(0.1 -0.1)">
       <defs>
        <path id="DejaVuSans-39" d="M 703 97 
L 703 672 
Q 941 559 1184 500 
Q 1428 441 1663 441 
Q 2288 441 2617 861 
Q 2947 1281 2994 2138 
Q 2813 1869 2534 1725 
Q 2256 1581 1919 1581 
Q 1219 1581 811 2004 
Q 403 2428 403 3163 
Q 403 3881 828 4315 
Q 1253 4750 1959 4750 
Q 2769 4750 3195 4129 
Q 3622 3509 3622 2328 
Q 3622 1225 3098 567 
Q 2575 -91 1691 -91 
Q 1453 -91 1209 -44 
Q 966 3 703 97 
z
M 1959 2075 
Q 2384 2075 2632 2365 
Q 2881 2656 2881 3163 
Q 2881 3666 2632 3958 
Q 2384 4250 1959 4250 
Q 1534 4250 1286 3958 
Q 1038 3666 1038 3163 
Q 1038 2656 1286 2365 
Q 1534 2075 1959 2075 
z
" transform="scale(0.015625)"/>
       </defs>
       <use xlink:href="#DejaVuSans-39"/>
      </g>
     </g>
    </g>
    <g id="xtick_10">
     <g id="line2d_19">
      <path d="M 464.158534 640.8 
L 464.158534 86.4 
" clip-path="url(#p79df245589)" style="fill: none; stroke: #b0b0b0; stroke-width: 0.8; stroke-linecap: square"/>
     </g>
     <g id="line2d_20">
      <g>
       <use xlink:href="#m3ab8c38e7f" x="464.158534" y="640.8" style="stroke: #000000; stroke-width: 0.8"/>
      </g>
     </g>
     <g id="text_10">
      <!-- 10 -->
      <g transform="translate(457.796034 655.398438) scale(0.1 -0.1)">
       <defs>
        <path id="DejaVuSans-30" d="M 2034 4250 
Q 1547 4250 1301 3770 
Q 1056 3291 1056 2328 
Q 1056 1369 1301 889 
Q 1547 409 2034 409 
Q 2525 409 2770 889 
Q 3016 1369 3016 2328 
Q 3016 3291 2770 3770 
Q 2525 4250 2034 4250 
z
M 2034 4750 
Q 2819 4750 3233 4129 
Q 3647 3509 3647 2328 
Q 3647 1150 3233 529 
Q 2819 -91 2034 -91 
Q 1250 -91 836 529 
Q 422 1150 422 2328 
Q 422 3509 836 4129 
Q 1250 4750 2034 4750 
z
" transform="scale(0.015625)"/>
       </defs>
       <use xlink:href="#DejaVuSans-31"/>
       <use xlink:href="#DejaVuSans-30" transform="translate(63.623047 0)"/>
      </g>
     </g>
    </g>
    <g id="xtick_11">
     <g id="line2d_21">
      <path d="M 486.295766 640.8 
L 486.295766 86.4 
" clip-path="url(#p79df245589)" style="fill: none; stroke: #b0b0b0; stroke-width: 0.8; stroke-linecap: square"/>
     </g>
     <g id="line2d_22">
      <g>
       <use xlink:href="#m3ab8c38e7f" x="486.295766" y="640.8" style="stroke: #000000; stroke-width: 0.8"/>
      </g>
     </g>
     <g id="text_11">
      <!-- 12 -->
      <g transform="translate(479.933266 655.398438) scale(0.1 -0.1)">
       <use xlink:href="#DejaVuSans-31"/>
       <use xlink:href="#DejaVuSans-32" transform="translate(63.623047 0)"/>
      </g>
     </g>
    </g>
    <g id="xtick_12">
     <g id="line2d_23">
      <path d="M 505.01253 640.8 
L 505.01253 86.4 
" clip-path="url(#p79df245589)" style="fill: none; stroke: #b0b0b0; stroke-width: 0.8; stroke-linecap: square"/>
     </g>
     <g id="line2d_24">
      <g>
       <use xlink:href="#m3ab8c38e7f" x="505.01253" y="640.8" style="stroke: #000000; stroke-width: 0.8"/>
      </g>
     </g>
     <g id="text_12">
      <!-- 14 -->
      <g transform="translate(498.65003 655.398438) scale(0.1 -0.1)">
       <use xlink:href="#DejaVuSans-31"/>
       <use xlink:href="#DejaVuSans-34" transform="translate(63.623047 0)"/>
      </g>
     </g>
    </g>
    <g id="xtick_13">
     <g id="line2d_25">
      <path d="M 521.225728 640.8 
L 521.225728 86.4 
" clip-path="url(#p79df245589)" style="fill: none; stroke: #b0b0b0; stroke-width: 0.8; stroke-linecap: square"/>
     </g>
     <g id="line2d_26">
      <g>
       <use xlink:href="#m3ab8c38e7f" x="521.225728" y="640.8" style="stroke: #000000; stroke-width: 0.8"/>
      </g>
     </g>
     <g id="text_13">
      <!-- 16 -->
      <g transform="translate(514.863228 655.398438) scale(0.1 -0.1)">
       <use xlink:href="#DejaVuSans-31"/>
       <use xlink:href="#DejaVuSans-36" transform="translate(63.623047 0)"/>
      </g>
     </g>
    </g>
    <g id="xtick_14">
     <g id="line2d_27">
      <path d="M 535.526782 640.8 
L 535.526782 86.4 
" clip-path="url(#p79df245589)" style="fill: none; stroke: #b0b0b0; stroke-width: 0.8; stroke-linecap: square"/>
     </g>
     <g id="line2d_28">
      <g>
       <use xlink:href="#m3ab8c38e7f" x="535.526782" y="640.8" style="stroke: #000000; stroke-width: 0.8"/>
      </g>
     </g>
     <g id="text_14">
      <!-- 18 -->
      <g transform="translate(529.164282 655.398438) scale(0.1 -0.1)">
       <use xlink:href="#DejaVuSans-31"/>
       <use xlink:href="#DejaVuSans-38" transform="translate(63.623047 0)"/>
      </g>
     </g>
    </g>
    <g id="xtick_15">
     <g id="line2d_29">
      <path d="M 548.319511 640.8 
L 548.319511 86.4 
" clip-path="url(#p79df245589)" style="fill: none; stroke: #b0b0b0; stroke-width: 0.8; stroke-linecap: square"/>
     </g>
     <g id="line2d_30">
      <g>
       <use xlink:href="#m3ab8c38e7f" x="548.319511" y="640.8" style="stroke: #000000; stroke-width: 0.8"/>
      </g>
     </g>
     <g id="text_15">
      <!-- 20 -->
      <g transform="translate(541.957011 655.398438) scale(0.1 -0.1)">
       <use xlink:href="#DejaVuSans-32"/>
       <use xlink:href="#DejaVuSans-30" transform="translate(63.623047 0)"/>
      </g>
     </g>
    </g>
    <g id="xtick_16">
     <g id="line2d_31">
      <path d="M 570.456744 640.8 
L 570.456744 86.4 
" clip-path="url(#p79df245589)" style="fill: none; stroke: #b0b0b0; stroke-width: 0.8; stroke-linecap: square"/>
     </g>
     <g id="line2d_32">
      <g>
       <use xlink:href="#m3ab8c38e7f" x="570.456744" y="640.8" style="stroke: #000000; stroke-width: 0.8"/>
      </g>
     </g>
     <g id="text_16">
      <!-- 24 -->
      <g transform="translate(564.094244 655.398438) scale(0.1 -0.1)">
       <use xlink:href="#DejaVuSans-32"/>
       <use xlink:href="#DejaVuSans-34" transform="translate(63.623047 0)"/>
      </g>
     </g>
    </g>
    <g id="xtick_17">
     <g id="line2d_33">
      <path d="M 589.173508 640.8 
L 589.173508 86.4 
" clip-path="url(#p79df245589)" style="fill: none; stroke: #b0b0b0; stroke-width: 0.8; stroke-linecap: square"/>
     </g>
     <g id="line2d_34">
      <g>
       <use xlink:href="#m3ab8c38e7f" x="589.173508" y="640.8" style="stroke: #000000; stroke-width: 0.8"/>
      </g>
     </g>
     <g id="text_17">
      <!-- 28 -->
      <g transform="translate(582.811008 655.398438) scale(0.1 -0.1)">
       <use xlink:href="#DejaVuSans-32"/>
       <use xlink:href="#DejaVuSans-38" transform="translate(63.623047 0)"/>
      </g>
     </g>
    </g>
    <g id="xtick_18">
     <g id="line2d_35">
      <path d="M 605.386706 640.8 
L 605.386706 86.4 
" clip-path="url(#p79df245589)" style="fill: none; stroke: #b0b0b0; stroke-width: 0.8; stroke-linecap: square"/>
     </g>
     <g id="line2d_36">
      <g>
       <use xlink:href="#m3ab8c38e7f" x="605.386706" y="640.8" style="stroke: #000000; stroke-width: 0.8"/>
      </g>
     </g>
     <g id="text_18">
      <!-- 32 -->
      <g transform="translate(599.024206 655.398438) scale(0.1 -0.1)">
       <use xlink:href="#DejaVuSans-33"/>
       <use xlink:href="#DejaVuSans-32" transform="translate(63.623047 0)"/>
      </g>
     </g>
    </g>
    <g id="xtick_19">
     <g id="line2d_37">
      <path d="M 659.574272 640.8 
L 659.574272 86.4 
" clip-path="url(#p79df245589)" style="fill: none; stroke: #b0b0b0; stroke-width: 0.8; stroke-linecap: square"/>
     </g>
     <g id="line2d_38">
      <g>
       <use xlink:href="#m3ab8c38e7f" x="659.574272" y="640.8" style="stroke: #000000; stroke-width: 0.8"/>
      </g>
     </g>
     <g id="text_19">
      <!-- 50 -->
      <g transform="translate(653.211772 655.398438) scale(0.1 -0.1)">
       <use xlink:href="#DejaVuSans-35"/>
       <use xlink:href="#DejaVuSans-30" transform="translate(63.623047 0)"/>
      </g>
     </g>
    </g>
    <g id="xtick_20">
     <g id="line2d_39">
      <path d="M 743.735249 640.8 
L 743.735249 86.4 
" clip-path="url(#p79df245589)" style="fill: none; stroke: #b0b0b0; stroke-width: 0.8; stroke-linecap: square"/>
     </g>
     <g id="line2d_40">
      <g>
       <use xlink:href="#m3ab8c38e7f" x="743.735249" y="640.8" style="stroke: #000000; stroke-width: 0.8"/>
      </g>
     </g>
     <g id="text_20">
      <!-- 100 -->
      <g transform="translate(734.191499 655.398438) scale(0.1 -0.1)">
       <use xlink:href="#DejaVuSans-31"/>
       <use xlink:href="#DejaVuSans-30" transform="translate(63.623047 0)"/>
       <use xlink:href="#DejaVuSans-30" transform="translate(127.246094 0)"/>
      </g>
     </g>
    </g>
    <g id="xtick_21">
     <g id="line2d_41">
      <path d="M 827.896227 640.8 
L 827.896227 86.4 
" clip-path="url(#p79df245589)" style="fill: none; stroke: #b0b0b0; stroke-width: 0.8; stroke-linecap: square"/>
     </g>
     <g id="line2d_42">
      <g>
       <use xlink:href="#m3ab8c38e7f" x="827.896227" y="640.8" style="stroke: #000000; stroke-width: 0.8"/>
      </g>
     </g>
     <g id="text_21">
      <!-- 200 -->
      <g transform="translate(818.352477 655.398438) scale(0.1 -0.1)">
       <use xlink:href="#DejaVuSans-32"/>
       <use xlink:href="#DejaVuSans-30" transform="translate(63.623047 0)"/>
       <use xlink:href="#DejaVuSans-30" transform="translate(127.246094 0)"/>
      </g>
     </g>
    </g>
    <g id="xtick_22">
     <g id="line2d_43">
      <path d="M 912.057204 640.8 
L 912.057204 86.4 
" clip-path="url(#p79df245589)" style="fill: none; stroke: #b0b0b0; stroke-width: 0.8; stroke-linecap: square"/>
     </g>
     <g id="line2d_44">
      <g>
       <use xlink:href="#m3ab8c38e7f" x="912.057204" y="640.8" style="stroke: #000000; stroke-width: 0.8"/>
      </g>
     </g>
     <g id="text_22">
      <!-- 400 -->
      <g transform="translate(902.513454 655.398438) scale(0.1 -0.1)">
       <use xlink:href="#DejaVuSans-34"/>
       <use xlink:href="#DejaVuSans-30" transform="translate(63.623047 0)"/>
       <use xlink:href="#DejaVuSans-30" transform="translate(127.246094 0)"/>
      </g>
     </g>
    </g>
    <g id="xtick_23">
     <g id="line2d_45">
      <path d="M 996.218182 640.8 
L 996.218182 86.4 
" clip-path="url(#p79df245589)" style="fill: none; stroke: #b0b0b0; stroke-width: 0.8; stroke-linecap: square"/>
     </g>
     <g id="line2d_46">
      <g>
       <use xlink:href="#m3ab8c38e7f" x="996.218182" y="640.8" style="stroke: #000000; stroke-width: 0.8"/>
      </g>
     </g>
     <g id="text_23">
      <!-- 800 -->
      <g transform="translate(986.674432 655.398438) scale(0.1 -0.1)">
       <use xlink:href="#DejaVuSans-38"/>
       <use xlink:href="#DejaVuSans-30" transform="translate(63.623047 0)"/>
       <use xlink:href="#DejaVuSans-30" transform="translate(127.246094 0)"/>
      </g>
     </g>
    </g>
    <g id="text_24">
     <!-- Write Length -->
     <g transform="translate(558.364062 669.076563) scale(0.1 -0.1)">
      <defs>
       <path id="DejaVuSans-57" d="M 213 4666 
L 850 4666 
L 1831 722 
L 2809 4666 
L 3519 4666 
L 4500 722 
L 5478 4666 
L 6119 4666 
L 4947 0 
L 4153 0 
L 3169 4050 
L 2175 0 
L 1381 0 
L 213 4666 
z
" transform="scale(0.015625)"/>
       <path id="DejaVuSans-72" d="M 2631 2963 
Q 2534 3019 2420 3045 
Q 2306 3072 2169 3072 
Q 1681 3072 1420 2755 
Q 1159 2438 1159 1844 
L 1159 0 
L 581 0 
L 581 3500 
L 1159 3500 
L 1159 2956 
Q 1341 3275 1631 3429 
Q 1922 3584 2338 3584 
Q 2397 3584 2469 3576 
Q 2541 3569 2628 3553 
L 2631 2963 
z
" transform="scale(0.015625)"/>
       <path id="DejaVuSans-69" d="M 603 3500 
L 1178 3500 
L 1178 0 
L 603 0 
L 603 3500 
z
M 603 4863 
L 1178 4863 
L 1178 4134 
L 603 4134 
L 603 4863 
z
" transform="scale(0.015625)"/>
       <path id="DejaVuSans-74" d="M 1172 4494 
L 1172 3500 
L 2356 3500 
L 2356 3053 
L 1172 3053 
L 1172 1153 
Q 1172 725 1289 603 
Q 1406 481 1766 481 
L 2356 481 
L 2356 0 
L 1766 0 
Q 1100 0 847 248 
Q 594 497 594 1153 
L 594 3053 
L 172 3053 
L 172 3500 
L 594 3500 
L 594 4494 
L 1172 4494 
z
" transform="scale(0.015625)"/>
       <path id="DejaVuSans-65" d="M 3597 1894 
L 3597 1613 
L 953 1613 
Q 991 1019 1311 708 
Q 1631 397 2203 397 
Q 2534 397 2845 478 
Q 3156 559 3463 722 
L 3463 178 
Q 3153 47 2828 -22 
Q 2503 -91 2169 -91 
Q 1331 -91 842 396 
Q 353 884 353 1716 
Q 353 2575 817 3079 
Q 1281 3584 2069 3584 
Q 2775 3584 3186 3129 
Q 3597 2675 3597 1894 
z
M 3022 2063 
Q 3016 2534 2758 2815 
Q 2500 3097 2075 3097 
Q 1594 3097 1305 2825 
Q 1016 2553 972 2059 
L 3022 2063 
z
" transform="scale(0.015625)"/>
       <path id="DejaVuSans-20" transform="scale(0.015625)"/>
       <path id="DejaVuSans-4c" d="M 628 4666 
L 1259 4666 
L 1259 531 
L 3531 531 
L 3531 0 
L 628 0 
L 628 4666 
z
" transform="scale(0.015625)"/>
       <path id="DejaVuSans-6e" d="M 3513 2113 
L 3513 0 
L 2938 0 
L 2938 2094 
Q 2938 2591 2744 2837 
Q 2550 3084 2163 3084 
Q 1697 3084 1428 2787 
Q 1159 2491 1159 1978 
L 1159 0 
L 581 0 
L 581 3500 
L 1159 3500 
L 1159 2956 
Q 1366 3272 1645 3428 
Q 1925 3584 2291 3584 
Q 2894 3584 3203 3211 
Q 3513 2838 3513 2113 
z
" transform="scale(0.015625)"/>
       <path id="DejaVuSans-67" d="M 2906 1791 
Q 2906 2416 2648 2759 
Q 2391 3103 1925 3103 
Q 1463 3103 1205 2759 
Q 947 2416 947 1791 
Q 947 1169 1205 825 
Q 1463 481 1925 481 
Q 2391 481 2648 825 
Q 2906 1169 2906 1791 
z
M 3481 434 
Q 3481 -459 3084 -895 
Q 2688 -1331 1869 -1331 
Q 1566 -1331 1297 -1286 
Q 1028 -1241 775 -1147 
L 775 -588 
Q 1028 -725 1275 -790 
Q 1522 -856 1778 -856 
Q 2344 -856 2625 -561 
Q 2906 -266 2906 331 
L 2906 616 
Q 2728 306 2450 153 
Q 2172 0 1784 0 
Q 1141 0 747 490 
Q 353 981 353 1791 
Q 353 2603 747 3093 
Q 1141 3584 1784 3584 
Q 2172 3584 2450 3431 
Q 2728 3278 2906 2969 
L 2906 3500 
L 3481 3500 
L 3481 434 
z
" transform="scale(0.015625)"/>
       <path id="DejaVuSans-68" d="M 3513 2113 
L 3513 0 
L 2938 0 
L 2938 2094 
Q 2938 2591 2744 2837 
Q 2550 3084 2163 3084 
Q 1697 3084 1428 2787 
Q 1159 2491 1159 1978 
L 1159 0 
L 581 0 
L 581 4863 
L 1159 4863 
L 1159 2956 
Q 1366 3272 1645 3428 
Q 1925 3584 2291 3584 
Q 2894 3584 3203 3211 
Q 3513 2838 3513 2113 
z
" transform="scale(0.015625)"/>
      </defs>
      <use xlink:href="#DejaVuSans-57"/>
      <use xlink:href="#DejaVuSans-72" transform="translate(94.376953 0)"/>
      <use xlink:href="#DejaVuSans-69" transform="translate(135.490234 0)"/>
      <use xlink:href="#DejaVuSans-74" transform="translate(163.273438 0)"/>
      <use xlink:href="#DejaVuSans-65" transform="translate(202.482422 0)"/>
      <use xlink:href="#DejaVuSans-20" transform="translate(264.005859 0)"/>
      <use xlink:href="#DejaVuSans-4c" transform="translate(295.792969 0)"/>
      <use xlink:href="#DejaVuSans-65" transform="translate(349.755859 0)"/>
      <use xlink:href="#DejaVuSans-6e" transform="translate(411.279297 0)"/>
      <use xlink:href="#DejaVuSans-67" transform="translate(474.658203 0)"/>
      <use xlink:href="#DejaVuSans-74" transform="translate(538.134766 0)"/>
      <use xlink:href="#DejaVuSans-68" transform="translate(577.34375 0)"/>
     </g>
    </g>
   </g>
   <g id="matplotlib.axis_2">
    <g id="ytick_1">
     <g id="line2d_47">
      <path d="M 144 566.785213 
L 1036.8 566.785213 
" clip-path="url(#p79df245589)" style="fill: none; stroke: #b0b0b0; stroke-width: 0.8; stroke-linecap: square"/>
     </g>
     <g id="line2d_48">
      <defs>
       <path id="mdfbac9eb6c" d="M 0 0 
L -3.5 0 
" style="stroke: #000000; stroke-width: 0.8"/>
      </defs>
      <g>
       <use xlink:href="#mdfbac9eb6c" x="144" y="566.785213" style="stroke: #000000; stroke-width: 0.8"/>
      </g>
     </g>
     <g id="text_25">
      <!-- 1 -->
      <g transform="translate(130.6375 570.584431) scale(0.1 -0.1)">
       <use xlink:href="#DejaVuSans-31"/>
      </g>
     </g>
    </g>
    <g id="ytick_2">
     <g id="line2d_49">
      <path d="M 144 473.70982 
L 1036.8 473.70982 
" clip-path="url(#p79df245589)" style="fill: none; stroke: #b0b0b0; stroke-width: 0.8; stroke-linecap: square"/>
     </g>
     <g id="line2d_50">
      <g>
       <use xlink:href="#mdfbac9eb6c" x="144" y="473.70982" style="stroke: #000000; stroke-width: 0.8"/>
      </g>
     </g>
     <g id="text_26">
      <!-- 2 -->
      <g transform="translate(130.6375 477.509039) scale(0.1 -0.1)">
       <use xlink:href="#DejaVuSans-32"/>
      </g>
     </g>
    </g>
    <g id="ytick_3">
     <g id="line2d_51">
      <path d="M 144 380.634428 
L 1036.8 380.634428 
" clip-path="url(#p79df245589)" style="fill: none; stroke: #b0b0b0; stroke-width: 0.8; stroke-linecap: square"/>
     </g>
     <g id="line2d_52">
      <g>
       <use xlink:href="#mdfbac9eb6c" x="144" y="380.634428" style="stroke: #000000; stroke-width: 0.8"/>
      </g>
     </g>
     <g id="text_27">
      <!-- 3 -->
      <g transform="translate(130.6375 384.433647) scale(0.1 -0.1)">
       <use xlink:href="#DejaVuSans-33"/>
      </g>
     </g>
    </g>
    <g id="ytick_4">
     <g id="line2d_53">
      <path d="M 144 287.559036 
L 1036.8 287.559036 
" clip-path="url(#p79df245589)" style="fill: none; stroke: #b0b0b0; stroke-width: 0.8; stroke-linecap: square"/>
     </g>
     <g id="line2d_54">
      <g>
       <use xlink:href="#mdfbac9eb6c" x="144" y="287.559036" style="stroke: #000000; stroke-width: 0.8"/>
      </g>
     </g>
     <g id="text_28">
      <!-- 4 -->
      <g transform="translate(130.6375 291.358255) scale(0.1 -0.1)">
       <use xlink:href="#DejaVuSans-34"/>
      </g>
     </g>
    </g>
    <g id="ytick_5">
     <g id="line2d_55">
      <path d="M 144 194.483644 
L 1036.8 194.483644 
" clip-path="url(#p79df245589)" style="fill: none; stroke: #b0b0b0; stroke-width: 0.8; stroke-linecap: square"/>
     </g>
     <g id="line2d_56">
      <g>
       <use xlink:href="#mdfbac9eb6c" x="144" y="194.483644" style="stroke: #000000; stroke-width: 0.8"/>
      </g>
     </g>
     <g id="text_29">
      <!-- 5 -->
      <g transform="translate(130.6375 198.282863) scale(0.1 -0.1)">
       <use xlink:href="#DejaVuSans-35"/>
      </g>
     </g>
    </g>
    <g id="ytick_6">
     <g id="line2d_57">
      <path d="M 144 101.408252 
L 1036.8 101.408252 
" clip-path="url(#p79df245589)" style="fill: none; stroke: #b0b0b0; stroke-width: 0.8; stroke-linecap: square"/>
     </g>
     <g id="line2d_58">
      <g>
       <use xlink:href="#mdfbac9eb6c" x="144" y="101.408252" style="stroke: #000000; stroke-width: 0.8"/>
      </g>
     </g>
     <g id="text_30">
      <!-- 6 -->
      <g transform="translate(130.6375 105.20747) scale(0.1 -0.1)">
       <use xlink:href="#DejaVuSans-36"/>
      </g>
     </g>
    </g>
    <g id="text_31">
     <!-- GB / Second -->
     <g transform="translate(124.557812 394.169531) rotate(-90) scale(0.1 -0.1)">
      <defs>
       <path id="DejaVuSans-47" d="M 3809 666 
L 3809 1919 
L 2778 1919 
L 2778 2438 
L 4434 2438 
L 4434 434 
Q 4069 175 3628 42 
Q 3188 -91 2688 -91 
Q 1594 -91 976 548 
Q 359 1188 359 2328 
Q 359 3472 976 4111 
Q 1594 4750 2688 4750 
Q 3144 4750 3555 4637 
Q 3966 4525 4313 4306 
L 4313 3634 
Q 3963 3931 3569 4081 
Q 3175 4231 2741 4231 
Q 1884 4231 1454 3753 
Q 1025 3275 1025 2328 
Q 1025 1384 1454 906 
Q 1884 428 2741 428 
Q 3075 428 3337 486 
Q 3600 544 3809 666 
z
" transform="scale(0.015625)"/>
       <path id="DejaVuSans-42" d="M 1259 2228 
L 1259 519 
L 2272 519 
Q 2781 519 3026 730 
Q 3272 941 3272 1375 
Q 3272 1813 3026 2020 
Q 2781 2228 2272 2228 
L 1259 2228 
z
M 1259 4147 
L 1259 2741 
L 2194 2741 
Q 2656 2741 2882 2914 
Q 3109 3088 3109 3444 
Q 3109 3797 2882 3972 
Q 2656 4147 2194 4147 
L 1259 4147 
z
M 628 4666 
L 2241 4666 
Q 2963 4666 3353 4366 
Q 3744 4066 3744 3513 
Q 3744 3084 3544 2831 
Q 3344 2578 2956 2516 
Q 3422 2416 3680 2098 
Q 3938 1781 3938 1306 
Q 3938 681 3513 340 
Q 3088 0 2303 0 
L 628 0 
L 628 4666 
z
" transform="scale(0.015625)"/>
       <path id="DejaVuSans-2f" d="M 1625 4666 
L 2156 4666 
L 531 -594 
L 0 -594 
L 1625 4666 
z
" transform="scale(0.015625)"/>
       <path id="DejaVuSans-53" d="M 3425 4513 
L 3425 3897 
Q 3066 4069 2747 4153 
Q 2428 4238 2131 4238 
Q 1616 4238 1336 4038 
Q 1056 3838 1056 3469 
Q 1056 3159 1242 3001 
Q 1428 2844 1947 2747 
L 2328 2669 
Q 3034 2534 3370 2195 
Q 3706 1856 3706 1288 
Q 3706 609 3251 259 
Q 2797 -91 1919 -91 
Q 1588 -91 1214 -16 
Q 841 59 441 206 
L 441 856 
Q 825 641 1194 531 
Q 1563 422 1919 422 
Q 2459 422 2753 634 
Q 3047 847 3047 1241 
Q 3047 1584 2836 1778 
Q 2625 1972 2144 2069 
L 1759 2144 
Q 1053 2284 737 2584 
Q 422 2884 422 3419 
Q 422 4038 858 4394 
Q 1294 4750 2059 4750 
Q 2388 4750 2728 4690 
Q 3069 4631 3425 4513 
z
" transform="scale(0.015625)"/>
       <path id="DejaVuSans-63" d="M 3122 3366 
L 3122 2828 
Q 2878 2963 2633 3030 
Q 2388 3097 2138 3097 
Q 1578 3097 1268 2742 
Q 959 2388 959 1747 
Q 959 1106 1268 751 
Q 1578 397 2138 397 
Q 2388 397 2633 464 
Q 2878 531 3122 666 
L 3122 134 
Q 2881 22 2623 -34 
Q 2366 -91 2075 -91 
Q 1284 -91 818 406 
Q 353 903 353 1747 
Q 353 2603 823 3093 
Q 1294 3584 2113 3584 
Q 2378 3584 2631 3529 
Q 2884 3475 3122 3366 
z
" transform="scale(0.015625)"/>
       <path id="DejaVuSans-6f" d="M 1959 3097 
Q 1497 3097 1228 2736 
Q 959 2375 959 1747 
Q 959 1119 1226 758 
Q 1494 397 1959 397 
Q 2419 397 2687 759 
Q 2956 1122 2956 1747 
Q 2956 2369 2687 2733 
Q 2419 3097 1959 3097 
z
M 1959 3584 
Q 2709 3584 3137 3096 
Q 3566 2609 3566 1747 
Q 3566 888 3137 398 
Q 2709 -91 1959 -91 
Q 1206 -91 779 398 
Q 353 888 353 1747 
Q 353 2609 779 3096 
Q 1206 3584 1959 3584 
z
" transform="scale(0.015625)"/>
       <path id="DejaVuSans-64" d="M 2906 2969 
L 2906 4863 
L 3481 4863 
L 3481 0 
L 2906 0 
L 2906 525 
Q 2725 213 2448 61 
Q 2172 -91 1784 -91 
Q 1150 -91 751 415 
Q 353 922 353 1747 
Q 353 2572 751 3078 
Q 1150 3584 1784 3584 
Q 2172 3584 2448 3432 
Q 2725 3281 2906 2969 
z
M 947 1747 
Q 947 1113 1208 752 
Q 1469 391 1925 391 
Q 2381 391 2643 752 
Q 2906 1113 2906 1747 
Q 2906 2381 2643 2742 
Q 2381 3103 1925 3103 
Q 1469 3103 1208 2742 
Q 947 2381 947 1747 
z
" transform="scale(0.015625)"/>
      </defs>
      <use xlink:href="#DejaVuSans-47"/>
      <use xlink:href="#DejaVuSans-42" transform="translate(77.490234 0)"/>
      <use xlink:href="#DejaVuSans-20" transform="translate(146.09375 0)"/>
      <use xlink:href="#DejaVuSans-2f" transform="translate(177.880859 0)"/>
      <use xlink:href="#DejaVuSans-20" transform="translate(211.572266 0)"/>
      <use xlink:href="#DejaVuSans-53" transform="translate(243.359375 0)"/>
      <use xlink:href="#DejaVuSans-65" transform="translate(306.835938 0)"/>
      <use xlink:href="#DejaVuSans-63" transform="translate(368.359375 0)"/>
      <use xlink:href="#DejaVuSans-6f" transform="translate(423.339844 0)"/>
      <use xlink:href="#DejaVuSans-6e" transform="translate(484.521484 0)"/>
      <use xlink:href="#DejaVuSans-64" transform="translate(547.900391 0)"/>
     </g>
    </g>
    <g id="text_32">
     <!-- 1e9 -->
     <g transform="translate(144 83.4) scale(0.1 -0.1)">
      <use xlink:href="#DejaVuSans-31"/>
      <use xlink:href="#DejaVuSans-65" transform="translate(63.623047 0)"/>
      <use xlink:href="#DejaVuSans-39" transform="translate(125.146484 0)"/>
     </g>
    </g>
   </g>
   <g id="line2d_59">
    <path d="M 184.581818 615.6 
L 268.742796 576.696905 
L 317.973812 554.654067 
L 352.903773 539.990296 
L 379.997556 512.433306 
L 402.134789 490.781144 
L 420.851553 479.570399 
L 437.064751 427.697564 
L 451.365805 401.305302 
L 464.158534 401.67144 
L 486.295766 391.121397 
L 505.01253 383.264358 
L 521.225728 363.068209 
L 535.526782 357.743712 
L 548.319511 353.905129 
L 570.456744 356.944714 
L 589.173508 347.730474 
L 605.386706 349.886971 
L 659.574272 342.480212 
L 743.735249 335.273805 
L 827.896227 336.250269 
L 912.057204 335.046946 
L 996.218182 334.16934 
" clip-path="url(#p79df245589)" style="fill: none; stroke: #1f77b4; stroke-width: 1.5; stroke-linecap: square"/>
    <defs>
     <path id="me12423ffb1" d="M 0 3 
C 0.795609 3 1.55874 2.683901 2.12132 2.12132 
C 2.683901 1.55874 3 0.795609 3 0 
C 3 -0.795609 2.683901 -1.55874 2.12132 -2.12132 
C 1.55874 -2.683901 0.795609 -3 0 -3 
C -0.795609 -3 -1.55874 -2.683901 -2.12132 -2.12132 
C -2.683901 -1.55874 -3 -0.795609 -3 0 
C -3 0.795609 -2.683901 1.55874 -2.12132 2.12132 
C -1.55874 2.683901 -0.795609 3 0 3 
z
" style="stroke: #1f77b4"/>
    </defs>
    <g clip-path="url(#p79df245589)">
     <use xlink:href="#me12423ffb1" x="184.581818" y="615.6" style="fill: #1f77b4; stroke: #1f77b4"/>
     <use xlink:href="#me12423ffb1" x="268.742796" y="576.696905" style="fill: #1f77b4; stroke: #1f77b4"/>
     <use xlink:href="#me12423ffb1" x="317.973812" y="554.654067" style="fill: #1f77b4; stroke: #1f77b4"/>
     <use xlink:href="#me12423ffb1" x="352.903773" y="539.990296" style="fill: #1f77b4; stroke: #1f77b4"/>
     <use xlink:href="#me12423ffb1" x="379.997556" y="512.433306" style="fill: #1f77b4; stroke: #1f77b4"/>
     <use xlink:href="#me12423ffb1" x="402.134789" y="490.781144" style="fill: #1f77b4; stroke: #1f77b4"/>
     <use xlink:href="#me12423ffb1" x="420.851553" y="479.570399" style="fill: #1f77b4; stroke: #1f77b4"/>
     <use xlink:href="#me12423ffb1" x="437.064751" y="427.697564" style="fill: #1f77b4; stroke: #1f77b4"/>
     <use xlink:href="#me12423ffb1" x="451.365805" y="401.305302" style="fill: #1f77b4; stroke: #1f77b4"/>
     <use xlink:href="#me12423ffb1" x="464.158534" y="401.67144" style="fill: #1f77b4; stroke: #1f77b4"/>
     <use xlink:href="#me12423ffb1" x="486.295766" y="391.121397" style="fill: #1f77b4; stroke: #1f77b4"/>
     <use xlink:href="#me12423ffb1" x="505.01253" y="383.264358" style="fill: #1f77b4; stroke: #1f77b4"/>
     <use xlink:href="#me12423ffb1" x="521.225728" y="363.068209" style="fill: #1f77b4; stroke: #1f77b4"/>
     <use xlink:href="#me12423ffb1" x="535.526782" y="357.743712" style="fill: #1f77b4; stroke: #1f77b4"/>
     <use xlink:href="#me12423ffb1" x="548.319511" y="353.905129" style="fill: #1f77b4; stroke: #1f77b4"/>
     <use xlink:href="#me12423ffb1" x="570.456744" y="356.944714" style="fill: #1f77b4; stroke: #1f77b4"/>
     <use xlink:href="#me12423ffb1" x="589.173508" y="347.730474" style="fill: #1f77b4; stroke: #1f77b4"/>
     <use xlink:href="#me12423ffb1" x="605.386706" y="349.886971" style="fill: #1f77b4; stroke: #1f77b4"/>
     <use xlink:href="#me12423ffb1" x="659.574272" y="342.480212" style="fill: #1f77b4; stroke: #1f77b4"/>
     <use xlink:href="#me12423ffb1" x="743.735249" y="335.273805" style="fill: #1f77b4; stroke: #1f77b4"/>
     <use xlink:href="#me12423ffb1" x="827.896227" y="336.250269" style="fill: #1f77b4; stroke: #1f77b4"/>
     <use xlink:href="#me12423ffb1" x="912.057204" y="335.046946" style="fill: #1f77b4; stroke: #1f77b4"/>
     <use xlink:href="#me12423ffb1" x="996.218182" y="334.16934" style="fill: #1f77b4; stroke: #1f77b4"/>
    </g>
   </g>
   <g id="line2d_60">
    <path d="M 184.581818 609.319325 
L 268.742796 573.994673 
L 317.973812 550.750589 
L 352.903773 537.753065 
L 379.997556 509.804567 
L 402.134789 487.102623 
L 420.851553 479.076615 
L 437.064751 424.218401 
L 451.365805 391.106455 
L 464.158534 390.227368 
L 486.295766 389.240114 
L 505.01253 383.961736 
L 521.225728 364.734492 
L 535.526782 354.660897 
L 548.319511 353.636397 
L 570.456744 355.314139 
L 589.173508 348.146225 
L 605.386706 349.285099 
L 659.574272 341.099551 
L 743.735249 336.941729 
L 827.896227 336.863156 
L 912.057204 334.517393 
L 996.218182 334.278939 
" clip-path="url(#p79df245589)" style="fill: none; stroke: #ff7f0e; stroke-width: 1.5; stroke-linecap: square"/>
    <defs>
     <path id="m3a6a46f35c" d="M 0 3 
C 0.795609 3 1.55874 2.683901 2.12132 2.12132 
C 2.683901 1.55874 3 0.795609 3 0 
C 3 -0.795609 2.683901 -1.55874 2.12132 -2.12132 
C 1.55874 -2.683901 0.795609 -3 0 -3 
C -0.795609 -3 -1.55874 -2.683901 -2.12132 -2.12132 
C -2.683901 -1.55874 -3 -0.795609 -3 0 
C -3 0.795609 -2.683901 1.55874 -2.12132 2.12132 
C -1.55874 2.683901 -0.795609 3 0 3 
z
" style="stroke: #ff7f0e"/>
    </defs>
    <g clip-path="url(#p79df245589)">
     <use xlink:href="#m3a6a46f35c" x="184.581818" y="609.319325" style="fill: #ff7f0e; stroke: #ff7f0e"/>
     <use xlink:href="#m3a6a46f35c" x="268.742796" y="573.994673" style="fill: #ff7f0e; stroke: #ff7f0e"/>
     <use xlink:href="#m3a6a46f35c" x="317.973812" y="550.750589" style="fill: #ff7f0e; stroke: #ff7f0e"/>
     <use xlink:href="#m3a6a46f35c" x="352.903773" y="537.753065" style="fill: #ff7f0e; stroke: #ff7f0e"/>
     <use xlink:href="#m3a6a46f35c" x="379.997556" y="509.804567" style="fill: #ff7f0e; stroke: #ff7f0e"/>
     <use xlink:href="#m3a6a46f35c" x="402.134789" y="487.102623" style="fill: #ff7f0e; stroke: #ff7f0e"/>
     <use xlink:href="#m3a6a46f35c" x="420.851553" y="479.076615" style="fill: #ff7f0e; stroke: #ff7f0e"/>
     <use xlink:href="#m3a6a46f35c" x="437.064751" y="424.218401" style="fill: #ff7f0e; stroke: #ff7f0e"/>
     <use xlink:href="#m3a6a46f35c" x="451.365805" y="391.106455" style="fill: #ff7f0e; stroke: #ff7f0e"/>
     <use xlink:href="#m3a6a46f35c" x="464.158534" y="390.227368" style="fill: #ff7f0e; stroke: #ff7f0e"/>
     <use xlink:href="#m3a6a46f35c" x="486.295766" y="389.240114" style="fill: #ff7f0e; stroke: #ff7f0e"/>
     <use xlink:href="#m3a6a46f35c" x="505.01253" y="383.961736" style="fill: #ff7f0e; stroke: #ff7f0e"/>
     <use xlink:href="#m3a6a46f35c" x="521.225728" y="364.734492" style="fill: #ff7f0e; stroke: #ff7f0e"/>
     <use xlink:href="#m3a6a46f35c" x="535.526782" y="354.660897" style="fill: #ff7f0e; stroke: #ff7f0e"/>
     <use xlink:href="#m3a6a46f35c" x="548.319511" y="353.636397" style="fill: #ff7f0e; stroke: #ff7f0e"/>
     <use xlink:href="#m3a6a46f35c" x="570.456744" y="355.314139" style="fill: #ff7f0e; stroke: #ff7f0e"/>
     <use xlink:href="#m3a6a46f35c" x="589.173508" y="348.146225" style="fill: #ff7f0e; stroke: #ff7f0e"/>
     <use xlink:href="#m3a6a46f35c" x="605.386706" y="349.285099" style="fill: #ff7f0e; stroke: #ff7f0e"/>
     <use xlink:href="#m3a6a46f35c" x="659.574272" y="341.099551" style="fill: #ff7f0e; stroke: #ff7f0e"/>
     <use xlink:href="#m3a6a46f35c" x="743.735249" y="336.941729" style="fill: #ff7f0e; stroke: #ff7f0e"/>
     <use xlink:href="#m3a6a46f35c" x="827.896227" y="336.863156" style="fill: #ff7f0e; stroke: #ff7f0e"/>
     <use xlink:href="#m3a6a46f35c" x="912.057204" y="334.517393" style="fill: #ff7f0e; stroke: #ff7f0e"/>
     <use xlink:href="#m3a6a46f35c" x="996.218182" y="334.278939" style="fill: #ff7f0e; stroke: #ff7f0e"/>
    </g>
   </g>
   <g id="line2d_61">
    <path d="M 184.581818 601.566876 
L 268.742796 567.236355 
L 317.973812 529.980262 
L 352.903773 498.024183 
L 379.997556 470.464393 
L 402.134789 444.300473 
L 420.851553 421.249114 
L 437.064751 407.392741 
L 451.365805 389.376953 
L 464.158534 374.871467 
L 486.295766 344.163856 
L 505.01253 322.903126 
L 521.225728 298.807956 
L 535.526782 282.602831 
L 548.319511 272.400989 
L 570.456744 242.532915 
L 589.173508 226.15524 
L 605.386706 198.843392 
L 659.574272 153.954157 
L 743.735249 124.526496 
L 827.896227 126.960605 
L 912.057204 119.921366 
L 996.218182 111.6 
" clip-path="url(#p79df245589)" style="fill: none; stroke: #2ca02c; stroke-width: 1.5; stroke-linecap: square"/>
    <defs>
     <path id="m8bf8b86c57" d="M 0 3 
C 0.795609 3 1.55874 2.683901 2.12132 2.12132 
C 2.683901 1.55874 3 0.795609 3 0 
C 3 -0.795609 2.683901 -1.55874 2.12132 -2.12132 
C 1.55874 -2.683901 0.795609 -3 0 -3 
C -0.795609 -3 -1.55874 -2.683901 -2.12132 -2.12132 
C -2.683901 -1.55874 -3 -0.795609 -3 0 
C -3 0.795609 -2.683901 1.55874 -2.12132 2.12132 
C -1.55874 2.683901 -0.795609 3 0 3 
z
" style="stroke: #2ca02c"/>
    </defs>
    <g clip-path="url(#p79df245589)">
     <use xlink:href="#m8bf8b86c57" x="184.581818" y="601.566876" style="fill: #2ca02c; stroke: #2ca02c"/>
     <use xlink:href="#m8bf8b86c57" x="268.742796" y="567.236355" style="fill: #2ca02c; stroke: #2ca02c"/>
     <use xlink:href="#m8bf8b86c57" x="317.973812" y="529.980262" style="fill: #2ca02c; stroke: #2ca02c"/>
     <use xlink:href="#m8bf8b86c57" x="352.903773" y="498.024183" style="fill: #2ca02c; stroke: #2ca02c"/>
     <use xlink:href="#m8bf8b86c57" x="379.997556" y="470.464393" style="fill: #2ca02c; stroke: #2ca02c"/>
     <use xlink:href="#m8bf8b86c57" x="402.134789" y="444.300473" style="fill: #2ca02c; stroke: #2ca02c"/>
     <use xlink:href="#m8bf8b86c57" x="420.851553" y="421.249114" style="fill: #2ca02c; stroke: #2ca02c"/>
     <use xlink:href="#m8bf8b86c57" x="437.064751" y="407.392741" style="fill: #2ca02c; stroke: #2ca02c"/>
     <use xlink:href="#m8bf8b86c57" x="451.365805" y="389.376953" style="fill: #2ca02c; stroke: #2ca02c"/>
     <use xlink:href="#m8bf8b86c57" x="464.158534" y="374.871467" style="fill: #2ca02c; stroke: #2ca02c"/>
     <use xlink:href="#m8bf8b86c57" x="486.295766" y="344.163856" style="fill: #2ca02c; stroke: #2ca02c"/>
     <use xlink:href="#m8bf8b86c57" x="505.01253" y="322.903126" style="fill: #2ca02c; stroke: #2ca02c"/>
     <use xlink:href="#m8bf8b86c57" x="521.225728" y="298.807956" style="fill: #2ca02c; stroke: #2ca02c"/>
     <use xlink:href="#m8bf8b86c57" x="535.526782" y="282.602831" style="fill: #2ca02c; stroke: #2ca02c"/>
     <use xlink:href="#m8bf8b86c57" x="548.319511" y="272.400989" style="fill: #2ca02c; stroke: #2ca02c"/>
     <use xlink:href="#m8bf8b86c57" x="570.456744" y="242.532915" style="fill: #2ca02c; stroke: #2ca02c"/>
     <use xlink:href="#m8bf8b86c57" x="589.173508" y="226.15524" style="fill: #2ca02c; stroke: #2ca02c"/>
     <use xlink:href="#m8bf8b86c57" x="605.386706" y="198.843392" style="fill: #2ca02c; stroke: #2ca02c"/>
     <use xlink:href="#m8bf8b86c57" x="659.574272" y="153.954157" style="fill: #2ca02c; stroke: #2ca02c"/>
     <use xlink:href="#m8bf8b86c57" x="743.735249" y="124.526496" style="fill: #2ca02c; stroke: #2ca02c"/>
     <use xlink:href="#m8bf8b86c57" x="827.896227" y="126.960605" style="fill: #2ca02c; stroke: #2ca02c"/>
     <use xlink:href="#m8bf8b86c57" x="912.057204" y="119.921366" style="fill: #2ca02c; stroke: #2ca02c"/>
     <use xlink:href="#m8bf8b86c57" x="996.218182" y="111.6" style="fill: #2ca02c; stroke: #2ca02c"/>
    </g>
   </g>
   <g id="line2d_62">
    <path d="M 184.581818 602.043082 
L 268.742796 567.084637 
L 317.973812 530.832055 
L 352.903773 496.940604 
L 379.997556 471.443231 
L 402.134789 447.776633 
L 420.851553 424.749746 
L 437.064751 406.055286 
L 451.365805 388.919554 
L 464.158534 374.207936 
L 486.295766 342.436395 
L 505.01253 323.44093 
L 521.225728 307.884333 
L 535.526782 280.803417 
L 548.319511 266.918087 
L 570.456744 243.644673 
L 589.173508 223.734651 
L 605.386706 218.083095 
L 659.574272 168.382231 
L 743.735249 119.85169 
L 827.896227 111.625323 
L 912.057204 116.492314 
L 996.218182 112.59986 
" clip-path="url(#p79df245589)" style="fill: none; stroke: #d62728; stroke-width: 1.5; stroke-linecap: square"/>
    <defs>
     <path id="m8713bb2989" d="M 0 3 
C 0.795609 3 1.55874 2.683901 2.12132 2.12132 
C 2.683901 1.55874 3 0.795609 3 0 
C 3 -0.795609 2.683901 -1.55874 2.12132 -2.12132 
C 1.55874 -2.683901 0.795609 -3 0 -3 
C -0.795609 -3 -1.55874 -2.683901 -2.12132 -2.12132 
C -2.683901 -1.55874 -3 -0.795609 -3 0 
C -3 0.795609 -2.683901 1.55874 -2.12132 2.12132 
C -1.55874 2.683901 -0.795609 3 0 3 
z
" style="stroke: #d62728"/>
    </defs>
    <g clip-path="url(#p79df245589)">
     <use xlink:href="#m8713bb2989" x="184.581818" y="602.043082" style="fill: #d62728; stroke: #d62728"/>
     <use xlink:href="#m8713bb2989" x="268.742796" y="567.084637" style="fill: #d62728; stroke: #d62728"/>
     <use xlink:href="#m8713bb2989" x="317.973812" y="530.832055" style="fill: #d62728; stroke: #d62728"/>
     <use xlink:href="#m8713bb2989" x="352.903773" y="496.940604" style="fill: #d62728; stroke: #d62728"/>
     <use xlink:href="#m8713bb2989" x="379.997556" y="471.443231" style="fill: #d62728; stroke: #d62728"/>
     <use xlink:href="#m8713bb2989" x="402.134789" y="447.776633" style="fill: #d62728; stroke: #d62728"/>
     <use xlink:href="#m8713bb2989" x="420.851553" y="424.749746" style="fill: #d62728; stroke: #d62728"/>
     <use xlink:href="#m8713bb2989" x="437.064751" y="406.055286" style="fill: #d62728; stroke: #d62728"/>
     <use xlink:href="#m8713bb2989" x="451.365805" y="388.919554" style="fill: #d62728; stroke: #d62728"/>
     <use xlink:href="#m8713bb2989" x="464.158534" y="374.207936" style="fill: #d62728; stroke: #d62728"/>
     <use xlink:href="#m8713bb2989" x="486.295766" y="342.436395" style="fill: #d62728; stroke: #d62728"/>
     <use xlink:href="#m8713bb2989" x="505.01253" y="323.44093" style="fill: #d62728; stroke: #d62728"/>
     <use xlink:href="#m8713bb2989" x="521.225728" y="307.884333" style="fill: #d62728; stroke: #d62728"/>
     <use xlink:href="#m8713bb2989" x="535.526782" y="280.803417" style="fill: #d62728; stroke: #d62728"/>
     <use xlink:href="#m8713bb2989" x="548.319511" y="266.918087" style="fill: #d62728; stroke: #d62728"/>
     <use xlink:href="#m8713bb2989" x="570.456744" y="243.644673" style="fill: #d62728; stroke: #d62728"/>
     <use xlink:href="#m8713bb2989" x="589.173508" y="223.734651" style="fill: #d62728; stroke: #d62728"/>
     <use xlink:href="#m8713bb2989" x="605.386706" y="218.083095" style="fill: #d62728; stroke: #d62728"/>
     <use xlink:href="#m8713bb2989" x="659.574272" y="168.382231" style="fill: #d62728; stroke: #d62728"/>
     <use xlink:href="#m8713bb2989" x="743.735249" y="119.85169" style="fill: #d62728; stroke: #d62728"/>
     <use xlink:href="#m8713bb2989" x="827.896227" y="111.625323" style="fill: #d62728; stroke: #d62728"/>
     <use xlink:href="#m8713bb2989" x="912.057204" y="116.492314" style="fill: #d62728; stroke: #d62728"/>
     <use xlink:href="#m8713bb2989" x="996.218182" y="112.59986" style="fill: #d62728; stroke: #d62728"/>
    </g>
   </g>
   <g id="line2d_63">
    <path d="M 184.581818 601.521286 
L 268.742796 566.765177 
L 317.973812 543.38978 
L 352.903773 526.939012 
L 379.997556 507.050921 
L 402.134789 484.45938 
L 420.851553 472.054759 
L 437.064751 404.993728 
L 451.365805 390.167997 
L 464.158534 375.256126 
L 486.295766 393.991912 
L 505.01253 367.891578 
L 521.225728 360.74927 
L 535.526782 348.290751 
L 548.319511 345.682357 
L 570.456744 345.028699 
L 589.173508 343.197611 
L 605.386706 341.103739 
L 659.574272 337.92265 
L 743.735249 334.708792 
L 827.896227 332.876049 
L 912.057204 333.64624 
L 996.218182 337.303414 
" clip-path="url(#p79df245589)" style="fill: none; stroke: #9467bd; stroke-width: 1.5; stroke-linecap: square"/>
    <defs>
     <path id="m34bfae46c4" d="M 0 3 
C 0.795609 3 1.55874 2.683901 2.12132 2.12132 
C 2.683901 1.55874 3 0.795609 3 0 
C 3 -0.795609 2.683901 -1.55874 2.12132 -2.12132 
C 1.55874 -2.683901 0.795609 -3 0 -3 
C -0.795609 -3 -1.55874 -2.683901 -2.12132 -2.12132 
C -2.683901 -1.55874 -3 -0.795609 -3 0 
C -3 0.795609 -2.683901 1.55874 -2.12132 2.12132 
C -1.55874 2.683901 -0.795609 3 0 3 
z
" style="stroke: #9467bd"/>
    </defs>
    <g clip-path="url(#p79df245589)">
     <use xlink:href="#m34bfae46c4" x="184.581818" y="601.521286" style="fill: #9467bd; stroke: #9467bd"/>
     <use xlink:href="#m34bfae46c4" x="268.742796" y="566.765177" style="fill: #9467bd; stroke: #9467bd"/>
     <use xlink:href="#m34bfae46c4" x="317.973812" y="543.38978" style="fill: #9467bd; stroke: #9467bd"/>
     <use xlink:href="#m34bfae46c4" x="352.903773" y="526.939012" style="fill: #9467bd; stroke: #9467bd"/>
     <use xlink:href="#m34bfae46c4" x="379.997556" y="507.050921" style="fill: #9467bd; stroke: #9467bd"/>
     <use xlink:href="#m34bfae46c4" x="402.134789" y="484.45938" style="fill: #9467bd; stroke: #9467bd"/>
     <use xlink:href="#m34bfae46c4" x="420.851553" y="472.054759" style="fill: #9467bd; stroke: #9467bd"/>
     <use xlink:href="#m34bfae46c4" x="437.064751" y="404.993728" style="fill: #9467bd; stroke: #9467bd"/>
     <use xlink:href="#m34bfae46c4" x="451.365805" y="390.167997" style="fill: #9467bd; stroke: #9467bd"/>
     <use xlink:href="#m34bfae46c4" x="464.158534" y="375.256126" style="fill: #9467bd; stroke: #9467bd"/>
     <use xlink:href="#m34bfae46c4" x="486.295766" y="393.991912" style="fill: #9467bd; stroke: #9467bd"/>
     <use xlink:href="#m34bfae46c4" x="505.01253" y="367.891578" style="fill: #9467bd; stroke: #9467bd"/>
     <use xlink:href="#m34bfae46c4" x="521.225728" y="360.74927" style="fill: #9467bd; stroke: #9467bd"/>
     <use xlink:href="#m34bfae46c4" x="535.526782" y="348.290751" style="fill: #9467bd; stroke: #9467bd"/>
     <use xlink:href="#m34bfae46c4" x="548.319511" y="345.682357" style="fill: #9467bd; stroke: #9467bd"/>
     <use xlink:href="#m34bfae46c4" x="570.456744" y="345.028699" style="fill: #9467bd; stroke: #9467bd"/>
     <use xlink:href="#m34bfae46c4" x="589.173508" y="343.197611" style="fill: #9467bd; stroke: #9467bd"/>
     <use xlink:href="#m34bfae46c4" x="605.386706" y="341.103739" style="fill: #9467bd; stroke: #9467bd"/>
     <use xlink:href="#m34bfae46c4" x="659.574272" y="337.92265" style="fill: #9467bd; stroke: #9467bd"/>
     <use xlink:href="#m34bfae46c4" x="743.735249" y="334.708792" style="fill: #9467bd; stroke: #9467bd"/>
     <use xlink:href="#m34bfae46c4" x="827.896227" y="332.876049" style="fill: #9467bd; stroke: #9467bd"/>
     <use xlink:href="#m34bfae46c4" x="912.057204" y="333.64624" style="fill: #9467bd; stroke: #9467bd"/>
     <use xlink:href="#m34bfae46c4" x="996.218182" y="337.303414" style="fill: #9467bd; stroke: #9467bd"/>
    </g>
   </g>
   <g id="line2d_64">
    <path d="M 184.581818 601.986032 
L 268.742796 555.796433 
L 317.973812 515.761517 
L 352.903773 476.697907 
L 379.997556 453.536193 
L 402.134789 423.665323 
L 420.851553 403.454431 
L 437.064751 383.889651 
L 451.365805 364.739817 
L 464.158534 350.213553 
L 486.295766 328.154787 
L 505.01253 308.711617 
L 521.225728 291.18665 
L 535.526782 273.692325 
L 548.319511 259.950912 
L 570.456744 238.440306 
L 589.173508 221.644395 
L 605.386706 237.665959 
L 659.574272 192.39165 
L 743.735249 175.44433 
L 827.896227 236.790387 
L 912.057204 169.044451 
L 996.218182 123.884242 
" clip-path="url(#p79df245589)" style="fill: none; stroke: #8c564b; stroke-width: 1.5; stroke-linecap: square"/>
    <defs>
     <path id="m7e81033f3c" d="M 0 3 
C 0.795609 3 1.55874 2.683901 2.12132 2.12132 
C 2.683901 1.55874 3 0.795609 3 0 
C 3 -0.795609 2.683901 -1.55874 2.12132 -2.12132 
C 1.55874 -2.683901 0.795609 -3 0 -3 
C -0.795609 -3 -1.55874 -2.683901 -2.12132 -2.12132 
C -2.683901 -1.55874 -3 -0.795609 -3 0 
C -3 0.795609 -2.683901 1.55874 -2.12132 2.12132 
C -1.55874 2.683901 -0.795609 3 0 3 
z
" style="stroke: #8c564b"/>
    </defs>
    <g clip-path="url(#p79df245589)">
     <use xlink:href="#m7e81033f3c" x="184.581818" y="601.986032" style="fill: #8c564b; stroke: #8c564b"/>
     <use xlink:href="#m7e81033f3c" x="268.742796" y="555.796433" style="fill: #8c564b; stroke: #8c564b"/>
     <use xlink:href="#m7e81033f3c" x="317.973812" y="515.761517" style="fill: #8c564b; stroke: #8c564b"/>
     <use xlink:href="#m7e81033f3c" x="352.903773" y="476.697907" style="fill: #8c564b; stroke: #8c564b"/>
     <use xlink:href="#m7e81033f3c" x="379.997556" y="453.536193" style="fill: #8c564b; stroke: #8c564b"/>
     <use xlink:href="#m7e81033f3c" x="402.134789" y="423.665323" style="fill: #8c564b; stroke: #8c564b"/>
     <use xlink:href="#m7e81033f3c" x="420.851553" y="403.454431" style="fill: #8c564b; stroke: #8c564b"/>
     <use xlink:href="#m7e81033f3c" x="437.064751" y="383.889651" style="fill: #8c564b; stroke: #8c564b"/>
     <use xlink:href="#m7e81033f3c" x="451.365805" y="364.739817" style="fill: #8c564b; stroke: #8c564b"/>
     <use xlink:href="#m7e81033f3c" x="464.158534" y="350.213553" style="fill: #8c564b; stroke: #8c564b"/>
     <use xlink:href="#m7e81033f3c" x="486.295766" y="328.154787" style="fill: #8c564b; stroke: #8c564b"/>
     <use xlink:href="#m7e81033f3c" x="505.01253" y="308.711617" style="fill: #8c564b; stroke: #8c564b"/>
     <use xlink:href="#m7e81033f3c" x="521.225728" y="291.18665" style="fill: #8c564b; stroke: #8c564b"/>
     <use xlink:href="#m7e81033f3c" x="535.526782" y="273.692325" style="fill: #8c564b; stroke: #8c564b"/>
     <use xlink:href="#m7e81033f3c" x="548.319511" y="259.950912" style="fill: #8c564b; stroke: #8c564b"/>
     <use xlink:href="#m7e81033f3c" x="570.456744" y="238.440306" style="fill: #8c564b; stroke: #8c564b"/>
     <use xlink:href="#m7e81033f3c" x="589.173508" y="221.644395" style="fill: #8c564b; stroke: #8c564b"/>
     <use xlink:href="#m7e81033f3c" x="605.386706" y="237.665959" style="fill: #8c564b; stroke: #8c564b"/>
     <use xlink:href="#m7e81033f3c" x="659.574272" y="192.39165" style="fill: #8c564b; stroke: #8c564b"/>
     <use xlink:href="#m7e81033f3c" x="743.735249" y="175.44433" style="fill: #8c564b; stroke: #8c564b"/>
     <use xlink:href="#m7e81033f3c" x="827.896227" y="236.790387" style="fill: #8c564b; stroke: #8c564b"/>
     <use xlink:href="#m7e81033f3c" x="912.057204" y="169.044451" style="fill: #8c564b; stroke: #8c564b"/>
     <use xlink:href="#m7e81033f3c" x="996.218182" y="123.884242" style="fill: #8c564b; stroke: #8c564b"/>
    </g>
   </g>
   <g id="line2d_65">
    <path d="M 184.581818 608.149508 
L 268.742796 567.298978 
L 317.973812 527.850377 
L 352.903773 491.970456 
L 379.997556 479.903981 
L 402.134789 458.707094 
L 420.851553 435.576888 
L 437.064751 422.882918 
L 451.365805 367.722258 
L 464.158534 352.598457 
L 486.295766 323.453615 
L 505.01253 306.41246 
L 521.225728 286.190876 
L 535.526782 289.645047 
L 548.319511 272.091361 
L 570.456744 245.407259 
L 589.173508 232.452867 
L 605.386706 211.1111 
L 659.574272 170.129254 
L 743.735249 122.842768 
L 827.896227 118.363232 
L 912.057204 112.743786 
L 996.218182 114.169341 
" clip-path="url(#p79df245589)" style="fill: none; stroke: #e377c2; stroke-width: 1.5; stroke-linecap: square"/>
    <defs>
     <path id="m6c633ceb9e" d="M 0 3 
C 0.795609 3 1.55874 2.683901 2.12132 2.12132 
C 2.683901 1.55874 3 0.795609 3 0 
C 3 -0.795609 2.683901 -1.55874 2.12132 -2.12132 
C 1.55874 -2.683901 0.795609 -3 0 -3 
C -0.795609 -3 -1.55874 -2.683901 -2.12132 -2.12132 
C -2.683901 -1.55874 -3 -0.795609 -3 0 
C -3 0.795609 -2.683901 1.55874 -2.12132 2.12132 
C -1.55874 2.683901 -0.795609 3 0 3 
z
" style="stroke: #e377c2"/>
    </defs>
    <g clip-path="url(#p79df245589)">
     <use xlink:href="#m6c633ceb9e" x="184.581818" y="608.149508" style="fill: #e377c2; stroke: #e377c2"/>
     <use xlink:href="#m6c633ceb9e" x="268.742796" y="567.298978" style="fill: #e377c2; stroke: #e377c2"/>
     <use xlink:href="#m6c633ceb9e" x="317.973812" y="527.850377" style="fill: #e377c2; stroke: #e377c2"/>
     <use xlink:href="#m6c633ceb9e" x="352.903773" y="491.970456" style="fill: #e377c2; stroke: #e377c2"/>
     <use xlink:href="#m6c633ceb9e" x="379.997556" y="479.903981" style="fill: #e377c2; stroke: #e377c2"/>
     <use xlink:href="#m6c633ceb9e" x="402.134789" y="458.707094" style="fill: #e377c2; stroke: #e377c2"/>
     <use xlink:href="#m6c633ceb9e" x="420.851553" y="435.576888" style="fill: #e377c2; stroke: #e377c2"/>
     <use xlink:href="#m6c633ceb9e" x="437.064751" y="422.882918" style="fill: #e377c2; stroke: #e377c2"/>
     <use xlink:href="#m6c633ceb9e" x="451.365805" y="367.722258" style="fill: #e377c2; stroke: #e377c2"/>
     <use xlink:href="#m6c633ceb9e" x="464.158534" y="352.598457" style="fill: #e377c2; stroke: #e377c2"/>
     <use xlink:href="#m6c633ceb9e" x="486.295766" y="323.453615" style="fill: #e377c2; stroke: #e377c2"/>
     <use xlink:href="#m6c633ceb9e" x="505.01253" y="306.41246" style="fill: #e377c2; stroke: #e377c2"/>
     <use xlink:href="#m6c633ceb9e" x="521.225728" y="286.190876" style="fill: #e377c2; stroke: #e377c2"/>
     <use xlink:href="#m6c633ceb9e" x="535.526782" y="289.645047" style="fill: #e377c2; stroke: #e377c2"/>
     <use xlink:href="#m6c633ceb9e" x="548.319511" y="272.091361" style="fill: #e377c2; stroke: #e377c2"/>
     <use xlink:href="#m6c633ceb9e" x="570.456744" y="245.407259" style="fill: #e377c2; stroke: #e377c2"/>
     <use xlink:href="#m6c633ceb9e" x="589.173508" y="232.452867" style="fill: #e377c2; stroke: #e377c2"/>
     <use xlink:href="#m6c633ceb9e" x="605.386706" y="211.1111" style="fill: #e377c2; stroke: #e377c2"/>
     <use xlink:href="#m6c633ceb9e" x="659.574272" y="170.129254" style="fill: #e377c2; stroke: #e377c2"/>
     <use xlink:href="#m6c633ceb9e" x="743.735249" y="122.842768" style="fill: #e377c2; stroke: #e377c2"/>
     <use xlink:href="#m6c633ceb9e" x="827.896227" y="118.363232" style="fill: #e377c2; stroke: #e377c2"/>
     <use xlink:href="#m6c633ceb9e" x="912.057204" y="112.743786" style="fill: #e377c2; stroke: #e377c2"/>
     <use xlink:href="#m6c633ceb9e" x="996.218182" y="114.169341" style="fill: #e377c2; stroke: #e377c2"/>
    </g>
   </g>
   <g id="line2d_66">
    <path d="M 184.581818 609.533182 
L 268.742796 569.249031 
L 317.973812 530.318841 
L 352.903773 505.451065 
L 379.997556 472.103702 
L 402.134789 447.530317 
L 420.851553 430.901375 
L 437.064751 404.861183 
L 451.365805 384.711324 
L 464.158534 370.132706 
L 486.295766 346.878014 
L 505.01253 316.574518 
L 521.225728 302.092449 
L 535.526782 284.658002 
L 548.319511 267.036589 
L 570.456744 249.430613 
L 589.173508 226.226795 
L 605.386706 201.833996 
L 659.574272 167.718283 
L 743.735249 124.536073 
L 827.896227 119.416219 
L 912.057204 117.911137 
L 996.218182 116.568844 
" clip-path="url(#p79df245589)" style="fill: none; stroke: #7f7f7f; stroke-width: 1.5; stroke-linecap: square"/>
    <defs>
     <path id="m2169ca9f40" d="M 0 3 
C 0.795609 3 1.55874 2.683901 2.12132 2.12132 
C 2.683901 1.55874 3 0.795609 3 0 
C 3 -0.795609 2.683901 -1.55874 2.12132 -2.12132 
C 1.55874 -2.683901 0.795609 -3 0 -3 
C -0.795609 -3 -1.55874 -2.683901 -2.12132 -2.12132 
C -2.683901 -1.55874 -3 -0.795609 -3 0 
C -3 0.795609 -2.683901 1.55874 -2.12132 2.12132 
C -1.55874 2.683901 -0.795609 3 0 3 
z
" style="stroke: #7f7f7f"/>
    </defs>
    <g clip-path="url(#p79df245589)">
     <use xlink:href="#m2169ca9f40" x="184.581818" y="609.533182" style="fill: #7f7f7f; stroke: #7f7f7f"/>
     <use xlink:href="#m2169ca9f40" x="268.742796" y="569.249031" style="fill: #7f7f7f; stroke: #7f7f7f"/>
     <use xlink:href="#m2169ca9f40" x="317.973812" y="530.318841" style="fill: #7f7f7f; stroke: #7f7f7f"/>
     <use xlink:href="#m2169ca9f40" x="352.903773" y="505.451065" style="fill: #7f7f7f; stroke: #7f7f7f"/>
     <use xlink:href="#m2169ca9f40" x="379.997556" y="472.103702" style="fill: #7f7f7f; stroke: #7f7f7f"/>
     <use xlink:href="#m2169ca9f40" x="402.134789" y="447.530317" style="fill: #7f7f7f; stroke: #7f7f7f"/>
     <use xlink:href="#m2169ca9f40" x="420.851553" y="430.901375" style="fill: #7f7f7f; stroke: #7f7f7f"/>
     <use xlink:href="#m2169ca9f40" x="437.064751" y="404.861183" style="fill: #7f7f7f; stroke: #7f7f7f"/>
     <use xlink:href="#m2169ca9f40" x="451.365805" y="384.711324" style="fill: #7f7f7f; stroke: #7f7f7f"/>
     <use xlink:href="#m2169ca9f40" x="464.158534" y="370.132706" style="fill: #7f7f7f; stroke: #7f7f7f"/>
     <use xlink:href="#m2169ca9f40" x="486.295766" y="346.878014" style="fill: #7f7f7f; stroke: #7f7f7f"/>
     <use xlink:href="#m2169ca9f40" x="505.01253" y="316.574518" style="fill: #7f7f7f; stroke: #7f7f7f"/>
     <use xlink:href="#m2169ca9f40" x="521.225728" y="302.092449" style="fill: #7f7f7f; stroke: #7f7f7f"/>
     <use xlink:href="#m2169ca9f40" x="535.526782" y="284.658002" style="fill: #7f7f7f; stroke: #7f7f7f"/>
     <use xlink:href="#m2169ca9f40" x="548.319511" y="267.036589" style="fill: #7f7f7f; stroke: #7f7f7f"/>
     <use xlink:href="#m2169ca9f40" x="570.456744" y="249.430613" style="fill: #7f7f7f; stroke: #7f7f7f"/>
     <use xlink:href="#m2169ca9f40" x="589.173508" y="226.226795" style="fill: #7f7f7f; stroke: #7f7f7f"/>
     <use xlink:href="#m2169ca9f40" x="605.386706" y="201.833996" style="fill: #7f7f7f; stroke: #7f7f7f"/>
     <use xlink:href="#m2169ca9f40" x="659.574272" y="167.718283" style="fill: #7f7f7f; stroke: #7f7f7f"/>
     <use xlink:href="#m2169ca9f40" x="743.735249" y="124.536073" style="fill: #7f7f7f; stroke: #7f7f7f"/>
     <use xlink:href="#m2169ca9f40" x="827.896227" y="119.416219" style="fill: #7f7f7f; stroke: #7f7f7f"/>
     <use xlink:href="#m2169ca9f40" x="912.057204" y="117.911137" style="fill: #7f7f7f; stroke: #7f7f7f"/>
     <use xlink:href="#m2169ca9f40" x="996.218182" y="116.568844" style="fill: #7f7f7f; stroke: #7f7f7f"/>
    </g>
   </g>
   <g id="patch_3">
    <path d="M 144 640.8 
L 144 86.4 
" style="fill: none; stroke: #000000; stroke-width: 0.8; stroke-linejoin: miter; stroke-linecap: square"/>
   </g>
   <g id="patch_4">
    <path d="M 1036.8 640.8 
L 1036.8 86.4 
" style="fill: none; stroke: #000000; stroke-width: 0.8; stroke-linejoin: miter; stroke-linecap: square"/>
   </g>
   <g id="patch_5">
    <path d="M 144 640.8 
L 1036.8 640.8 
" style="fill: none; stroke: #000000; stroke-width: 0.8; stroke-linejoin: miter; stroke-linecap: square"/>
   </g>
   <g id="patch_6">
    <path d="M 144 86.4 
L 1036.8 86.4 
" style="fill: none; stroke: #000000; stroke-width: 0.8; stroke-linejoin: miter; stroke-linecap: square"/>
   </g>
   <g id="text_33">
    <!-- memset speed -->
    <g transform="translate(545.815313 80.4) scale(0.12 -0.12)">
     <defs>
      <path id="DejaVuSans-6d" d="M 3328 2828 
Q 3544 3216 3844 3400 
Q 4144 3584 4550 3584 
Q 5097 3584 5394 3201 
Q 5691 2819 5691 2113 
L 5691 0 
L 5113 0 
L 5113 2094 
Q 5113 2597 4934 2840 
Q 4756 3084 4391 3084 
Q 3944 3084 3684 2787 
Q 3425 2491 3425 1978 
L 3425 0 
L 2847 0 
L 2847 2094 
Q 2847 2600 2669 2842 
Q 2491 3084 2119 3084 
Q 1678 3084 1418 2786 
Q 1159 2488 1159 1978 
L 1159 0 
L 581 0 
L 581 3500 
L 1159 3500 
L 1159 2956 
Q 1356 3278 1631 3431 
Q 1906 3584 2284 3584 
Q 2666 3584 2933 3390 
Q 3200 3197 3328 2828 
z
" transform="scale(0.015625)"/>
      <path id="DejaVuSans-73" d="M 2834 3397 
L 2834 2853 
Q 2591 2978 2328 3040 
Q 2066 3103 1784 3103 
Q 1356 3103 1142 2972 
Q 928 2841 928 2578 
Q 928 2378 1081 2264 
Q 1234 2150 1697 2047 
L 1894 2003 
Q 2506 1872 2764 1633 
Q 3022 1394 3022 966 
Q 3022 478 2636 193 
Q 2250 -91 1575 -91 
Q 1294 -91 989 -36 
Q 684 19 347 128 
L 347 722 
Q 666 556 975 473 
Q 1284 391 1588 391 
Q 1994 391 2212 530 
Q 2431 669 2431 922 
Q 2431 1156 2273 1281 
Q 2116 1406 1581 1522 
L 1381 1569 
Q 847 1681 609 1914 
Q 372 2147 372 2553 
Q 372 3047 722 3315 
Q 1072 3584 1716 3584 
Q 2034 3584 2315 3537 
Q 2597 3491 2834 3397 
z
" transform="scale(0.015625)"/>
      <path id="DejaVuSans-70" d="M 1159 525 
L 1159 -1331 
L 581 -1331 
L 581 3500 
L 1159 3500 
L 1159 2969 
Q 1341 3281 1617 3432 
Q 1894 3584 2278 3584 
Q 2916 3584 3314 3078 
Q 3713 2572 3713 1747 
Q 3713 922 3314 415 
Q 2916 -91 2278 -91 
Q 1894 -91 1617 61 
Q 1341 213 1159 525 
z
M 3116 1747 
Q 3116 2381 2855 2742 
Q 2594 3103 2138 3103 
Q 1681 3103 1420 2742 
Q 1159 2381 1159 1747 
Q 1159 1113 1420 752 
Q 1681 391 2138 391 
Q 2594 391 2855 752 
Q 3116 1113 3116 1747 
z
" transform="scale(0.015625)"/>
     </defs>
     <use xlink:href="#DejaVuSans-6d"/>
     <use xlink:href="#DejaVuSans-65" transform="translate(97.412109 0)"/>
     <use xlink:href="#DejaVuSans-6d" transform="translate(158.935547 0)"/>
     <use xlink:href="#DejaVuSans-73" transform="translate(256.347656 0)"/>
     <use xlink:href="#DejaVuSans-65" transform="translate(308.447266 0)"/>
     <use xlink:href="#DejaVuSans-74" transform="translate(369.970703 0)"/>
     <use xlink:href="#DejaVuSans-20" transform="translate(409.179688 0)"/>
     <use xlink:href="#DejaVuSans-73" transform="translate(440.966797 0)"/>
     <use xlink:href="#DejaVuSans-70" transform="translate(493.066406 0)"/>
     <use xlink:href="#DejaVuSans-65" transform="translate(556.542969 0)"/>
     <use xlink:href="#DejaVuSans-65" transform="translate(618.066406 0)"/>
     <use xlink:href="#DejaVuSans-64" transform="translate(679.589844 0)"/>
    </g>
   </g>
   <g id="legend_1">
    <g id="patch_7">
     <path d="M 151 227.615625 
L 253.710938 227.615625 
Q 255.710938 227.615625 255.710938 225.615625 
L 255.710938 93.4 
Q 255.710938 91.4 253.710938 91.4 
L 151 91.4 
Q 149 91.4 149 93.4 
L 149 225.615625 
Q 149 227.615625 151 227.615625 
z
" style="fill: #ffffff; opacity: 0.8; stroke: #cccccc; stroke-linejoin: miter"/>
    </g>
    <g id="text_34">
     <!-- parameter_memset -->
     <g transform="translate(153 102.998437) scale(0.1 -0.1)">
      <defs>
       <path id="DejaVuSans-61" d="M 2194 1759 
Q 1497 1759 1228 1600 
Q 959 1441 959 1056 
Q 959 750 1161 570 
Q 1363 391 1709 391 
Q 2188 391 2477 730 
Q 2766 1069 2766 1631 
L 2766 1759 
L 2194 1759 
z
M 3341 1997 
L 3341 0 
L 2766 0 
L 2766 531 
Q 2569 213 2275 61 
Q 1981 -91 1556 -91 
Q 1019 -91 701 211 
Q 384 513 384 1019 
Q 384 1609 779 1909 
Q 1175 2209 1959 2209 
L 2766 2209 
L 2766 2266 
Q 2766 2663 2505 2880 
Q 2244 3097 1772 3097 
Q 1472 3097 1187 3025 
Q 903 2953 641 2809 
L 641 3341 
Q 956 3463 1253 3523 
Q 1550 3584 1831 3584 
Q 2591 3584 2966 3190 
Q 3341 2797 3341 1997 
z
" transform="scale(0.015625)"/>
       <path id="DejaVuSans-5f" d="M 3263 -1063 
L 3263 -1509 
L -63 -1509 
L -63 -1063 
L 3263 -1063 
z
" transform="scale(0.015625)"/>
      </defs>
      <use xlink:href="#DejaVuSans-70"/>
      <use xlink:href="#DejaVuSans-61" transform="translate(63.476562 0)"/>
      <use xlink:href="#DejaVuSans-72" transform="translate(124.755859 0)"/>
      <use xlink:href="#DejaVuSans-61" transform="translate(165.869141 0)"/>
      <use xlink:href="#DejaVuSans-6d" transform="translate(227.148438 0)"/>
      <use xlink:href="#DejaVuSans-65" transform="translate(324.560547 0)"/>
      <use xlink:href="#DejaVuSans-74" transform="translate(386.083984 0)"/>
      <use xlink:href="#DejaVuSans-65" transform="translate(425.292969 0)"/>
      <use xlink:href="#DejaVuSans-72" transform="translate(486.816406 0)"/>
      <use xlink:href="#DejaVuSans-5f" transform="translate(527.929688 0)"/>
      <use xlink:href="#DejaVuSans-6d" transform="translate(577.929688 0)"/>
      <use xlink:href="#DejaVuSans-65" transform="translate(675.341797 0)"/>
      <use xlink:href="#DejaVuSans-6d" transform="translate(736.865234 0)"/>
      <use xlink:href="#DejaVuSans-73" transform="translate(834.277344 0)"/>
      <use xlink:href="#DejaVuSans-65" transform="translate(886.376953 0)"/>
      <use xlink:href="#DejaVuSans-74" transform="translate(947.900391 0)"/>
     </g>
    </g>
    <g id="line2d_67">
     <path d="M 155.453125 114.454687 
L 165.453125 114.454687 
L 175.453125 114.454687 
" style="fill: none; stroke: #1f77b4; stroke-width: 1.5; stroke-linecap: square"/>
     <g>
      <use xlink:href="#me12423ffb1" x="165.453125" y="114.454687" style="fill: #1f77b4; stroke: #1f77b4"/>
     </g>
    </g>
    <g id="text_35">
     <!-- basic -->
     <g transform="translate(183.453125 117.954687) scale(0.1 -0.1)">
      <defs>
       <path id="DejaVuSans-62" d="M 3116 1747 
Q 3116 2381 2855 2742 
Q 2594 3103 2138 3103 
Q 1681 3103 1420 2742 
Q 1159 2381 1159 1747 
Q 1159 1113 1420 752 
Q 1681 391 2138 391 
Q 2594 391 2855 752 
Q 3116 1113 3116 1747 
z
M 1159 2969 
Q 1341 3281 1617 3432 
Q 1894 3584 2278 3584 
Q 2916 3584 3314 3078 
Q 3713 2572 3713 1747 
Q 3713 922 3314 415 
Q 2916 -91 2278 -91 
Q 1894 -91 1617 61 
Q 1341 213 1159 525 
L 1159 0 
L 581 0 
L 581 4863 
L 1159 4863 
L 1159 2969 
z
" transform="scale(0.015625)"/>
      </defs>
      <use xlink:href="#DejaVuSans-62"/>
      <use xlink:href="#DejaVuSans-61" transform="translate(63.476562 0)"/>
      <use xlink:href="#DejaVuSans-73" transform="translate(124.755859 0)"/>
      <use xlink:href="#DejaVuSans-69" transform="translate(176.855469 0)"/>
      <use xlink:href="#DejaVuSans-63" transform="translate(204.638672 0)"/>
     </g>
    </g>
    <g id="line2d_68">
     <path d="M 155.453125 129.132812 
L 165.453125 129.132812 
L 175.453125 129.132812 
" style="fill: none; stroke: #ff7f0e; stroke-width: 1.5; stroke-linecap: square"/>
     <g>
      <use xlink:href="#m3a6a46f35c" x="165.453125" y="129.132812" style="fill: #ff7f0e; stroke: #ff7f0e"/>
     </g>
    </g>
    <g id="text_36">
     <!-- builtin -->
     <g transform="translate(183.453125 132.632812) scale(0.1 -0.1)">
      <defs>
       <path id="DejaVuSans-75" d="M 544 1381 
L 544 3500 
L 1119 3500 
L 1119 1403 
Q 1119 906 1312 657 
Q 1506 409 1894 409 
Q 2359 409 2629 706 
Q 2900 1003 2900 1516 
L 2900 3500 
L 3475 3500 
L 3475 0 
L 2900 0 
L 2900 538 
Q 2691 219 2414 64 
Q 2138 -91 1772 -91 
Q 1169 -91 856 284 
Q 544 659 544 1381 
z
M 1991 3584 
L 1991 3584 
z
" transform="scale(0.015625)"/>
       <path id="DejaVuSans-6c" d="M 603 4863 
L 1178 4863 
L 1178 0 
L 603 0 
L 603 4863 
z
" transform="scale(0.015625)"/>
      </defs>
      <use xlink:href="#DejaVuSans-62"/>
      <use xlink:href="#DejaVuSans-75" transform="translate(63.476562 0)"/>
      <use xlink:href="#DejaVuSans-69" transform="translate(126.855469 0)"/>
      <use xlink:href="#DejaVuSans-6c" transform="translate(154.638672 0)"/>
      <use xlink:href="#DejaVuSans-74" transform="translate(182.421875 0)"/>
      <use xlink:href="#DejaVuSans-69" transform="translate(221.630859 0)"/>
      <use xlink:href="#DejaVuSans-6e" transform="translate(249.414062 0)"/>
     </g>
    </g>
    <g id="line2d_69">
     <path d="M 155.453125 143.810937 
L 165.453125 143.810937 
L 175.453125 143.810937 
" style="fill: none; stroke: #2ca02c; stroke-width: 1.5; stroke-linecap: square"/>
     <g>
      <use xlink:href="#m8bf8b86c57" x="165.453125" y="143.810937" style="fill: #2ca02c; stroke: #2ca02c"/>
     </g>
    </g>
    <g id="text_37">
     <!-- glibc_avx2 -->
     <g transform="translate(183.453125 147.310937) scale(0.1 -0.1)">
      <defs>
       <path id="DejaVuSans-76" d="M 191 3500 
L 800 3500 
L 1894 563 
L 2988 3500 
L 3597 3500 
L 2284 0 
L 1503 0 
L 191 3500 
z
" transform="scale(0.015625)"/>
       <path id="DejaVuSans-78" d="M 3513 3500 
L 2247 1797 
L 3578 0 
L 2900 0 
L 1881 1375 
L 863 0 
L 184 0 
L 1544 1831 
L 300 3500 
L 978 3500 
L 1906 2253 
L 2834 3500 
L 3513 3500 
z
" transform="scale(0.015625)"/>
      </defs>
      <use xlink:href="#DejaVuSans-67"/>
      <use xlink:href="#DejaVuSans-6c" transform="translate(63.476562 0)"/>
      <use xlink:href="#DejaVuSans-69" transform="translate(91.259766 0)"/>
      <use xlink:href="#DejaVuSans-62" transform="translate(119.042969 0)"/>
      <use xlink:href="#DejaVuSans-63" transform="translate(182.519531 0)"/>
      <use xlink:href="#DejaVuSans-5f" transform="translate(237.5 0)"/>
      <use xlink:href="#DejaVuSans-61" transform="translate(287.5 0)"/>
      <use xlink:href="#DejaVuSans-76" transform="translate(348.779297 0)"/>
      <use xlink:href="#DejaVuSans-78" transform="translate(407.958984 0)"/>
      <use xlink:href="#DejaVuSans-32" transform="translate(467.138672 0)"/>
     </g>
    </g>
    <g id="line2d_70">
     <path d="M 155.453125 158.767187 
L 165.453125 158.767187 
L 175.453125 158.767187 
" style="fill: none; stroke: #d62728; stroke-width: 1.5; stroke-linecap: square"/>
     <g>
      <use xlink:href="#m8713bb2989" x="165.453125" y="158.767187" style="fill: #d62728; stroke: #d62728"/>
     </g>
    </g>
    <g id="text_38">
     <!-- glibc_avx512 -->
     <g transform="translate(183.453125 162.267187) scale(0.1 -0.1)">
      <use xlink:href="#DejaVuSans-67"/>
      <use xlink:href="#DejaVuSans-6c" transform="translate(63.476562 0)"/>
      <use xlink:href="#DejaVuSans-69" transform="translate(91.259766 0)"/>
      <use xlink:href="#DejaVuSans-62" transform="translate(119.042969 0)"/>
      <use xlink:href="#DejaVuSans-63" transform="translate(182.519531 0)"/>
      <use xlink:href="#DejaVuSans-5f" transform="translate(237.5 0)"/>
      <use xlink:href="#DejaVuSans-61" transform="translate(287.5 0)"/>
      <use xlink:href="#DejaVuSans-76" transform="translate(348.779297 0)"/>
      <use xlink:href="#DejaVuSans-78" transform="translate(407.958984 0)"/>
      <use xlink:href="#DejaVuSans-35" transform="translate(467.138672 0)"/>
      <use xlink:href="#DejaVuSans-31" transform="translate(530.761719 0)"/>
      <use xlink:href="#DejaVuSans-32" transform="translate(594.384766 0)"/>
     </g>
    </g>
    <g id="line2d_71">
     <path d="M 155.453125 173.723437 
L 165.453125 173.723437 
L 175.453125 173.723437 
" style="fill: none; stroke: #9467bd; stroke-width: 1.5; stroke-linecap: square"/>
     <g>
      <use xlink:href="#m34bfae46c4" x="165.453125" y="173.723437" style="fill: #9467bd; stroke: #9467bd"/>
     </g>
    </g>
    <g id="text_39">
     <!-- libc -->
     <g transform="translate(183.453125 177.223437) scale(0.1 -0.1)">
      <use xlink:href="#DejaVuSans-6c"/>
      <use xlink:href="#DejaVuSans-69" transform="translate(27.783203 0)"/>
      <use xlink:href="#DejaVuSans-62" transform="translate(55.566406 0)"/>
      <use xlink:href="#DejaVuSans-63" transform="translate(119.042969 0)"/>
     </g>
    </g>
    <g id="line2d_72">
     <path d="M 155.453125 188.401562 
L 165.453125 188.401562 
L 175.453125 188.401562 
" style="fill: none; stroke: #8c564b; stroke-width: 1.5; stroke-linecap: square"/>
     <g>
      <use xlink:href="#m7e81033f3c" x="165.453125" y="188.401562" style="fill: #8c564b; stroke: #8c564b"/>
     </g>
    </g>
    <g id="text_40">
     <!-- musl_asm -->
     <g transform="translate(183.453125 191.901562) scale(0.1 -0.1)">
      <use xlink:href="#DejaVuSans-6d"/>
      <use xlink:href="#DejaVuSans-75" transform="translate(97.412109 0)"/>
      <use xlink:href="#DejaVuSans-73" transform="translate(160.791016 0)"/>
      <use xlink:href="#DejaVuSans-6c" transform="translate(212.890625 0)"/>
      <use xlink:href="#DejaVuSans-5f" transform="translate(240.673828 0)"/>
      <use xlink:href="#DejaVuSans-61" transform="translate(290.673828 0)"/>
      <use xlink:href="#DejaVuSans-73" transform="translate(351.953125 0)"/>
      <use xlink:href="#DejaVuSans-6d" transform="translate(404.052734 0)"/>
     </g>
    </g>
    <g id="line2d_73">
     <path d="M 155.453125 203.357812 
L 165.453125 203.357812 
L 175.453125 203.357812 
" style="fill: none; stroke: #e377c2; stroke-width: 1.5; stroke-linecap: square"/>
     <g>
      <use xlink:href="#m6c633ceb9e" x="165.453125" y="203.357812" style="fill: #e377c2; stroke: #e377c2"/>
     </g>
    </g>
    <g id="text_41">
     <!-- rpkak -->
     <g transform="translate(183.453125 206.857812) scale(0.1 -0.1)">
      <defs>
       <path id="DejaVuSans-6b" d="M 581 4863 
L 1159 4863 
L 1159 1991 
L 2875 3500 
L 3609 3500 
L 1753 1863 
L 3688 0 
L 2938 0 
L 1159 1709 
L 1159 0 
L 581 0 
L 581 4863 
z
" transform="scale(0.015625)"/>
      </defs>
      <use xlink:href="#DejaVuSans-72"/>
      <use xlink:href="#DejaVuSans-70" transform="translate(41.113281 0)"/>
      <use xlink:href="#DejaVuSans-6b" transform="translate(104.589844 0)"/>
      <use xlink:href="#DejaVuSans-61" transform="translate(160.75 0)"/>
      <use xlink:href="#DejaVuSans-6b" transform="translate(222.029297 0)"/>
     </g>
    </g>
    <g id="line2d_74">
     <path d="M 155.453125 218.035937 
L 165.453125 218.035937 
L 175.453125 218.035937 
" style="fill: none; stroke: #7f7f7f; stroke-width: 1.5; stroke-linecap: square"/>
     <g>
      <use xlink:href="#m2169ca9f40" x="165.453125" y="218.035937" style="fill: #7f7f7f; stroke: #7f7f7f"/>
     </g>
    </g>
    <g id="text_42">
     <!-- skk64 -->
     <g transform="translate(183.453125 221.535937) scale(0.1 -0.1)">
      <use xlink:href="#DejaVuSans-73"/>
      <use xlink:href="#DejaVuSans-6b" transform="translate(52.099609 0)"/>
      <use xlink:href="#DejaVuSans-6b" transform="translate(110.009766 0)"/>
      <use xlink:href="#DejaVuSans-36" transform="translate(167.919922 0)"/>
      <use xlink:href="#DejaVuSans-34" transform="translate(231.542969 0)"/>
     </g>
    </g>
   </g>
  </g>
 </g>
 <defs>
  <clipPath id="p79df245589">
   <rect x="144" y="86.4" width="892.8" height="554.4"/>
  </clipPath>
 </defs>
</svg>
