<?xml version="1.0" encoding="utf-8" standalone="no"?>
<!DOCTYPE svg PUBLIC "-//W3C//DTD SVG 1.1//EN"
  "http://www.w3.org/Graphics/SVG/1.1/DTD/svg11.dtd">
<svg xmlns:xlink="http://www.w3.org/1999/xlink" width="1152pt" height="720pt" viewBox="0 0 1152 720" xmlns="http://www.w3.org/2000/svg" version="1.1">
 <metadata>
  <rdf:RDF xmlns:dc="http://purl.org/dc/elements/1.1/" xmlns:cc="http://creativecommons.org/ns#" xmlns:rdf="http://www.w3.org/1999/02/22-rdf-syntax-ns#">
   <cc:Work>
    <dc:type rdf:resource="http://purl.org/dc/dcmitype/StillImage"/>
    <dc:date>2026-06-11T07:53:44.093410</dc:date>
    <dc:format>image/svg+xml</dc:format>
    <dc:creator>
     <cc:Agent>
      <dc:title>Matplotlib v3.10.7+dfsg1, https://matplotlib.org/</dc:title>
     </cc:Agent>
    </dc:creator>
   </cc:Work>
  </rdf:RDF>
 </metadata>
 <defs>
  <style type="text/css">*{stroke-linejoin: round; stroke-linecap: butt}</style>
 </defs>
 <g id="figure_1">
  <g id="patch_1">
   <path d="M 0 720 
L 1152 720 
L 1152 0 
L 0 0 
z
" style="fill: #ffffff"/>
  </g>
  <g id="axes_1">
   <g id="patch_2">
    <path d="M 144 640.8 
L 1036.8 640.8 
L 1036.8 86.4 
L 144 86.4 
z
" style="fill: #ffffff"/>
   </g>
   <g id="matplotlib.axis_1">
    <g id="xtick_1">
     <g id="line2d_1">
      <path d="M 184.581818 640.8 
L 184.581818 86.4 
" clip-path="url(#p3f1f6e70b5)" style="fill: none; stroke: #b0b0b0; stroke-width: 0.8; stroke-linecap: square"/>
     </g>
     <g id="line2d_2">
      <defs>
       <path id="me0d503e54f" d="M 0 0 
L 0 3.5 
" style="stroke: #000000; stroke-width: 0.8"/>
      </defs>
      <g>
       <use xlink:href="#me0d503e54f" x="184.581818" y="640.8" style="stroke: #000000; stroke-width: 0.8"/>
      </g>
     </g>
     <g id="text_1">
      <!-- 1 -->
      <g transform="translate(181.400568 655.398438) scale(0.1 -0.1)">
       <defs>
        <path id="DejaVuSans-31" d="M 794 531 
L 1825 531 
L 1825 4091 
L 703 3866 
L 703 4441 
L 1819 4666 
L 2450 4666 
L 2450 531 
L 3481 531 
L 3481 0 
L 794 0 
L 794 531 
z
" transform="scale(0.015625)"/>
       </defs>
       <use xlink:href="#DejaVuSans-31"/>
      </g>
     </g>
    </g>
    <g id="xtick_2">
     <g id="line2d_3">
      <path d="M 268.742796 640.8 
L 268.742796 86.4 
" clip-path="url(#p3f1f6e70b5)" style="fill: none; stroke: #b0b0b0; stroke-width: 0.8; stroke-linecap: square"/>
     </g>
     <g id="line2d_4">
      <g>
       <use xlink:href="#me0d503e54f" x="268.742796" y="640.8" style="stroke: #000000; stroke-width: 0.8"/>
      </g>
     </g>
     <g id="text_2">
      <!-- 2 -->
      <g transform="translate(265.561546 655.398438) scale(0.1 -0.1)">
       <defs>
        <path id="DejaVuSans-32" d="M 1228 531 
L 3431 531 
L 3431 0 
L 469 0 
L 469 531 
Q 828 903 1448 1529 
Q 2069 2156 2228 2338 
Q 2531 2678 2651 2914 
Q 2772 3150 2772 3378 
Q 2772 3750 2511 3984 
Q 2250 4219 1831 4219 
Q 1534 4219 1204 4116 
Q 875 4013 500 3803 
L 500 4441 
Q 881 4594 1212 4672 
Q 1544 4750 1819 4750 
Q 2544 4750 2975 4387 
Q 3406 4025 3406 3419 
Q 3406 3131 3298 2873 
Q 3191 2616 2906 2266 
Q 2828 2175 2409 1742 
Q 1991 1309 1228 531 
z
" transform="scale(0.015625)"/>
       </defs>
       <use xlink:href="#DejaVuSans-32"/>
      </g>
     </g>
    </g>
    <g id="xtick_3">
     <g id="line2d_5">
      <path d="M 317.973812 640.8 
L 317.973812 86.4 
" clip-path="url(#p3f1f6e70b5)" style="fill: none; stroke: #b0b0b0; stroke-width: 0.8; stroke-linecap: square"/>
     </g>
     <g id="line2d_6">
      <g>
       <use xlink:href="#me0d503e54f" x="317.973812" y="640.8" style="stroke: #000000; stroke-width: 0.8"/>
      </g>
     </g>
     <g id="text_3">
      <!-- 3 -->
      <g transform="translate(314.792562 655.398438) scale(0.1 -0.1)">
       <defs>
        <path id="DejaVuSans-33" d="M 2597 2516 
Q 3050 2419 3304 2112 
Q 3559 1806 3559 1356 
Q 3559 666 3084 287 
Q 2609 -91 1734 -91 
Q 1441 -91 1130 -33 
Q 819 25 488 141 
L 488 750 
Q 750 597 1062 519 
Q 1375 441 1716 441 
Q 2309 441 2620 675 
Q 2931 909 2931 1356 
Q 2931 1769 2642 2001 
Q 2353 2234 1838 2234 
L 1294 2234 
L 1294 2753 
L 1863 2753 
Q 2328 2753 2575 2939 
Q 2822 3125 2822 3475 
Q 2822 3834 2567 4026 
Q 2313 4219 1838 4219 
Q 1578 4219 1281 4162 
Q 984 4106 628 3988 
L 628 4550 
Q 988 4650 1302 4700 
Q 1616 4750 1894 4750 
Q 2613 4750 3031 4423 
Q 3450 4097 3450 3541 
Q 3450 3153 3228 2886 
Q 3006 2619 2597 2516 
z
" transform="scale(0.015625)"/>
       </defs>
       <use xlink:href="#DejaVuSans-33"/>
      </g>
     </g>
    </g>
    <g id="xtick_4">
     <g id="line2d_7">
      <path d="M 352.903773 640.8 
L 352.903773 86.4 
" clip-path="url(#p3f1f6e70b5)" style="fill: none; stroke: #b0b0b0; stroke-width: 0.8; stroke-linecap: square"/>
     </g>
     <g id="line2d_8">
      <g>
       <use xlink:href="#me0d503e54f" x="352.903773" y="640.8" style="stroke: #000000; stroke-width: 0.8"/>
      </g>
     </g>
     <g id="text_4">
      <!-- 4 -->
      <g transform="translate(349.722523 655.398438) scale(0.1 -0.1)">
       <defs>
        <path id="DejaVuSans-34" d="M 2419 4116 
L 825 1625 
L 2419 1625 
L 2419 4116 
z
M 2253 4666 
L 3047 4666 
L 3047 1625 
L 3713 1625 
L 3713 1100 
L 3047 1100 
L 3047 0 
L 2419 0 
L 2419 1100 
L 313 1100 
L 313 1709 
L 2253 4666 
z
" transform="scale(0.015625)"/>
       </defs>
       <use xlink:href="#DejaVuSans-34"/>
      </g>
     </g>
    </g>
    <g id="xtick_5">
     <g id="line2d_9">
      <path d="M 379.997556 640.8 
L 379.997556 86.4 
" clip-path="url(#p3f1f6e70b5)" style="fill: none; stroke: #b0b0b0; stroke-width: 0.8; stroke-linecap: square"/>
     </g>
     <g id="line2d_10">
      <g>
       <use xlink:href="#me0d503e54f" x="379.997556" y="640.8" style="stroke: #000000; stroke-width: 0.8"/>
      </g>
     </g>
     <g id="text_5">
      <!-- 5 -->
      <g transform="translate(376.816306 655.398438) scale(0.1 -0.1)">
       <defs>
        <path id="DejaVuSans-35" d="M 691 4666 
L 3169 4666 
L 3169 4134 
L 1269 4134 
L 1269 2991 
Q 1406 3038 1543 3061 
Q 1681 3084 1819 3084 
Q 2600 3084 3056 2656 
Q 3513 2228 3513 1497 
Q 3513 744 3044 326 
Q 2575 -91 1722 -91 
Q 1428 -91 1123 -41 
Q 819 9 494 109 
L 494 744 
Q 775 591 1075 516 
Q 1375 441 1709 441 
Q 2250 441 2565 725 
Q 2881 1009 2881 1497 
Q 2881 1984 2565 2268 
Q 2250 2553 1709 2553 
Q 1456 2553 1204 2497 
Q 953 2441 691 2322 
L 691 4666 
z
" transform="scale(0.015625)"/>
       </defs>
       <use xlink:href="#DejaVuSans-35"/>
      </g>
     </g>
    </g>
    <g id="xtick_6">
     <g id="line2d_11">
      <path d="M 402.134789 640.8 
L 402.134789 86.4 
" clip-path="url(#p3f1f6e70b5)" style="fill: none; stroke: #b0b0b0; stroke-width: 0.8; stroke-linecap: square"/>
     </g>
     <g id="line2d_12">
      <g>
       <use xlink:href="#me0d503e54f" x="402.134789" y="640.8" style="stroke: #000000; stroke-width: 0.8"/>
      </g>
     </g>
     <g id="text_6">
      <!-- 6 -->
      <g transform="translate(398.953539 655.398438) scale(0.1 -0.1)">
       <defs>
        <path id="DejaVuSans-36" d="M 2113 2584 
Q 1688 2584 1439 2293 
Q 1191 2003 1191 1497 
Q 1191 994 1439 701 
Q 1688 409 2113 409 
Q 2538 409 2786 701 
Q 3034 994 3034 1497 
Q 3034 2003 2786 2293 
Q 2538 2584 2113 2584 
z
M 3366 4563 
L 3366 3988 
Q 3128 4100 2886 4159 
Q 2644 4219 2406 4219 
Q 1781 4219 1451 3797 
Q 1122 3375 1075 2522 
Q 1259 2794 1537 2939 
Q 1816 3084 2150 3084 
Q 2853 3084 3261 2657 
Q 3669 2231 3669 1497 
Q 3669 778 3244 343 
Q 2819 -91 2113 -91 
Q 1303 -91 875 529 
Q 447 1150 447 2328 
Q 447 3434 972 4092 
Q 1497 4750 2381 4750 
Q 2619 4750 2861 4703 
Q 3103 4656 3366 4563 
z
" transform="scale(0.015625)"/>
       </defs>
       <use xlink:href="#DejaVuSans-36"/>
      </g>
     </g>
    </g>
    <g id="xtick_7">
     <g id="line2d_13">
      <path d="M 420.851553 640.8 
L 420.851553 86.4 
" clip-path="url(#p3f1f6e70b5)" style="fill: none; stroke: #b0b0b0; stroke-width: 0.8; stroke-linecap: square"/>
     </g>
     <g id="line2d_14">
      <g>
       <use xlink:href="#me0d503e54f" x="420.851553" y="640.8" style="stroke: #000000; stroke-width: 0.8"/>
      </g>
     </g>
     <g id="text_7">
      <!-- 7 -->
      <g transform="translate(417.670303 655.398438) scale(0.1 -0.1)">
       <defs>
        <path id="DejaVuSans-37" d="M 525 4666 
L 3525 4666 
L 3525 4397 
L 1831 0 
L 1172 0 
L 2766 4134 
L 525 4134 
L 525 4666 
z
" transform="scale(0.015625)"/>
       </defs>
       <use xlink:href="#DejaVuSans-37"/>
      </g>
     </g>
    </g>
    <g id="xtick_8">
     <g id="line2d_15">
      <path d="M 437.064751 640.8 
L 437.064751 86.4 
" clip-path="url(#p3f1f6e70b5)" style="fill: none; stroke: #b0b0b0; stroke-width: 0.8; stroke-linecap: square"/>
     </g>
     <g id="line2d_16">
      <g>
       <use xlink:href="#me0d503e54f" x="437.064751" y="640.8" style="stroke: #000000; stroke-width: 0.8"/>
      </g>
     </g>
     <g id="text_8">
      <!-- 8 -->
      <g transform="translate(433.883501 655.398438) scale(0.1 -0.1)">
       <defs>
        <path id="DejaVuSans-38" d="M 2034 2216 
Q 1584 2216 1326 1975 
Q 1069 1734 1069 1313 
Q 1069 891 1326 650 
Q 1584 409 2034 409 
Q 2484 409 2743 651 
Q 3003 894 3003 1313 
Q 3003 1734 2745 1975 
Q 2488 2216 2034 2216 
z
M 1403 2484 
Q 997 2584 770 2862 
Q 544 3141 544 3541 
Q 544 4100 942 4425 
Q 1341 4750 2034 4750 
Q 2731 4750 3128 4425 
Q 3525 4100 3525 3541 
Q 3525 3141 3298 2862 
Q 3072 2584 2669 2484 
Q 3125 2378 3379 2068 
Q 3634 1759 3634 1313 
Q 3634 634 3220 271 
Q 2806 -91 2034 -91 
Q 1263 -91 848 271 
Q 434 634 434 1313 
Q 434 1759 690 2068 
Q 947 2378 1403 2484 
z
M 1172 3481 
Q 1172 3119 1398 2916 
Q 1625 2713 2034 2713 
Q 2441 2713 2670 2916 
Q 2900 3119 2900 3481 
Q 2900 3844 2670 4047 
Q 2441 4250 2034 4250 
Q 1625 4250 1398 4047 
Q 1172 3844 1172 3481 
z
" transform="scale(0.015625)"/>
       </defs>
       <use xlink:href="#DejaVuSans-38"/>
      </g>
     </g>
    </g>
    <g id="xtick_9">
     <g id="line2d_17">
      <path d="M 451.365805 640.8 
L 451.365805 86.4 
" clip-path="url(#p3f1f6e70b5)" style="fill: none; stroke: #b0b0b0; stroke-width: 0.8; stroke-linecap: square"/>
     </g>
     <g id="line2d_18">
      <g>
       <use xlink:href="#me0d503e54f" x="451.365805" y="640.8" style="stroke: #000000; stroke-width: 0.8"/>
      </g>
     </g>
     <g id="text_9">
      <!-- 9 -->
      <g transform="translate(448.184555 655.398438) scale(0.1 -0.1)">
       <defs>
        <path id="DejaVuSans-39" d="M 703 97 
L 703 672 
Q 941 559 1184 500 
Q 1428 441 1663 441 
Q 2288 441 2617 861 
Q 2947 1281 2994 2138 
Q 2813 1869 2534 1725 
Q 2256 1581 1919 1581 
Q 1219 1581 811 2004 
Q 403 2428 403 3163 
Q 403 3881 828 4315 
Q 1253 4750 1959 4750 
Q 2769 4750 3195 4129 
Q 3622 3509 3622 2328 
Q 3622 1225 3098 567 
Q 2575 -91 1691 -91 
Q 1453 -91 1209 -44 
Q 966 3 703 97 
z
M 1959 2075 
Q 2384 2075 2632 2365 
Q 2881 2656 2881 3163 
Q 2881 3666 2632 3958 
Q 2384 4250 1959 4250 
Q 1534 4250 1286 3958 
Q 1038 3666 1038 3163 
Q 1038 2656 1286 2365 
Q 1534 2075 1959 2075 
z
" transform="scale(0.015625)"/>
       </defs>
       <use xlink:href="#DejaVuSans-39"/>
      </g>
     </g>
    </g>
    <g id="xtick_10">
     <g id="line2d_19">
      <path d="M 464.158534 640.8 
L 464.158534 86.4 
" clip-path="url(#p3f1f6e70b5)" style="fill: none; stroke: #b0b0b0; stroke-width: 0.8; stroke-linecap: square"/>
     </g>
     <g id="line2d_20">
      <g>
       <use xlink:href="#me0d503e54f" x="464.158534" y="640.8" style="stroke: #000000; stroke-width: 0.8"/>
      </g>
     </g>
     <g id="text_10">
      <!-- 10 -->
      <g transform="translate(457.796034 655.398438) scale(0.1 -0.1)">
       <defs>
        <path id="DejaVuSans-30" d="M 2034 4250 
Q 1547 4250 1301 3770 
Q 1056 3291 1056 2328 
Q 1056 1369 1301 889 
Q 1547 409 2034 409 
Q 2525 409 2770 889 
Q 3016 1369 3016 2328 
Q 3016 3291 2770 3770 
Q 2525 4250 2034 4250 
z
M 2034 4750 
Q 2819 4750 3233 4129 
Q 3647 3509 3647 2328 
Q 3647 1150 3233 529 
Q 2819 -91 2034 -91 
Q 1250 -91 836 529 
Q 422 1150 422 2328 
Q 422 3509 836 4129 
Q 1250 4750 2034 4750 
z
" transform="scale(0.015625)"/>
       </defs>
       <use xlink:href="#DejaVuSans-31"/>
       <use xlink:href="#DejaVuSans-30" transform="translate(63.623047 0)"/>
      </g>
     </g>
    </g>
    <g id="xtick_11">
     <g id="line2d_21">
      <path d="M 486.295766 640.8 
L 486.295766 86.4 
" clip-path="url(#p3f1f6e70b5)" style="fill: none; stroke: #b0b0b0; stroke-width: 0.8; stroke-linecap: square"/>
     </g>
     <g id="line2d_22">
      <g>
       <use xlink:href="#me0d503e54f" x="486.295766" y="640.8" style="stroke: #000000; stroke-width: 0.8"/>
      </g>
     </g>
     <g id="text_11">
      <!-- 12 -->
      <g transform="translate(479.933266 655.398438) scale(0.1 -0.1)">
       <use xlink:href="#DejaVuSans-31"/>
       <use xlink:href="#DejaVuSans-32" transform="translate(63.623047 0)"/>
      </g>
     </g>
    </g>
    <g id="xtick_12">
     <g id="line2d_23">
      <path d="M 505.01253 640.8 
L 505.01253 86.4 
" clip-path="url(#p3f1f6e70b5)" style="fill: none; stroke: #b0b0b0; stroke-width: 0.8; stroke-linecap: square"/>
     </g>
     <g id="line2d_24">
      <g>
       <use xlink:href="#me0d503e54f" x="505.01253" y="640.8" style="stroke: #000000; stroke-width: 0.8"/>
      </g>
     </g>
     <g id="text_12">
      <!-- 14 -->
      <g transform="translate(498.65003 655.398438) scale(0.1 -0.1)">
       <use xlink:href="#DejaVuSans-31"/>
       <use xlink:href="#DejaVuSans-34" transform="translate(63.623047 0)"/>
      </g>
     </g>
    </g>
    <g id="xtick_13">
     <g id="line2d_25">
      <path d="M 521.225728 640.8 
L 521.225728 86.4 
" clip-path="url(#p3f1f6e70b5)" style="fill: none; stroke: #b0b0b0; stroke-width: 0.8; stroke-linecap: square"/>
     </g>
     <g id="line2d_26">
      <g>
       <use xlink:href="#me0d503e54f" x="521.225728" y="640.8" style="stroke: #000000; stroke-width: 0.8"/>
      </g>
     </g>
     <g id="text_13">
      <!-- 16 -->
      <g transform="translate(514.863228 655.398438) scale(0.1 -0.1)">
       <use xlink:href="#DejaVuSans-31"/>
       <use xlink:href="#DejaVuSans-36" transform="translate(63.623047 0)"/>
      </g>
     </g>
    </g>
    <g id="xtick_14">
     <g id="line2d_27">
      <path d="M 535.526782 640.8 
L 535.526782 86.4 
" clip-path="url(#p3f1f6e70b5)" style="fill: none; stroke: #b0b0b0; stroke-width: 0.8; stroke-linecap: square"/>
     </g>
     <g id="line2d_28">
      <g>
       <use xlink:href="#me0d503e54f" x="535.526782" y="640.8" style="stroke: #000000; stroke-width: 0.8"/>
      </g>
     </g>
     <g id="text_14">
      <!-- 18 -->
      <g transform="translate(529.164282 655.398438) scale(0.1 -0.1)">
       <use xlink:href="#DejaVuSans-31"/>
       <use xlink:href="#DejaVuSans-38" transform="translate(63.623047 0)"/>
      </g>
     </g>
    </g>
    <g id="xtick_15">
     <g id="line2d_29">
      <path d="M 548.319511 640.8 
L 548.319511 86.4 
" clip-path="url(#p3f1f6e70b5)" style="fill: none; stroke: #b0b0b0; stroke-width: 0.8; stroke-linecap: square"/>
     </g>
     <g id="line2d_30">
      <g>
       <use xlink:href="#me0d503e54f" x="548.319511" y="640.8" style="stroke: #000000; stroke-width: 0.8"/>
      </g>
     </g>
     <g id="text_15">
      <!-- 20 -->
      <g transform="translate(541.957011 655.398438) scale(0.1 -0.1)">
       <use xlink:href="#DejaVuSans-32"/>
       <use xlink:href="#DejaVuSans-30" transform="translate(63.623047 0)"/>
      </g>
     </g>
    </g>
    <g id="xtick_16">
     <g id="line2d_31">
      <path d="M 570.456744 640.8 
L 570.456744 86.4 
" clip-path="url(#p3f1f6e70b5)" style="fill: none; stroke: #b0b0b0; stroke-width: 0.8; stroke-linecap: square"/>
     </g>
     <g id="line2d_32">
      <g>
       <use xlink:href="#me0d503e54f" x="570.456744" y="640.8" style="stroke: #000000; stroke-width: 0.8"/>
      </g>
     </g>
     <g id="text_16">
      <!-- 24 -->
      <g transform="translate(564.094244 655.398438) scale(0.1 -0.1)">
       <use xlink:href="#DejaVuSans-32"/>
       <use xlink:href="#DejaVuSans-34" transform="translate(63.623047 0)"/>
      </g>
     </g>
    </g>
    <g id="xtick_17">
     <g id="line2d_33">
      <path d="M 589.173508 640.8 
L 589.173508 86.4 
" clip-path="url(#p3f1f6e70b5)" style="fill: none; stroke: #b0b0b0; stroke-width: 0.8; stroke-linecap: square"/>
     </g>
     <g id="line2d_34">
      <g>
       <use xlink:href="#me0d503e54f" x="589.173508" y="640.8" style="stroke: #000000; stroke-width: 0.8"/>
      </g>
     </g>
     <g id="text_17">
      <!-- 28 -->
      <g transform="translate(582.811008 655.398438) scale(0.1 -0.1)">
       <use xlink:href="#DejaVuSans-32"/>
       <use xlink:href="#DejaVuSans-38" transform="translate(63.623047 0)"/>
      </g>
     </g>
    </g>
    <g id="xtick_18">
     <g id="line2d_35">
      <path d="M 605.386706 640.8 
L 605.386706 86.4 
" clip-path="url(#p3f1f6e70b5)" style="fill: none; stroke: #b0b0b0; stroke-width: 0.8; stroke-linecap: square"/>
     </g>
     <g id="line2d_36">
      <g>
       <use xlink:href="#me0d503e54f" x="605.386706" y="640.8" style="stroke: #000000; stroke-width: 0.8"/>
      </g>
     </g>
     <g id="text_18">
      <!-- 32 -->
      <g transform="translate(599.024206 655.398438) scale(0.1 -0.1)">
       <use xlink:href="#DejaVuSans-33"/>
       <use xlink:href="#DejaVuSans-32" transform="translate(63.623047 0)"/>
      </g>
     </g>
    </g>
    <g id="xtick_19">
     <g id="line2d_37">
      <path d="M 659.574272 640.8 
L 659.574272 86.4 
" clip-path="url(#p3f1f6e70b5)" style="fill: none; stroke: #b0b0b0; stroke-width: 0.8; stroke-linecap: square"/>
     </g>
     <g id="line2d_38">
      <g>
       <use xlink:href="#me0d503e54f" x="659.574272" y="640.8" style="stroke: #000000; stroke-width: 0.8"/>
      </g>
     </g>
     <g id="text_19">
      <!-- 50 -->
      <g transform="translate(653.211772 655.398438) scale(0.1 -0.1)">
       <use xlink:href="#DejaVuSans-35"/>
       <use xlink:href="#DejaVuSans-30" transform="translate(63.623047 0)"/>
      </g>
     </g>
    </g>
    <g id="xtick_20">
     <g id="line2d_39">
      <path d="M 743.735249 640.8 
L 743.735249 86.4 
" clip-path="url(#p3f1f6e70b5)" style="fill: none; stroke: #b0b0b0; stroke-width: 0.8; stroke-linecap: square"/>
     </g>
     <g id="line2d_40">
      <g>
       <use xlink:href="#me0d503e54f" x="743.735249" y="640.8" style="stroke: #000000; stroke-width: 0.8"/>
      </g>
     </g>
     <g id="text_20">
      <!-- 100 -->
      <g transform="translate(734.191499 655.398438) scale(0.1 -0.1)">
       <use xlink:href="#DejaVuSans-31"/>
       <use xlink:href="#DejaVuSans-30" transform="translate(63.623047 0)"/>
       <use xlink:href="#DejaVuSans-30" transform="translate(127.246094 0)"/>
      </g>
     </g>
    </g>
    <g id="xtick_21">
     <g id="line2d_41">
      <path d="M 827.896227 640.8 
L 827.896227 86.4 
" clip-path="url(#p3f1f6e70b5)" style="fill: none; stroke: #b0b0b0; stroke-width: 0.8; stroke-linecap: square"/>
     </g>
     <g id="line2d_42">
      <g>
       <use xlink:href="#me0d503e54f" x="827.896227" y="640.8" style="stroke: #000000; stroke-width: 0.8"/>
      </g>
     </g>
     <g id="text_21">
      <!-- 200 -->
      <g transform="translate(818.352477 655.398438) scale(0.1 -0.1)">
       <use xlink:href="#DejaVuSans-32"/>
       <use xlink:href="#DejaVuSans-30" transform="translate(63.623047 0)"/>
       <use xlink:href="#DejaVuSans-30" transform="translate(127.246094 0)"/>
      </g>
     </g>
    </g>
    <g id="xtick_22">
     <g id="line2d_43">
      <path d="M 912.057204 640.8 
L 912.057204 86.4 
" clip-path="url(#p3f1f6e70b5)" style="fill: none; stroke: #b0b0b0; stroke-width: 0.8; stroke-linecap: square"/>
     </g>
     <g id="line2d_44">
      <g>
       <use xlink:href="#me0d503e54f" x="912.057204" y="640.8" style="stroke: #000000; stroke-width: 0.8"/>
      </g>
     </g>
     <g id="text_22">
      <!-- 400 -->
      <g transform="translate(902.513454 655.398438) scale(0.1 -0.1)">
       <use xlink:href="#DejaVuSans-34"/>
       <use xlink:href="#DejaVuSans-30" transform="translate(63.623047 0)"/>
       <use xlink:href="#DejaVuSans-30" transform="translate(127.246094 0)"/>
      </g>
     </g>
    </g>
    <g id="xtick_23">
     <g id="line2d_45">
      <path d="M 996.218182 640.8 
L 996.218182 86.4 
" clip-path="url(#p3f1f6e70b5)" style="fill: none; stroke: #b0b0b0; stroke-width: 0.8; stroke-linecap: square"/>
     </g>
     <g id="line2d_46">
      <g>
       <use xlink:href="#me0d503e54f" x="996.218182" y="640.8" style="stroke: #000000; stroke-width: 0.8"/>
      </g>
     </g>
     <g id="text_23">
      <!-- 800 -->
      <g transform="translate(986.674432 655.398438) scale(0.1 -0.1)">
       <use xlink:href="#DejaVuSans-38"/>
       <use xlink:href="#DejaVuSans-30" transform="translate(63.623047 0)"/>
       <use xlink:href="#DejaVuSans-30" transform="translate(127.246094 0)"/>
      </g>
     </g>
    </g>
    <g id="text_24">
     <!-- Write Length -->
     <g transform="translate(558.364062 669.076563) scale(0.1 -0.1)">
      <defs>
       <path id="DejaVuSans-57" d="M 213 4666 
L 850 4666 
L 1831 722 
L 2809 4666 
L 3519 4666 
L 4500 722 
L 5478 4666 
L 6119 4666 
L 4947 0 
L 4153 0 
L 3169 4050 
L 2175 0 
L 1381 0 
L 213 4666 
z
" transform="scale(0.015625)"/>
       <path id="DejaVuSans-72" d="M 2631 2963 
Q 2534 3019 2420 3045 
Q 2306 3072 2169 3072 
Q 1681 3072 1420 2755 
Q 1159 2438 1159 1844 
L 1159 0 
L 581 0 
L 581 3500 
L 1159 3500 
L 1159 2956 
Q 1341 3275 1631 3429 
Q 1922 3584 2338 3584 
Q 2397 3584 2469 3576 
Q 2541 3569 2628 3553 
L 2631 2963 
z
" transform="scale(0.015625)"/>
       <path id="DejaVuSans-69" d="M 603 3500 
L 1178 3500 
L 1178 0 
L 603 0 
L 603 3500 
z
M 603 4863 
L 1178 4863 
L 1178 4134 
L 603 4134 
L 603 4863 
z
" transform="scale(0.015625)"/>
       <path id="DejaVuSans-74" d="M 1172 4494 
L 1172 3500 
L 2356 3500 
L 2356 3053 
L 1172 3053 
L 1172 1153 
Q 1172 725 1289 603 
Q 1406 481 1766 481 
L 2356 481 
L 2356 0 
L 1766 0 
Q 1100 0 847 248 
Q 594 497 594 1153 
L 594 3053 
L 172 3053 
L 172 3500 
L 594 3500 
L 594 4494 
L 1172 4494 
z
" transform="scale(0.015625)"/>
       <path id="DejaVuSans-65" d="M 3597 1894 
L 3597 1613 
L 953 1613 
Q 991 1019 1311 708 
Q 1631 397 2203 397 
Q 2534 397 2845 478 
Q 3156 559 3463 722 
L 3463 178 
Q 3153 47 2828 -22 
Q 2503 -91 2169 -91 
Q 1331 -91 842 396 
Q 353 884 353 1716 
Q 353 2575 817 3079 
Q 1281 3584 2069 3584 
Q 2775 3584 3186 3129 
Q 3597 2675 3597 1894 
z
M 3022 2063 
Q 3016 2534 2758 2815 
Q 2500 3097 2075 3097 
Q 1594 3097 1305 2825 
Q 1016 2553 972 2059 
L 3022 2063 
z
" transform="scale(0.015625)"/>
       <path id="DejaVuSans-20" transform="scale(0.015625)"/>
       <path id="DejaVuSans-4c" d="M 628 4666 
L 1259 4666 
L 1259 531 
L 3531 531 
L 3531 0 
L 628 0 
L 628 4666 
z
" transform="scale(0.015625)"/>
       <path id="DejaVuSans-6e" d="M 3513 2113 
L 3513 0 
L 2938 0 
L 2938 2094 
Q 2938 2591 2744 2837 
Q 2550 3084 2163 3084 
Q 1697 3084 1428 2787 
Q 1159 2491 1159 1978 
L 1159 0 
L 581 0 
L 581 3500 
L 1159 3500 
L 1159 2956 
Q 1366 3272 1645 3428 
Q 1925 3584 2291 3584 
Q 2894 3584 3203 3211 
Q 3513 2838 3513 2113 
z
" transform="scale(0.015625)"/>
       <path id="DejaVuSans-67" d="M 2906 1791 
Q 2906 2416 2648 2759 
Q 2391 3103 1925 3103 
Q 1463 3103 1205 2759 
Q 947 2416 947 1791 
Q 947 1169 1205 825 
Q 1463 481 1925 481 
Q 2391 481 2648 825 
Q 2906 1169 2906 1791 
z
M 3481 434 
Q 3481 -459 3084 -895 
Q 2688 -1331 1869 -1331 
Q 1566 -1331 1297 -1286 
Q 1028 -1241 775 -1147 
L 775 -588 
Q 1028 -725 1275 -790 
Q 1522 -856 1778 -856 
Q 2344 -856 2625 -561 
Q 2906 -266 2906 331 
L 2906 616 
Q 2728 306 2450 153 
Q 2172 0 1784 0 
Q 1141 0 747 490 
Q 353 981 353 1791 
Q 353 2603 747 3093 
Q 1141 3584 1784 3584 
Q 2172 3584 2450 3431 
Q 2728 3278 2906 2969 
L 2906 3500 
L 3481 3500 
L 3481 434 
z
" transform="scale(0.015625)"/>
       <path id="DejaVuSans-68" d="M 3513 2113 
L 3513 0 
L 2938 0 
L 2938 2094 
Q 2938 2591 2744 2837 
Q 2550 3084 2163 3084 
Q 1697 3084 1428 2787 
Q 1159 2491 1159 1978 
L 1159 0 
L 581 0 
L 581 4863 
L 1159 4863 
L 1159 2956 
Q 1366 3272 1645 3428 
Q 1925 3584 2291 3584 
Q 2894 3584 3203 3211 
Q 3513 2838 3513 2113 
z
" transform="scale(0.015625)"/>
      </defs>
      <use xlink:href="#DejaVuSans-57"/>
      <use xlink:href="#DejaVuSans-72" transform="translate(94.376953 0)"/>
      <use xlink:href="#DejaVuSans-69" transform="translate(135.490234 0)"/>
      <use xlink:href="#DejaVuSans-74" transform="translate(163.273438 0)"/>
      <use xlink:href="#DejaVuSans-65" transform="translate(202.482422 0)"/>
      <use xlink:href="#DejaVuSans-20" transform="translate(264.005859 0)"/>
      <use xlink:href="#DejaVuSans-4c" transform="translate(295.792969 0)"/>
      <use xlink:href="#DejaVuSans-65" transform="translate(349.755859 0)"/>
      <use xlink:href="#DejaVuSans-6e" transform="translate(411.279297 0)"/>
      <use xlink:href="#DejaVuSans-67" transform="translate(474.658203 0)"/>
      <use xlink:href="#DejaVuSans-74" transform="translate(538.134766 0)"/>
      <use xlink:href="#DejaVuSans-68" transform="translate(577.34375 0)"/>
     </g>
    </g>
   </g>
   <g id="matplotlib.axis_2">
    <g id="ytick_1">
     <g id="line2d_47">
      <path d="M 144 555.573766 
L 1036.8 555.573766 
" clip-path="url(#p3f1f6e70b5)" style="fill: none; stroke: #b0b0b0; stroke-width: 0.8; stroke-linecap: square"/>
     </g>
     <g id="line2d_48">
      <defs>
       <path id="ma1522b2277" d="M 0 0 
L -3.5 0 
" style="stroke: #000000; stroke-width: 0.8"/>
      </defs>
      <g>
       <use xlink:href="#ma1522b2277" x="144" y="555.573766" style="stroke: #000000; stroke-width: 0.8"/>
      </g>
     </g>
     <g id="text_25">
      <!-- 0.2 -->
      <g transform="translate(121.096875 559.372985) scale(0.1 -0.1)">
       <defs>
        <path id="DejaVuSans-2e" d="M 684 794 
L 1344 794 
L 1344 0 
L 684 0 
L 684 794 
z
" transform="scale(0.015625)"/>
       </defs>
       <use xlink:href="#DejaVuSans-30"/>
       <use xlink:href="#DejaVuSans-2e" transform="translate(63.623047 0)"/>
       <use xlink:href="#DejaVuSans-32" transform="translate(95.410156 0)"/>
      </g>
     </g>
    </g>
    <g id="ytick_2">
     <g id="line2d_49">
      <path d="M 144 451.286928 
L 1036.8 451.286928 
" clip-path="url(#p3f1f6e70b5)" style="fill: none; stroke: #b0b0b0; stroke-width: 0.8; stroke-linecap: square"/>
     </g>
     <g id="line2d_50">
      <g>
       <use xlink:href="#ma1522b2277" x="144" y="451.286928" style="stroke: #000000; stroke-width: 0.8"/>
      </g>
     </g>
     <g id="text_26">
      <!-- 0.4 -->
      <g transform="translate(121.096875 455.086147) scale(0.1 -0.1)">
       <use xlink:href="#DejaVuSans-30"/>
       <use xlink:href="#DejaVuSans-2e" transform="translate(63.623047 0)"/>
       <use xlink:href="#DejaVuSans-34" transform="translate(95.410156 0)"/>
      </g>
     </g>
    </g>
    <g id="ytick_3">
     <g id="line2d_51">
      <path d="M 144 347.00009 
L 1036.8 347.00009 
" clip-path="url(#p3f1f6e70b5)" style="fill: none; stroke: #b0b0b0; stroke-width: 0.8; stroke-linecap: square"/>
     </g>
     <g id="line2d_52">
      <g>
       <use xlink:href="#ma1522b2277" x="144" y="347.00009" style="stroke: #000000; stroke-width: 0.8"/>
      </g>
     </g>
     <g id="text_27">
      <!-- 0.6 -->
      <g transform="translate(121.096875 350.799309) scale(0.1 -0.1)">
       <use xlink:href="#DejaVuSans-30"/>
       <use xlink:href="#DejaVuSans-2e" transform="translate(63.623047 0)"/>
       <use xlink:href="#DejaVuSans-36" transform="translate(95.410156 0)"/>
      </g>
     </g>
    </g>
    <g id="ytick_4">
     <g id="line2d_53">
      <path d="M 144 242.713251 
L 1036.8 242.713251 
" clip-path="url(#p3f1f6e70b5)" style="fill: none; stroke: #b0b0b0; stroke-width: 0.8; stroke-linecap: square"/>
     </g>
     <g id="line2d_54">
      <g>
       <use xlink:href="#ma1522b2277" x="144" y="242.713251" style="stroke: #000000; stroke-width: 0.8"/>
      </g>
     </g>
     <g id="text_28">
      <!-- 0.8 -->
      <g transform="translate(121.096875 246.51247) scale(0.1 -0.1)">
       <use xlink:href="#DejaVuSans-30"/>
       <use xlink:href="#DejaVuSans-2e" transform="translate(63.623047 0)"/>
       <use xlink:href="#DejaVuSans-38" transform="translate(95.410156 0)"/>
      </g>
     </g>
    </g>
    <g id="ytick_5">
     <g id="line2d_55">
      <path d="M 144 138.426413 
L 1036.8 138.426413 
" clip-path="url(#p3f1f6e70b5)" style="fill: none; stroke: #b0b0b0; stroke-width: 0.8; stroke-linecap: square"/>
     </g>
     <g id="line2d_56">
      <g>
       <use xlink:href="#ma1522b2277" x="144" y="138.426413" style="stroke: #000000; stroke-width: 0.8"/>
      </g>
     </g>
     <g id="text_29">
      <!-- 1.0 -->
      <g transform="translate(121.096875 142.225632) scale(0.1 -0.1)">
       <use xlink:href="#DejaVuSans-31"/>
       <use xlink:href="#DejaVuSans-2e" transform="translate(63.623047 0)"/>
       <use xlink:href="#DejaVuSans-30" transform="translate(95.410156 0)"/>
      </g>
     </g>
    </g>
    <g id="text_30">
     <!-- Duration (s) -->
     <g transform="translate(115.017187 393.410937) rotate(-90) scale(0.1 -0.1)">
      <defs>
       <path id="DejaVuSans-44" d="M 1259 4147 
L 1259 519 
L 2022 519 
Q 2988 519 3436 956 
Q 3884 1394 3884 2338 
Q 3884 3275 3436 3711 
Q 2988 4147 2022 4147 
L 1259 4147 
z
M 628 4666 
L 1925 4666 
Q 3281 4666 3915 4102 
Q 4550 3538 4550 2338 
Q 4550 1131 3912 565 
Q 3275 0 1925 0 
L 628 0 
L 628 4666 
z
" transform="scale(0.015625)"/>
       <path id="DejaVuSans-75" d="M 544 1381 
L 544 3500 
L 1119 3500 
L 1119 1403 
Q 1119 906 1312 657 
Q 1506 409 1894 409 
Q 2359 409 2629 706 
Q 2900 1003 2900 1516 
L 2900 3500 
L 3475 3500 
L 3475 0 
L 2900 0 
L 2900 538 
Q 2691 219 2414 64 
Q 2138 -91 1772 -91 
Q 1169 -91 856 284 
Q 544 659 544 1381 
z
M 1991 3584 
L 1991 3584 
z
" transform="scale(0.015625)"/>
       <path id="DejaVuSans-61" d="M 2194 1759 
Q 1497 1759 1228 1600 
Q 959 1441 959 1056 
Q 959 750 1161 570 
Q 1363 391 1709 391 
Q 2188 391 2477 730 
Q 2766 1069 2766 1631 
L 2766 1759 
L 2194 1759 
z
M 3341 1997 
L 3341 0 
L 2766 0 
L 2766 531 
Q 2569 213 2275 61 
Q 1981 -91 1556 -91 
Q 1019 -91 701 211 
Q 384 513 384 1019 
Q 384 1609 779 1909 
Q 1175 2209 1959 2209 
L 2766 2209 
L 2766 2266 
Q 2766 2663 2505 2880 
Q 2244 3097 1772 3097 
Q 1472 3097 1187 3025 
Q 903 2953 641 2809 
L 641 3341 
Q 956 3463 1253 3523 
Q 1550 3584 1831 3584 
Q 2591 3584 2966 3190 
Q 3341 2797 3341 1997 
z
" transform="scale(0.015625)"/>
       <path id="DejaVuSans-6f" d="M 1959 3097 
Q 1497 3097 1228 2736 
Q 959 2375 959 1747 
Q 959 1119 1226 758 
Q 1494 397 1959 397 
Q 2419 397 2687 759 
Q 2956 1122 2956 1747 
Q 2956 2369 2687 2733 
Q 2419 3097 1959 3097 
z
M 1959 3584 
Q 2709 3584 3137 3096 
Q 3566 2609 3566 1747 
Q 3566 888 3137 398 
Q 2709 -91 1959 -91 
Q 1206 -91 779 398 
Q 353 888 353 1747 
Q 353 2609 779 3096 
Q 1206 3584 1959 3584 
z
" transform="scale(0.015625)"/>
       <path id="DejaVuSans-28" d="M 1984 4856 
Q 1566 4138 1362 3434 
Q 1159 2731 1159 2009 
Q 1159 1288 1364 580 
Q 1569 -128 1984 -844 
L 1484 -844 
Q 1016 -109 783 600 
Q 550 1309 550 2009 
Q 550 2706 781 3412 
Q 1013 4119 1484 4856 
L 1984 4856 
z
" transform="scale(0.015625)"/>
       <path id="DejaVuSans-73" d="M 2834 3397 
L 2834 2853 
Q 2591 2978 2328 3040 
Q 2066 3103 1784 3103 
Q 1356 3103 1142 2972 
Q 928 2841 928 2578 
Q 928 2378 1081 2264 
Q 1234 2150 1697 2047 
L 1894 2003 
Q 2506 1872 2764 1633 
Q 3022 1394 3022 966 
Q 3022 478 2636 193 
Q 2250 -91 1575 -91 
Q 1294 -91 989 -36 
Q 684 19 347 128 
L 347 722 
Q 666 556 975 473 
Q 1284 391 1588 391 
Q 1994 391 2212 530 
Q 2431 669 2431 922 
Q 2431 1156 2273 1281 
Q 2116 1406 1581 1522 
L 1381 1569 
Q 847 1681 609 1914 
Q 372 2147 372 2553 
Q 372 3047 722 3315 
Q 1072 3584 1716 3584 
Q 2034 3584 2315 3537 
Q 2597 3491 2834 3397 
z
" transform="scale(0.015625)"/>
       <path id="DejaVuSans-29" d="M 513 4856 
L 1013 4856 
Q 1481 4119 1714 3412 
Q 1947 2706 1947 2009 
Q 1947 1309 1714 600 
Q 1481 -109 1013 -844 
L 513 -844 
Q 928 -128 1133 580 
Q 1338 1288 1338 2009 
Q 1338 2731 1133 3434 
Q 928 4138 513 4856 
z
" transform="scale(0.015625)"/>
      </defs>
      <use xlink:href="#DejaVuSans-44"/>
      <use xlink:href="#DejaVuSans-75" transform="translate(77.001953 0)"/>
      <use xlink:href="#DejaVuSans-72" transform="translate(140.380859 0)"/>
      <use xlink:href="#DejaVuSans-61" transform="translate(181.494141 0)"/>
      <use xlink:href="#DejaVuSans-74" transform="translate(242.773438 0)"/>
      <use xlink:href="#DejaVuSans-69" transform="translate(281.982422 0)"/>
      <use xlink:href="#DejaVuSans-6f" transform="translate(309.765625 0)"/>
      <use xlink:href="#DejaVuSans-6e" transform="translate(370.947266 0)"/>
      <use xlink:href="#DejaVuSans-20" transform="translate(434.326172 0)"/>
      <use xlink:href="#DejaVuSans-28" transform="translate(466.113281 0)"/>
      <use xlink:href="#DejaVuSans-73" transform="translate(505.126953 0)"/>
      <use xlink:href="#DejaVuSans-29" transform="translate(557.226562 0)"/>
     </g>
    </g>
   </g>
   <g id="line2d_57">
    <path d="M 184.581818 111.6 
L 268.742796 368.070485 
L 317.973812 429.206252 
L 352.903773 457.422268 
L 379.997556 495.261876 
L 402.134789 516.34024 
L 420.851553 525.264575 
L 437.064751 555.337741 
L 451.365805 566.007005 
L 464.158534 565.873911 
L 486.295766 569.563599 
L 505.01253 572.12859 
L 521.225728 578.098584 
L 535.526782 579.539555 
L 548.319511 580.54728 
L 570.456744 579.751417 
L 589.173508 582.116281 
L 605.386706 581.575411 
L 659.574272 583.402366 
L 743.735249 585.099875 
L 827.896227 584.874292 
L 912.057204 585.15209 
L 996.218182 585.353399 
" clip-path="url(#p3f1f6e70b5)" style="fill: none; stroke: #1f77b4; stroke-width: 1.5; stroke-linecap: square"/>
    <defs>
     <path id="m0b79814cff" d="M 0 3 
C 0.795609 3 1.55874 2.683901 2.12132 2.12132 
C 2.683901 1.55874 3 0.795609 3 0 
C 3 -0.795609 2.683901 -1.55874 2.12132 -2.12132 
C 1.55874 -2.683901 0.795609 -3 0 -3 
C -0.795609 -3 -1.55874 -2.683901 -2.12132 -2.12132 
C -2.683901 -1.55874 -3 -0.795609 -3 0 
C -3 0.795609 -2.683901 1.55874 -2.12132 2.12132 
C -1.55874 2.683901 -0.795609 3 0 3 
z
" style="stroke: #1f77b4"/>
    </defs>
    <g clip-path="url(#p3f1f6e70b5)">
     <use xlink:href="#m0b79814cff" x="184.581818" y="111.6" style="fill: #1f77b4; stroke: #1f77b4"/>
     <use xlink:href="#m0b79814cff" x="268.742796" y="368.070485" style="fill: #1f77b4; stroke: #1f77b4"/>
     <use xlink:href="#m0b79814cff" x="317.973812" y="429.206252" style="fill: #1f77b4; stroke: #1f77b4"/>
     <use xlink:href="#m0b79814cff" x="352.903773" y="457.422268" style="fill: #1f77b4; stroke: #1f77b4"/>
     <use xlink:href="#m0b79814cff" x="379.997556" y="495.261876" style="fill: #1f77b4; stroke: #1f77b4"/>
     <use xlink:href="#m0b79814cff" x="402.134789" y="516.34024" style="fill: #1f77b4; stroke: #1f77b4"/>
     <use xlink:href="#m0b79814cff" x="420.851553" y="525.264575" style="fill: #1f77b4; stroke: #1f77b4"/>
     <use xlink:href="#m0b79814cff" x="437.064751" y="555.337741" style="fill: #1f77b4; stroke: #1f77b4"/>
     <use xlink:href="#m0b79814cff" x="451.365805" y="566.007005" style="fill: #1f77b4; stroke: #1f77b4"/>
     <use xlink:href="#m0b79814cff" x="464.158534" y="565.873911" style="fill: #1f77b4; stroke: #1f77b4"/>
     <use xlink:href="#m0b79814cff" x="486.295766" y="569.563599" style="fill: #1f77b4; stroke: #1f77b4"/>
     <use xlink:href="#m0b79814cff" x="505.01253" y="572.12859" style="fill: #1f77b4; stroke: #1f77b4"/>
     <use xlink:href="#m0b79814cff" x="521.225728" y="578.098584" style="fill: #1f77b4; stroke: #1f77b4"/>
     <use xlink:href="#m0b79814cff" x="535.526782" y="579.539555" style="fill: #1f77b4; stroke: #1f77b4"/>
     <use xlink:href="#m0b79814cff" x="548.319511" y="580.54728" style="fill: #1f77b4; stroke: #1f77b4"/>
     <use xlink:href="#m0b79814cff" x="570.456744" y="579.751417" style="fill: #1f77b4; stroke: #1f77b4"/>
     <use xlink:href="#m0b79814cff" x="589.173508" y="582.116281" style="fill: #1f77b4; stroke: #1f77b4"/>
     <use xlink:href="#m0b79814cff" x="605.386706" y="581.575411" style="fill: #1f77b4; stroke: #1f77b4"/>
     <use xlink:href="#m0b79814cff" x="659.574272" y="583.402366" style="fill: #1f77b4; stroke: #1f77b4"/>
     <use xlink:href="#m0b79814cff" x="743.735249" y="585.099875" style="fill: #1f77b4; stroke: #1f77b4"/>
     <use xlink:href="#m0b79814cff" x="827.896227" y="584.874292" style="fill: #1f77b4; stroke: #1f77b4"/>
     <use xlink:href="#m0b79814cff" x="912.057204" y="585.15209" style="fill: #1f77b4; stroke: #1f77b4"/>
     <use xlink:href="#m0b79814cff" x="996.218182" y="585.353399" style="fill: #1f77b4; stroke: #1f77b4"/>
    </g>
   </g>
   <g id="line2d_58">
    <path d="M 184.581818 179.731367 
L 268.742796 377.253224 
L 317.973812 437.458052 
L 352.903773 461.131304 
L 379.997556 498.145379 
L 402.134789 519.396206 
L 420.851553 525.632203 
L 437.064751 556.880979 
L 451.365805 569.568619 
L 464.158534 569.862998 
L 486.295766 570.19132 
L 505.01253 571.906834 
L 521.225728 577.636956 
L 535.526782 580.350876 
L 548.319511 580.616883 
L 570.456744 580.18033 
L 589.173508 582.012589 
L 605.386706 581.727122 
L 659.574272 583.733532 
L 743.735249 584.713725 
L 827.896227 584.732005 
L 912.057204 585.273692 
L 996.218182 585.328318 
" clip-path="url(#p3f1f6e70b5)" style="fill: none; stroke: #ff7f0e; stroke-width: 1.5; stroke-linecap: square"/>
    <defs>
     <path id="m867b5e719e" d="M 0 3 
C 0.795609 3 1.55874 2.683901 2.12132 2.12132 
C 2.683901 1.55874 3 0.795609 3 0 
C 3 -0.795609 2.683901 -1.55874 2.12132 -2.12132 
C 1.55874 -2.683901 0.795609 -3 0 -3 
C -0.795609 -3 -1.55874 -2.683901 -2.12132 -2.12132 
C -2.683901 -1.55874 -3 -0.795609 -3 0 
C -3 0.795609 -2.683901 1.55874 -2.12132 2.12132 
C -1.55874 2.683901 -0.795609 3 0 3 
z
" style="stroke: #ff7f0e"/>
    </defs>
    <g clip-path="url(#p3f1f6e70b5)">
     <use xlink:href="#m867b5e719e" x="184.581818" y="179.731367" style="fill: #ff7f0e; stroke: #ff7f0e"/>
     <use xlink:href="#m867b5e719e" x="268.742796" y="377.253224" style="fill: #ff7f0e; stroke: #ff7f0e"/>
     <use xlink:href="#m867b5e719e" x="317.973812" y="437.458052" style="fill: #ff7f0e; stroke: #ff7f0e"/>
     <use xlink:href="#m867b5e719e" x="352.903773" y="461.131304" style="fill: #ff7f0e; stroke: #ff7f0e"/>
     <use xlink:href="#m867b5e719e" x="379.997556" y="498.145379" style="fill: #ff7f0e; stroke: #ff7f0e"/>
     <use xlink:href="#m867b5e719e" x="402.134789" y="519.396206" style="fill: #ff7f0e; stroke: #ff7f0e"/>
     <use xlink:href="#m867b5e719e" x="420.851553" y="525.632203" style="fill: #ff7f0e; stroke: #ff7f0e"/>
     <use xlink:href="#m867b5e719e" x="437.064751" y="556.880979" style="fill: #ff7f0e; stroke: #ff7f0e"/>
     <use xlink:href="#m867b5e719e" x="451.365805" y="569.568619" style="fill: #ff7f0e; stroke: #ff7f0e"/>
     <use xlink:href="#m867b5e719e" x="464.158534" y="569.862998" style="fill: #ff7f0e; stroke: #ff7f0e"/>
     <use xlink:href="#m867b5e719e" x="486.295766" y="570.19132" style="fill: #ff7f0e; stroke: #ff7f0e"/>
     <use xlink:href="#m867b5e719e" x="505.01253" y="571.906834" style="fill: #ff7f0e; stroke: #ff7f0e"/>
     <use xlink:href="#m867b5e719e" x="521.225728" y="577.636956" style="fill: #ff7f0e; stroke: #ff7f0e"/>
     <use xlink:href="#m867b5e719e" x="535.526782" y="580.350876" style="fill: #ff7f0e; stroke: #ff7f0e"/>
     <use xlink:href="#m867b5e719e" x="548.319511" y="580.616883" style="fill: #ff7f0e; stroke: #ff7f0e"/>
     <use xlink:href="#m867b5e719e" x="570.456744" y="580.18033" style="fill: #ff7f0e; stroke: #ff7f0e"/>
     <use xlink:href="#m867b5e719e" x="589.173508" y="582.012589" style="fill: #ff7f0e; stroke: #ff7f0e"/>
     <use xlink:href="#m867b5e719e" x="605.386706" y="581.727122" style="fill: #ff7f0e; stroke: #ff7f0e"/>
     <use xlink:href="#m867b5e719e" x="659.574272" y="583.733532" style="fill: #ff7f0e; stroke: #ff7f0e"/>
     <use xlink:href="#m867b5e719e" x="743.735249" y="584.713725" style="fill: #ff7f0e; stroke: #ff7f0e"/>
     <use xlink:href="#m867b5e719e" x="827.896227" y="584.732005" style="fill: #ff7f0e; stroke: #ff7f0e"/>
     <use xlink:href="#m867b5e719e" x="912.057204" y="585.273692" style="fill: #ff7f0e; stroke: #ff7f0e"/>
     <use xlink:href="#m867b5e719e" x="996.218182" y="585.328318" style="fill: #ff7f0e; stroke: #ff7f0e"/>
    </g>
   </g>
   <g id="line2d_59">
    <path d="M 184.581818 243.583475 
L 268.742796 397.873641 
L 317.973812 473.024433 
L 352.903773 509.916941 
L 379.997556 531.735836 
L 402.134789 547.287163 
L 420.851553 558.16246 
L 437.064751 563.744031 
L 451.365805 570.145956 
L 464.158534 574.712286 
L 486.295766 582.994606 
L 505.01253 587.844557 
L 521.225728 592.650612 
L 535.526782 595.53762 
L 548.319511 597.231249 
L 570.456744 601.713622 
L 589.173508 603.909381 
L 605.386706 607.224076 
L 659.574272 611.894531 
L 743.735249 614.531257 
L 827.896227 614.324208 
L 912.057204 614.91787 
L 996.218182 615.6 
" clip-path="url(#p3f1f6e70b5)" style="fill: none; stroke: #2ca02c; stroke-width: 1.5; stroke-linecap: square"/>
    <defs>
     <path id="m150ef6d66f" d="M 0 3 
C 0.795609 3 1.55874 2.683901 2.12132 2.12132 
C 2.683901 1.55874 3 0.795609 3 0 
C 3 -0.795609 2.683901 -1.55874 2.12132 -2.12132 
C 1.55874 -2.683901 0.795609 -3 0 -3 
C -0.795609 -3 -1.55874 -2.683901 -2.12132 -2.12132 
C -2.683901 -1.55874 -3 -0.795609 -3 0 
C -3 0.795609 -2.683901 1.55874 -2.12132 2.12132 
C -1.55874 2.683901 -0.795609 3 0 3 
z
" style="stroke: #2ca02c"/>
    </defs>
    <g clip-path="url(#p3f1f6e70b5)">
     <use xlink:href="#m150ef6d66f" x="184.581818" y="243.583475" style="fill: #2ca02c; stroke: #2ca02c"/>
     <use xlink:href="#m150ef6d66f" x="268.742796" y="397.873641" style="fill: #2ca02c; stroke: #2ca02c"/>
     <use xlink:href="#m150ef6d66f" x="317.973812" y="473.024433" style="fill: #2ca02c; stroke: #2ca02c"/>
     <use xlink:href="#m150ef6d66f" x="352.903773" y="509.916941" style="fill: #2ca02c; stroke: #2ca02c"/>
     <use xlink:href="#m150ef6d66f" x="379.997556" y="531.735836" style="fill: #2ca02c; stroke: #2ca02c"/>
     <use xlink:href="#m150ef6d66f" x="402.134789" y="547.287163" style="fill: #2ca02c; stroke: #2ca02c"/>
     <use xlink:href="#m150ef6d66f" x="420.851553" y="558.16246" style="fill: #2ca02c; stroke: #2ca02c"/>
     <use xlink:href="#m150ef6d66f" x="437.064751" y="563.744031" style="fill: #2ca02c; stroke: #2ca02c"/>
     <use xlink:href="#m150ef6d66f" x="451.365805" y="570.145956" style="fill: #2ca02c; stroke: #2ca02c"/>
     <use xlink:href="#m150ef6d66f" x="464.158534" y="574.712286" style="fill: #2ca02c; stroke: #2ca02c"/>
     <use xlink:href="#m150ef6d66f" x="486.295766" y="582.994606" style="fill: #2ca02c; stroke: #2ca02c"/>
     <use xlink:href="#m150ef6d66f" x="505.01253" y="587.844557" style="fill: #2ca02c; stroke: #2ca02c"/>
     <use xlink:href="#m150ef6d66f" x="521.225728" y="592.650612" style="fill: #2ca02c; stroke: #2ca02c"/>
     <use xlink:href="#m150ef6d66f" x="535.526782" y="595.53762" style="fill: #2ca02c; stroke: #2ca02c"/>
     <use xlink:href="#m150ef6d66f" x="548.319511" y="597.231249" style="fill: #2ca02c; stroke: #2ca02c"/>
     <use xlink:href="#m150ef6d66f" x="570.456744" y="601.713622" style="fill: #2ca02c; stroke: #2ca02c"/>
     <use xlink:href="#m150ef6d66f" x="589.173508" y="603.909381" style="fill: #2ca02c; stroke: #2ca02c"/>
     <use xlink:href="#m150ef6d66f" x="605.386706" y="607.224076" style="fill: #2ca02c; stroke: #2ca02c"/>
     <use xlink:href="#m150ef6d66f" x="659.574272" y="611.894531" style="fill: #2ca02c; stroke: #2ca02c"/>
     <use xlink:href="#m150ef6d66f" x="743.735249" y="614.531257" style="fill: #2ca02c; stroke: #2ca02c"/>
     <use xlink:href="#m150ef6d66f" x="827.896227" y="614.324208" style="fill: #2ca02c; stroke: #2ca02c"/>
     <use xlink:href="#m150ef6d66f" x="912.057204" y="614.91787" style="fill: #2ca02c; stroke: #2ca02c"/>
     <use xlink:href="#m150ef6d66f" x="996.218182" y="615.6" style="fill: #2ca02c; stroke: #2ca02c"/>
    </g>
   </g>
   <g id="line2d_60">
    <path d="M 184.581818 240.154868 
L 268.742796 398.302073 
L 317.973812 471.791019 
L 352.903773 510.914215 
L 379.997556 531.07022 
L 402.134789 545.442029 
L 420.851553 556.648248 
L 437.064751 564.250528 
L 451.365805 570.297411 
L 464.158534 574.910074 
L 486.295766 583.41292 
L 505.01253 587.729431 
L 521.225728 590.917475 
L 535.526782 595.842966 
L 548.319511 598.105145 
L 570.456744 601.558305 
L 589.173508 604.219922 
L 605.386706 604.93172 
L 659.574272 610.486416 
L 743.735249 614.923669 
L 827.896227 615.597956 
L 912.057204 615.201492 
L 996.218182 615.519135 
" clip-path="url(#p3f1f6e70b5)" style="fill: none; stroke: #d62728; stroke-width: 1.5; stroke-linecap: square"/>
    <defs>
     <path id="m559f01e03e" d="M 0 3 
C 0.795609 3 1.55874 2.683901 2.12132 2.12132 
C 2.683901 1.55874 3 0.795609 3 0 
C 3 -0.795609 2.683901 -1.55874 2.12132 -2.12132 
C 1.55874 -2.683901 0.795609 -3 0 -3 
C -0.795609 -3 -1.55874 -2.683901 -2.12132 -2.12132 
C -2.683901 -1.55874 -3 -0.795609 -3 0 
C -3 0.795609 -2.683901 1.55874 -2.12132 2.12132 
C -1.55874 2.683901 -0.795609 3 0 3 
z
" style="stroke: #d62728"/>
    </defs>
    <g clip-path="url(#p3f1f6e70b5)">
     <use xlink:href="#m559f01e03e" x="184.581818" y="240.154868" style="fill: #d62728; stroke: #d62728"/>
     <use xlink:href="#m559f01e03e" x="268.742796" y="398.302073" style="fill: #d62728; stroke: #d62728"/>
     <use xlink:href="#m559f01e03e" x="317.973812" y="471.791019" style="fill: #d62728; stroke: #d62728"/>
     <use xlink:href="#m559f01e03e" x="352.903773" y="510.914215" style="fill: #d62728; stroke: #d62728"/>
     <use xlink:href="#m559f01e03e" x="379.997556" y="531.07022" style="fill: #d62728; stroke: #d62728"/>
     <use xlink:href="#m559f01e03e" x="402.134789" y="545.442029" style="fill: #d62728; stroke: #d62728"/>
     <use xlink:href="#m559f01e03e" x="420.851553" y="556.648248" style="fill: #d62728; stroke: #d62728"/>
     <use xlink:href="#m559f01e03e" x="437.064751" y="564.250528" style="fill: #d62728; stroke: #d62728"/>
     <use xlink:href="#m559f01e03e" x="451.365805" y="570.297411" style="fill: #d62728; stroke: #d62728"/>
     <use xlink:href="#m559f01e03e" x="464.158534" y="574.910074" style="fill: #d62728; stroke: #d62728"/>
     <use xlink:href="#m559f01e03e" x="486.295766" y="583.41292" style="fill: #d62728; stroke: #d62728"/>
     <use xlink:href="#m559f01e03e" x="505.01253" y="587.729431" style="fill: #d62728; stroke: #d62728"/>
     <use xlink:href="#m559f01e03e" x="521.225728" y="590.917475" style="fill: #d62728; stroke: #d62728"/>
     <use xlink:href="#m559f01e03e" x="535.526782" y="595.842966" style="fill: #d62728; stroke: #d62728"/>
     <use xlink:href="#m559f01e03e" x="548.319511" y="598.105145" style="fill: #d62728; stroke: #d62728"/>
     <use xlink:href="#m559f01e03e" x="570.456744" y="601.558305" style="fill: #d62728; stroke: #d62728"/>
     <use xlink:href="#m559f01e03e" x="589.173508" y="604.219922" style="fill: #d62728; stroke: #d62728"/>
     <use xlink:href="#m559f01e03e" x="605.386706" y="604.93172" style="fill: #d62728; stroke: #d62728"/>
     <use xlink:href="#m559f01e03e" x="659.574272" y="610.486416" style="fill: #d62728; stroke: #d62728"/>
     <use xlink:href="#m559f01e03e" x="743.735249" y="614.923669" style="fill: #d62728; stroke: #d62728"/>
     <use xlink:href="#m559f01e03e" x="827.896227" y="615.597956" style="fill: #d62728; stroke: #d62728"/>
     <use xlink:href="#m559f01e03e" x="912.057204" y="615.201492" style="fill: #d62728; stroke: #d62728"/>
     <use xlink:href="#m559f01e03e" x="996.218182" y="615.519135" style="fill: #d62728; stroke: #d62728"/>
    </g>
   </g>
   <g id="line2d_61">
    <path d="M 184.581818 243.908782 
L 268.742796 399.199619 
L 317.973812 451.513613 
L 352.903773 477.29925 
L 379.997556 501.059504 
L 402.134789 521.512962 
L 420.851553 530.650857 
L 437.064751 564.648758 
L 451.365805 569.882811 
L 464.158534 574.597203 
L 486.295766 568.588685 
L 505.01253 576.747864 
L 521.225728 578.732466 
L 535.526782 581.976478 
L 548.319511 582.623094 
L 570.456744 582.783455 
L 589.173508 583.22915 
L 605.386706 583.732532 
L 659.574272 584.484758 
L 743.735249 585.229786 
L 827.896227 585.648091 
L 912.057204 585.472875 
L 996.218182 584.629462 
" clip-path="url(#p3f1f6e70b5)" style="fill: none; stroke: #9467bd; stroke-width: 1.5; stroke-linecap: square"/>
    <defs>
     <path id="m8d41cedaf7" d="M 0 3 
C 0.795609 3 1.55874 2.683901 2.12132 2.12132 
C 2.683901 1.55874 3 0.795609 3 0 
C 3 -0.795609 2.683901 -1.55874 2.12132 -2.12132 
C 1.55874 -2.683901 0.795609 -3 0 -3 
C -0.795609 -3 -1.55874 -2.683901 -2.12132 -2.12132 
C -2.683901 -1.55874 -3 -0.795609 -3 0 
C -3 0.795609 -2.683901 1.55874 -2.12132 2.12132 
C -1.55874 2.683901 -0.795609 3 0 3 
z
" style="stroke: #9467bd"/>
    </defs>
    <g clip-path="url(#p3f1f6e70b5)">
     <use xlink:href="#m8d41cedaf7" x="184.581818" y="243.908782" style="fill: #9467bd; stroke: #9467bd"/>
     <use xlink:href="#m8d41cedaf7" x="268.742796" y="399.199619" style="fill: #9467bd; stroke: #9467bd"/>
     <use xlink:href="#m8d41cedaf7" x="317.973812" y="451.513613" style="fill: #9467bd; stroke: #9467bd"/>
     <use xlink:href="#m8d41cedaf7" x="352.903773" y="477.29925" style="fill: #9467bd; stroke: #9467bd"/>
     <use xlink:href="#m8d41cedaf7" x="379.997556" y="501.059504" style="fill: #9467bd; stroke: #9467bd"/>
     <use xlink:href="#m8d41cedaf7" x="402.134789" y="521.512962" style="fill: #9467bd; stroke: #9467bd"/>
     <use xlink:href="#m8d41cedaf7" x="420.851553" y="530.650857" style="fill: #9467bd; stroke: #9467bd"/>
     <use xlink:href="#m8d41cedaf7" x="437.064751" y="564.648758" style="fill: #9467bd; stroke: #9467bd"/>
     <use xlink:href="#m8d41cedaf7" x="451.365805" y="569.882811" style="fill: #9467bd; stroke: #9467bd"/>
     <use xlink:href="#m8d41cedaf7" x="464.158534" y="574.597203" style="fill: #9467bd; stroke: #9467bd"/>
     <use xlink:href="#m8d41cedaf7" x="486.295766" y="568.588685" style="fill: #9467bd; stroke: #9467bd"/>
     <use xlink:href="#m8d41cedaf7" x="505.01253" y="576.747864" style="fill: #9467bd; stroke: #9467bd"/>
     <use xlink:href="#m8d41cedaf7" x="521.225728" y="578.732466" style="fill: #9467bd; stroke: #9467bd"/>
     <use xlink:href="#m8d41cedaf7" x="535.526782" y="581.976478" style="fill: #9467bd; stroke: #9467bd"/>
     <use xlink:href="#m8d41cedaf7" x="548.319511" y="582.623094" style="fill: #9467bd; stroke: #9467bd"/>
     <use xlink:href="#m8d41cedaf7" x="570.456744" y="582.783455" style="fill: #9467bd; stroke: #9467bd"/>
     <use xlink:href="#m8d41cedaf7" x="589.173508" y="583.22915" style="fill: #9467bd; stroke: #9467bd"/>
     <use xlink:href="#m8d41cedaf7" x="605.386706" y="583.732532" style="fill: #9467bd; stroke: #9467bd"/>
     <use xlink:href="#m8d41cedaf7" x="659.574272" y="584.484758" style="fill: #9467bd; stroke: #9467bd"/>
     <use xlink:href="#m8d41cedaf7" x="743.735249" y="585.229786" style="fill: #9467bd; stroke: #9467bd"/>
     <use xlink:href="#m8d41cedaf7" x="827.896227" y="585.648091" style="fill: #9467bd; stroke: #9467bd"/>
     <use xlink:href="#m8d41cedaf7" x="912.057204" y="585.472875" style="fill: #9467bd; stroke: #9467bd"/>
     <use xlink:href="#m8d41cedaf7" x="996.218182" y="584.629462" style="fill: #9467bd; stroke: #9467bd"/>
    </g>
   </g>
   <g id="line2d_62">
    <path d="M 184.581818 240.568592 
L 268.742796 426.674241 
L 317.973812 491.460192 
L 352.903773 527.375409 
L 379.997556 542.248027 
L 402.134789 557.122118 
L 420.851553 565.220349 
L 437.064751 571.929808 
L 451.365805 577.635472 
L 464.158534 581.492844 
L 486.295766 586.704378 
L 505.01253 590.755049 
L 521.225728 594.039991 
L 535.526782 597.021819 
L 548.319511 599.18104 
L 570.456744 602.278315 
L 589.173508 604.485323 
L 605.386706 602.383926 
L 659.574272 607.950535 
L 743.735249 609.766611 
L 827.896227 602.502878 
L 912.057204 610.419799 
L 996.218182 614.585575 
" clip-path="url(#p3f1f6e70b5)" style="fill: none; stroke: #8c564b; stroke-width: 1.5; stroke-linecap: square"/>
    <defs>
     <path id="mdd3635872d" d="M 0 3 
C 0.795609 3 1.55874 2.683901 2.12132 2.12132 
C 2.683901 1.55874 3 0.795609 3 0 
C 3 -0.795609 2.683901 -1.55874 2.12132 -2.12132 
C 1.55874 -2.683901 0.795609 -3 0 -3 
C -0.795609 -3 -1.55874 -2.683901 -2.12132 -2.12132 
C -2.683901 -1.55874 -3 -0.795609 -3 0 
C -3 0.795609 -2.683901 1.55874 -2.12132 2.12132 
C -1.55874 2.683901 -0.795609 3 0 3 
z
" style="stroke: #8c564b"/>
    </defs>
    <g clip-path="url(#p3f1f6e70b5)">
     <use xlink:href="#mdd3635872d" x="184.581818" y="240.568592" style="fill: #8c564b; stroke: #8c564b"/>
     <use xlink:href="#mdd3635872d" x="268.742796" y="426.674241" style="fill: #8c564b; stroke: #8c564b"/>
     <use xlink:href="#mdd3635872d" x="317.973812" y="491.460192" style="fill: #8c564b; stroke: #8c564b"/>
     <use xlink:href="#mdd3635872d" x="352.903773" y="527.375409" style="fill: #8c564b; stroke: #8c564b"/>
     <use xlink:href="#mdd3635872d" x="379.997556" y="542.248027" style="fill: #8c564b; stroke: #8c564b"/>
     <use xlink:href="#mdd3635872d" x="402.134789" y="557.122118" style="fill: #8c564b; stroke: #8c564b"/>
     <use xlink:href="#mdd3635872d" x="420.851553" y="565.220349" style="fill: #8c564b; stroke: #8c564b"/>
     <use xlink:href="#mdd3635872d" x="437.064751" y="571.929808" style="fill: #8c564b; stroke: #8c564b"/>
     <use xlink:href="#mdd3635872d" x="451.365805" y="577.635472" style="fill: #8c564b; stroke: #8c564b"/>
     <use xlink:href="#mdd3635872d" x="464.158534" y="581.492844" style="fill: #8c564b; stroke: #8c564b"/>
     <use xlink:href="#mdd3635872d" x="486.295766" y="586.704378" style="fill: #8c564b; stroke: #8c564b"/>
     <use xlink:href="#mdd3635872d" x="505.01253" y="590.755049" style="fill: #8c564b; stroke: #8c564b"/>
     <use xlink:href="#mdd3635872d" x="521.225728" y="594.039991" style="fill: #8c564b; stroke: #8c564b"/>
     <use xlink:href="#mdd3635872d" x="535.526782" y="597.021819" style="fill: #8c564b; stroke: #8c564b"/>
     <use xlink:href="#mdd3635872d" x="548.319511" y="599.18104" style="fill: #8c564b; stroke: #8c564b"/>
     <use xlink:href="#mdd3635872d" x="570.456744" y="602.278315" style="fill: #8c564b; stroke: #8c564b"/>
     <use xlink:href="#mdd3635872d" x="589.173508" y="604.485323" style="fill: #8c564b; stroke: #8c564b"/>
     <use xlink:href="#mdd3635872d" x="605.386706" y="602.383926" style="fill: #8c564b; stroke: #8c564b"/>
     <use xlink:href="#mdd3635872d" x="659.574272" y="607.950535" style="fill: #8c564b; stroke: #8c564b"/>
     <use xlink:href="#mdd3635872d" x="743.735249" y="609.766611" style="fill: #8c564b; stroke: #8c564b"/>
     <use xlink:href="#mdd3635872d" x="827.896227" y="602.502878" style="fill: #8c564b; stroke: #8c564b"/>
     <use xlink:href="#mdd3635872d" x="912.057204" y="610.419799" style="fill: #8c564b; stroke: #8c564b"/>
     <use xlink:href="#mdd3635872d" x="996.218182" y="614.585575" style="fill: #8c564b; stroke: #8c564b"/>
    </g>
   </g>
   <g id="line2d_63">
    <path d="M 184.581818 190.592932 
L 268.742796 397.696393 
L 317.973812 476.038894 
L 352.903773 515.32356 
L 379.997556 525.015076 
L 402.134789 539.224649 
L 420.851553 551.665742 
L 437.064751 557.461319 
L 451.365805 576.796036 
L 464.158534 580.88457 
L 486.295766 587.726711 
L 505.01253 591.204576 
L 521.225728 594.919979 
L 535.526782 594.314073 
L 548.319511 597.281258 
L 570.456744 601.310357 
L 589.173508 603.084969 
L 605.386706 605.785122 
L 659.574272 610.310283 
L 743.735249 614.67338 
L 827.896227 615.047191 
L 912.057204 615.50747 
L 996.218182 615.391603 
" clip-path="url(#p3f1f6e70b5)" style="fill: none; stroke: #e377c2; stroke-width: 1.5; stroke-linecap: square"/>
    <defs>
     <path id="m5b19729802" d="M 0 3 
C 0.795609 3 1.55874 2.683901 2.12132 2.12132 
C 2.683901 1.55874 3 0.795609 3 0 
C 3 -0.795609 2.683901 -1.55874 2.12132 -2.12132 
C 1.55874 -2.683901 0.795609 -3 0 -3 
C -0.795609 -3 -1.55874 -2.683901 -2.12132 -2.12132 
C -2.683901 -1.55874 -3 -0.795609 -3 0 
C -3 0.795609 -2.683901 1.55874 -2.12132 2.12132 
C -1.55874 2.683901 -0.795609 3 0 3 
z
" style="stroke: #e377c2"/>
    </defs>
    <g clip-path="url(#p3f1f6e70b5)">
     <use xlink:href="#m5b19729802" x="184.581818" y="190.592932" style="fill: #e377c2; stroke: #e377c2"/>
     <use xlink:href="#m5b19729802" x="268.742796" y="397.696393" style="fill: #e377c2; stroke: #e377c2"/>
     <use xlink:href="#m5b19729802" x="317.973812" y="476.038894" style="fill: #e377c2; stroke: #e377c2"/>
     <use xlink:href="#m5b19729802" x="352.903773" y="515.32356" style="fill: #e377c2; stroke: #e377c2"/>
     <use xlink:href="#m5b19729802" x="379.997556" y="525.015076" style="fill: #e377c2; stroke: #e377c2"/>
     <use xlink:href="#m5b19729802" x="402.134789" y="539.224649" style="fill: #e377c2; stroke: #e377c2"/>
     <use xlink:href="#m5b19729802" x="420.851553" y="551.665742" style="fill: #e377c2; stroke: #e377c2"/>
     <use xlink:href="#m5b19729802" x="437.064751" y="557.461319" style="fill: #e377c2; stroke: #e377c2"/>
     <use xlink:href="#m5b19729802" x="451.365805" y="576.796036" style="fill: #e377c2; stroke: #e377c2"/>
     <use xlink:href="#m5b19729802" x="464.158534" y="580.88457" style="fill: #e377c2; stroke: #e377c2"/>
     <use xlink:href="#m5b19729802" x="486.295766" y="587.726711" style="fill: #e377c2; stroke: #e377c2"/>
     <use xlink:href="#m5b19729802" x="505.01253" y="591.204576" style="fill: #e377c2; stroke: #e377c2"/>
     <use xlink:href="#m5b19729802" x="521.225728" y="594.919979" style="fill: #e377c2; stroke: #e377c2"/>
     <use xlink:href="#m5b19729802" x="535.526782" y="594.314073" style="fill: #e377c2; stroke: #e377c2"/>
     <use xlink:href="#m5b19729802" x="548.319511" y="597.281258" style="fill: #e377c2; stroke: #e377c2"/>
     <use xlink:href="#m5b19729802" x="570.456744" y="601.310357" style="fill: #e377c2; stroke: #e377c2"/>
     <use xlink:href="#m5b19729802" x="589.173508" y="603.084969" style="fill: #e377c2; stroke: #e377c2"/>
     <use xlink:href="#m5b19729802" x="605.386706" y="605.785122" style="fill: #e377c2; stroke: #e377c2"/>
     <use xlink:href="#m5b19729802" x="659.574272" y="610.310283" style="fill: #e377c2; stroke: #e377c2"/>
     <use xlink:href="#m5b19729802" x="743.735249" y="614.67338" style="fill: #e377c2; stroke: #e377c2"/>
     <use xlink:href="#m5b19729802" x="827.896227" y="615.047191" style="fill: #e377c2; stroke: #e377c2"/>
     <use xlink:href="#m5b19729802" x="912.057204" y="615.50747" style="fill: #e377c2; stroke: #e377c2"/>
     <use xlink:href="#m5b19729802" x="996.218182" y="615.391603" style="fill: #e377c2; stroke: #e377c2"/>
    </g>
   </g>
   <g id="line2d_64">
    <path d="M 184.581818 177.691149 
L 268.742796 392.054353 
L 317.973812 472.536106 
L 352.903773 502.704862 
L 379.997556 530.617176 
L 402.134789 545.574762 
L 420.851553 553.87516 
L 437.064751 564.698248 
L 451.365805 571.667222 
L 464.158534 576.104964 
L 486.295766 582.328031 
L 505.01253 589.1722 
L 521.225728 592.03359 
L 535.526782 595.185291 
L 548.319511 598.086515 
L 570.456744 600.736402 
L 589.173508 603.900148 
L 605.386706 606.880395 
L 659.574272 610.553027 
L 743.735249 614.530446 
L 827.896227 614.959878 
L 912.057204 615.084574 
L 996.218182 615.195201 
" clip-path="url(#p3f1f6e70b5)" style="fill: none; stroke: #7f7f7f; stroke-width: 1.5; stroke-linecap: square"/>
    <defs>
     <path id="mbd3e28c973" d="M 0 3 
C 0.795609 3 1.55874 2.683901 2.12132 2.12132 
C 2.683901 1.55874 3 0.795609 3 0 
C 3 -0.795609 2.683901 -1.55874 2.12132 -2.12132 
C 1.55874 -2.683901 0.795609 -3 0 -3 
C -0.795609 -3 -1.55874 -2.683901 -2.12132 -2.12132 
C -2.683901 -1.55874 -3 -0.795609 -3 0 
C -3 0.795609 -2.683901 1.55874 -2.12132 2.12132 
C -1.55874 2.683901 -0.795609 3 0 3 
z
" style="stroke: #7f7f7f"/>
    </defs>
    <g clip-path="url(#p3f1f6e70b5)">
     <use xlink:href="#mbd3e28c973" x="184.581818" y="177.691149" style="fill: #7f7f7f; stroke: #7f7f7f"/>
     <use xlink:href="#mbd3e28c973" x="268.742796" y="392.054353" style="fill: #7f7f7f; stroke: #7f7f7f"/>
     <use xlink:href="#mbd3e28c973" x="317.973812" y="472.536106" style="fill: #7f7f7f; stroke: #7f7f7f"/>
     <use xlink:href="#mbd3e28c973" x="352.903773" y="502.704862" style="fill: #7f7f7f; stroke: #7f7f7f"/>
     <use xlink:href="#mbd3e28c973" x="379.997556" y="530.617176" style="fill: #7f7f7f; stroke: #7f7f7f"/>
     <use xlink:href="#mbd3e28c973" x="402.134789" y="545.574762" style="fill: #7f7f7f; stroke: #7f7f7f"/>
     <use xlink:href="#mbd3e28c973" x="420.851553" y="553.87516" style="fill: #7f7f7f; stroke: #7f7f7f"/>
     <use xlink:href="#mbd3e28c973" x="437.064751" y="564.698248" style="fill: #7f7f7f; stroke: #7f7f7f"/>
     <use xlink:href="#mbd3e28c973" x="451.365805" y="571.667222" style="fill: #7f7f7f; stroke: #7f7f7f"/>
     <use xlink:href="#mbd3e28c973" x="464.158534" y="576.104964" style="fill: #7f7f7f; stroke: #7f7f7f"/>
     <use xlink:href="#mbd3e28c973" x="486.295766" y="582.328031" style="fill: #7f7f7f; stroke: #7f7f7f"/>
     <use xlink:href="#mbd3e28c973" x="505.01253" y="589.1722" style="fill: #7f7f7f; stroke: #7f7f7f"/>
     <use xlink:href="#mbd3e28c973" x="521.225728" y="592.03359" style="fill: #7f7f7f; stroke: #7f7f7f"/>
     <use xlink:href="#mbd3e28c973" x="535.526782" y="595.185291" style="fill: #7f7f7f; stroke: #7f7f7f"/>
     <use xlink:href="#mbd3e28c973" x="548.319511" y="598.086515" style="fill: #7f7f7f; stroke: #7f7f7f"/>
     <use xlink:href="#mbd3e28c973" x="570.456744" y="600.736402" style="fill: #7f7f7f; stroke: #7f7f7f"/>
     <use xlink:href="#mbd3e28c973" x="589.173508" y="603.900148" style="fill: #7f7f7f; stroke: #7f7f7f"/>
     <use xlink:href="#mbd3e28c973" x="605.386706" y="606.880395" style="fill: #7f7f7f; stroke: #7f7f7f"/>
     <use xlink:href="#mbd3e28c973" x="659.574272" y="610.553027" style="fill: #7f7f7f; stroke: #7f7f7f"/>
     <use xlink:href="#mbd3e28c973" x="743.735249" y="614.530446" style="fill: #7f7f7f; stroke: #7f7f7f"/>
     <use xlink:href="#mbd3e28c973" x="827.896227" y="614.959878" style="fill: #7f7f7f; stroke: #7f7f7f"/>
     <use xlink:href="#mbd3e28c973" x="912.057204" y="615.084574" style="fill: #7f7f7f; stroke: #7f7f7f"/>
     <use xlink:href="#mbd3e28c973" x="996.218182" y="615.195201" style="fill: #7f7f7f; stroke: #7f7f7f"/>
    </g>
   </g>
   <g id="patch_3">
    <path d="M 144 640.8 
L 144 86.4 
" style="fill: none; stroke: #000000; stroke-width: 0.8; stroke-linejoin: miter; stroke-linecap: square"/>
   </g>
   <g id="patch_4">
    <path d="M 1036.8 640.8 
L 1036.8 86.4 
" style="fill: none; stroke: #000000; stroke-width: 0.8; stroke-linejoin: miter; stroke-linecap: square"/>
   </g>
   <g id="patch_5">
    <path d="M 144 640.8 
L 1036.8 640.8 
" style="fill: none; stroke: #000000; stroke-width: 0.8; stroke-linejoin: miter; stroke-linecap: square"/>
   </g>
   <g id="patch_6">
    <path d="M 144 86.4 
L 1036.8 86.4 
" style="fill: none; stroke: #000000; stroke-width: 0.8; stroke-linejoin: miter; stroke-linecap: square"/>
   </g>
   <g id="text_31">
    <!-- Time for memset to write 500MB -->
    <g transform="translate(491.53125 80.4) scale(0.12 -0.12)">
     <defs>
      <path id="DejaVuSans-54" d="M -19 4666 
L 3928 4666 
L 3928 4134 
L 2272 4134 
L 2272 0 
L 1638 0 
L 1638 4134 
L -19 4134 
L -19 4666 
z
" transform="scale(0.015625)"/>
      <path id="DejaVuSans-6d" d="M 3328 2828 
Q 3544 3216 3844 3400 
Q 4144 3584 4550 3584 
Q 5097 3584 5394 3201 
Q 5691 2819 5691 2113 
L 5691 0 
L 5113 0 
L 5113 2094 
Q 5113 2597 4934 2840 
Q 4756 3084 4391 3084 
Q 3944 3084 3684 2787 
Q 3425 2491 3425 1978 
L 3425 0 
L 2847 0 
L 2847 2094 
Q 2847 2600 2669 2842 
Q 2491 3084 2119 3084 
Q 1678 3084 1418 2786 
Q 1159 2488 1159 1978 
L 1159 0 
L 581 0 
L 581 3500 
L 1159 3500 
L 1159 2956 
Q 1356 3278 1631 3431 
Q 1906 3584 2284 3584 
Q 2666 3584 2933 3390 
Q 3200 3197 3328 2828 
z
" transform="scale(0.015625)"/>
      <path id="DejaVuSans-66" d="M 2375 4863 
L 2375 4384 
L 1825 4384 
Q 1516 4384 1395 4259 
Q 1275 4134 1275 3809 
L 1275 3500 
L 2222 3500 
L 2222 3053 
L 1275 3053 
L 1275 0 
L 697 0 
L 697 3053 
L 147 3053 
L 147 3500 
L 697 3500 
L 697 3744 
Q 697 4328 969 4595 
Q 1241 4863 1831 4863 
L 2375 4863 
z
" transform="scale(0.015625)"/>
      <path id="DejaVuSans-77" d="M 269 3500 
L 844 3500 
L 1563 769 
L 2278 3500 
L 2956 3500 
L 3675 769 
L 4391 3500 
L 4966 3500 
L 4050 0 
L 3372 0 
L 2619 2869 
L 1863 0 
L 1184 0 
L 269 3500 
z
" transform="scale(0.015625)"/>
      <path id="DejaVuSans-4d" d="M 628 4666 
L 1569 4666 
L 2759 1491 
L 3956 4666 
L 4897 4666 
L 4897 0 
L 4281 0 
L 4281 4097 
L 3078 897 
L 2444 897 
L 1241 4097 
L 1241 0 
L 628 0 
L 628 4666 
z
" transform="scale(0.015625)"/>
      <path id="DejaVuSans-42" d="M 1259 2228 
L 1259 519 
L 2272 519 
Q 2781 519 3026 730 
Q 3272 941 3272 1375 
Q 3272 1813 3026 2020 
Q 2781 2228 2272 2228 
L 1259 2228 
z
M 1259 4147 
L 1259 2741 
L 2194 2741 
Q 2656 2741 2882 2914 
Q 3109 3088 3109 3444 
Q 3109 3797 2882 3972 
Q 2656 4147 2194 4147 
L 1259 4147 
z
M 628 4666 
L 2241 4666 
Q 2963 4666 3353 4366 
Q 3744 4066 3744 3513 
Q 3744 3084 3544 2831 
Q 3344 2578 2956 2516 
Q 3422 2416 3680 2098 
Q 3938 1781 3938 1306 
Q 3938 681 3513 340 
Q 3088 0 2303 0 
L 628 0 
L 628 4666 
z
" transform="scale(0.015625)"/>
     </defs>
     <use xlink:href="#DejaVuSans-54"/>
     <use xlink:href="#DejaVuSans-69" transform="translate(57.958984 0)"/>
     <use xlink:href="#DejaVuSans-6d" transform="translate(85.742188 0)"/>
     <use xlink:href="#DejaVuSans-65" transform="translate(183.154297 0)"/>
     <use xlink:href="#DejaVuSans-20" transform="translate(244.677734 0)"/>
     <use xlink:href="#DejaVuSans-66" transform="translate(276.464844 0)"/>
     <use xlink:href="#DejaVuSans-6f" transform="translate(311.669922 0)"/>
     <use xlink:href="#DejaVuSans-72" transform="translate(372.851562 0)"/>
     <use xlink:href="#DejaVuSans-20" transform="translate(413.964844 0)"/>
     <use xlink:href="#DejaVuSans-6d" transform="translate(445.751953 0)"/>
     <use xlink:href="#DejaVuSans-65" transform="translate(543.164062 0)"/>
     <use xlink:href="#DejaVuSans-6d" transform="translate(604.6875 0)"/>
     <use xlink:href="#DejaVuSans-73" transform="translate(702.099609 0)"/>
     <use xlink:href="#DejaVuSans-65" transform="translate(754.199219 0)"/>
     <use xlink:href="#DejaVuSans-74" transform="translate(815.722656 0)"/>
     <use xlink:href="#DejaVuSans-20" transform="translate(854.931641 0)"/>
     <use xlink:href="#DejaVuSans-74" transform="translate(886.71875 0)"/>
     <use xlink:href="#DejaVuSans-6f" transform="translate(925.927734 0)"/>
     <use xlink:href="#DejaVuSans-20" transform="translate(987.109375 0)"/>
     <use xlink:href="#DejaVuSans-77" transform="translate(1018.896484 0)"/>
     <use xlink:href="#DejaVuSans-72" transform="translate(1100.683594 0)"/>
     <use xlink:href="#DejaVuSans-69" transform="translate(1141.796875 0)"/>
     <use xlink:href="#DejaVuSans-74" transform="translate(1169.580078 0)"/>
     <use xlink:href="#DejaVuSans-65" transform="translate(1208.789062 0)"/>
     <use xlink:href="#DejaVuSans-20" transform="translate(1270.3125 0)"/>
     <use xlink:href="#DejaVuSans-35" transform="translate(1302.099609 0)"/>
     <use xlink:href="#DejaVuSans-30" transform="translate(1365.722656 0)"/>
     <use xlink:href="#DejaVuSans-30" transform="translate(1429.345703 0)"/>
     <use xlink:href="#DejaVuSans-4d" transform="translate(1492.96875 0)"/>
     <use xlink:href="#DejaVuSans-42" transform="translate(1579.248047 0)"/>
    </g>
   </g>
   <g id="legend_1">
    <g id="patch_7">
     <path d="M 927.089062 227.615625 
L 1029.8 227.615625 
Q 1031.8 227.615625 1031.8 225.615625 
L 1031.8 93.4 
Q 1031.8 91.4 1029.8 91.4 
L 927.089062 91.4 
Q 925.089062 91.4 925.089062 93.4 
L 925.089062 225.615625 
Q 925.089062 227.615625 927.089062 227.615625 
z
" style="fill: #ffffff; opacity: 0.8; stroke: #cccccc; stroke-linejoin: miter"/>
    </g>
    <g id="text_32">
     <!-- parameter_memset -->
     <g transform="translate(929.089062 102.998437) scale(0.1 -0.1)">
      <defs>
       <path id="DejaVuSans-70" d="M 1159 525 
L 1159 -1331 
L 581 -1331 
L 581 3500 
L 1159 3500 
L 1159 2969 
Q 1341 3281 1617 3432 
Q 1894 3584 2278 3584 
Q 2916 3584 3314 3078 
Q 3713 2572 3713 1747 
Q 3713 922 3314 415 
Q 2916 -91 2278 -91 
Q 1894 -91 1617 61 
Q 1341 213 1159 525 
z
M 3116 1747 
Q 3116 2381 2855 2742 
Q 2594 3103 2138 3103 
Q 1681 3103 1420 2742 
Q 1159 2381 1159 1747 
Q 1159 1113 1420 752 
Q 1681 391 2138 391 
Q 2594 391 2855 752 
Q 3116 1113 3116 1747 
z
" transform="scale(0.015625)"/>
       <path id="DejaVuSans-5f" d="M 3263 -1063 
L 3263 -1509 
L -63 -1509 
L -63 -1063 
L 3263 -1063 
z
" transform="scale(0.015625)"/>
      </defs>
      <use xlink:href="#DejaVuSans-70"/>
      <use xlink:href="#DejaVuSans-61" transform="translate(63.476562 0)"/>
      <use xlink:href="#DejaVuSans-72" transform="translate(124.755859 0)"/>
      <use xlink:href="#DejaVuSans-61" transform="translate(165.869141 0)"/>
      <use xlink:href="#DejaVuSans-6d" transform="translate(227.148438 0)"/>
      <use xlink:href="#DejaVuSans-65" transform="translate(324.560547 0)"/>
      <use xlink:href="#DejaVuSans-74" transform="translate(386.083984 0)"/>
      <use xlink:href="#DejaVuSans-65" transform="translate(425.292969 0)"/>
      <use xlink:href="#DejaVuSans-72" transform="translate(486.816406 0)"/>
      <use xlink:href="#DejaVuSans-5f" transform="translate(527.929688 0)"/>
      <use xlink:href="#DejaVuSans-6d" transform="translate(577.929688 0)"/>
      <use xlink:href="#DejaVuSans-65" transform="translate(675.341797 0)"/>
      <use xlink:href="#DejaVuSans-6d" transform="translate(736.865234 0)"/>
      <use xlink:href="#DejaVuSans-73" transform="translate(834.277344 0)"/>
      <use xlink:href="#DejaVuSans-65" transform="translate(886.376953 0)"/>
      <use xlink:href="#DejaVuSans-74" transform="translate(947.900391 0)"/>
     </g>
    </g>
    <g id="line2d_65">
     <path d="M 931.542187 114.454687 
L 941.542187 114.454687 
L 951.542187 114.454687 
" style="fill: none; stroke: #1f77b4; stroke-width: 1.5; stroke-linecap: square"/>
     <g>
      <use xlink:href="#m0b79814cff" x="941.542187" y="114.454687" style="fill: #1f77b4; stroke: #1f77b4"/>
     </g>
    </g>
    <g id="text_33">
     <!-- basic -->
     <g transform="translate(959.542187 117.954687) scale(0.1 -0.1)">
      <defs>
       <path id="DejaVuSans-62" d="M 3116 1747 
Q 3116 2381 2855 2742 
Q 2594 3103 2138 3103 
Q 1681 3103 1420 2742 
Q 1159 2381 1159 1747 
Q 1159 1113 1420 752 
Q 1681 391 2138 391 
Q 2594 391 2855 752 
Q 3116 1113 3116 1747 
z
M 1159 2969 
Q 1341 3281 1617 3432 
Q 1894 3584 2278 3584 
Q 2916 3584 3314 3078 
Q 3713 2572 3713 1747 
Q 3713 922 3314 415 
Q 2916 -91 2278 -91 
Q 1894 -91 1617 61 
Q 1341 213 1159 525 
L 1159 0 
L 581 0 
L 581 4863 
L 1159 4863 
L 1159 2969 
z
" transform="scale(0.015625)"/>
       <path id="DejaVuSans-63" d="M 3122 3366 
L 3122 2828 
Q 2878 2963 2633 3030 
Q 2388 3097 2138 3097 
Q 1578 3097 1268 2742 
Q 959 2388 959 1747 
Q 959 1106 1268 751 
Q 1578 397 2138 397 
Q 2388 397 2633 464 
Q 2878 531 3122 666 
L 3122 134 
Q 2881 22 2623 -34 
Q 2366 -91 2075 -91 
Q 1284 -91 818 406 
Q 353 903 353 1747 
Q 353 2603 823 3093 
Q 1294 3584 2113 3584 
Q 2378 3584 2631 3529 
Q 2884 3475 3122 3366 
z
" transform="scale(0.015625)"/>
      </defs>
      <use xlink:href="#DejaVuSans-62"/>
      <use xlink:href="#DejaVuSans-61" transform="translate(63.476562 0)"/>
      <use xlink:href="#DejaVuSans-73" transform="translate(124.755859 0)"/>
      <use xlink:href="#DejaVuSans-69" transform="translate(176.855469 0)"/>
      <use xlink:href="#DejaVuSans-63" transform="translate(204.638672 0)"/>
     </g>
    </g>
    <g id="line2d_66">
     <path d="M 931.542187 129.132812 
L 941.542187 129.132812 
L 951.542187 129.132812 
" style="fill: none; stroke: #ff7f0e; stroke-width: 1.5; stroke-linecap: square"/>
     <g>
      <use xlink:href="#m867b5e719e" x="941.542187" y="129.132812" style="fill: #ff7f0e; stroke: #ff7f0e"/>
     </g>
    </g>
    <g id="text_34">
     <!-- builtin -->
     <g transform="translate(959.542187 132.632812) scale(0.1 -0.1)">
      <defs>
       <path id="DejaVuSans-6c" d="M 603 4863 
L 1178 4863 
L 1178 0 
L 603 0 
L 603 4863 
z
" transform="scale(0.015625)"/>
      </defs>
      <use xlink:href="#DejaVuSans-62"/>
      <use xlink:href="#DejaVuSans-75" transform="translate(63.476562 0)"/>
      <use xlink:href="#DejaVuSans-69" transform="translate(126.855469 0)"/>
      <use xlink:href="#DejaVuSans-6c" transform="translate(154.638672 0)"/>
      <use xlink:href="#DejaVuSans-74" transform="translate(182.421875 0)"/>
      <use xlink:href="#DejaVuSans-69" transform="translate(221.630859 0)"/>
      <use xlink:href="#DejaVuSans-6e" transform="translate(249.414062 0)"/>
     </g>
    </g>
    <g id="line2d_67">
     <path d="M 931.542187 143.810937 
L 941.542187 143.810937 
L 951.542187 143.810937 
" style="fill: none; stroke: #2ca02c; stroke-width: 1.5; stroke-linecap: square"/>
     <g>
      <use xlink:href="#m150ef6d66f" x="941.542187" y="143.810937" style="fill: #2ca02c; stroke: #2ca02c"/>
     </g>
    </g>
    <g id="text_35">
     <!-- glibc_avx2 -->
     <g transform="translate(959.542187 147.310937) scale(0.1 -0.1)">
      <defs>
       <path id="DejaVuSans-76" d="M 191 3500 
L 800 3500 
L 1894 563 
L 2988 3500 
L 3597 3500 
L 2284 0 
L 1503 0 
L 191 3500 
z
" transform="scale(0.015625)"/>
       <path id="DejaVuSans-78" d="M 3513 3500 
L 2247 1797 
L 3578 0 
L 2900 0 
L 1881 1375 
L 863 0 
L 184 0 
L 1544 1831 
L 300 3500 
L 978 3500 
L 1906 2253 
L 2834 3500 
L 3513 3500 
z
" transform="scale(0.015625)"/>
      </defs>
      <use xlink:href="#DejaVuSans-67"/>
      <use xlink:href="#DejaVuSans-6c" transform="translate(63.476562 0)"/>
      <use xlink:href="#DejaVuSans-69" transform="translate(91.259766 0)"/>
      <use xlink:href="#DejaVuSans-62" transform="translate(119.042969 0)"/>
      <use xlink:href="#DejaVuSans-63" transform="translate(182.519531 0)"/>
      <use xlink:href="#DejaVuSans-5f" transform="translate(237.5 0)"/>
      <use xlink:href="#DejaVuSans-61" transform="translate(287.5 0)"/>
      <use xlink:href="#DejaVuSans-76" transform="translate(348.779297 0)"/>
      <use xlink:href="#DejaVuSans-78" transform="translate(407.958984 0)"/>
      <use xlink:href="#DejaVuSans-32" transform="translate(467.138672 0)"/>
     </g>
    </g>
    <g id="line2d_68">
     <path d="M 931.542187 158.767187 
L 941.542187 158.767187 
L 951.542187 158.767187 
" style="fill: none; stroke: #d62728; stroke-width: 1.5; stroke-linecap: square"/>
     <g>
      <use xlink:href="#m559f01e03e" x="941.542187" y="158.767187" style="fill: #d62728; stroke: #d62728"/>
     </g>
    </g>
    <g id="text_36">
     <!-- glibc_avx512 -->
     <g transform="translate(959.542187 162.267187) scale(0.1 -0.1)">
      <use xlink:href="#DejaVuSans-67"/>
      <use xlink:href="#DejaVuSans-6c" transform="translate(63.476562 0)"/>
      <use xlink:href="#DejaVuSans-69" transform="translate(91.259766 0)"/>
      <use xlink:href="#DejaVuSans-62" transform="translate(119.042969 0)"/>
      <use xlink:href="#DejaVuSans-63" transform="translate(182.519531 0)"/>
      <use xlink:href="#DejaVuSans-5f" transform="translate(237.5 0)"/>
      <use xlink:href="#DejaVuSans-61" transform="translate(287.5 0)"/>
      <use xlink:href="#DejaVuSans-76" transform="translate(348.779297 0)"/>
      <use xlink:href="#DejaVuSans-78" transform="translate(407.958984 0)"/>
      <use xlink:href="#DejaVuSans-35" transform="translate(467.138672 0)"/>
      <use xlink:href="#DejaVuSans-31" transform="translate(530.761719 0)"/>
      <use xlink:href="#DejaVuSans-32" transform="translate(594.384766 0)"/>
     </g>
    </g>
    <g id="line2d_69">
     <path d="M 931.542187 173.723437 
L 941.542187 173.723437 
L 951.542187 173.723437 
" style="fill: none; stroke: #9467bd; stroke-width: 1.5; stroke-linecap: square"/>
     <g>
      <use xlink:href="#m8d41cedaf7" x="941.542187" y="173.723437" style="fill: #9467bd; stroke: #9467bd"/>
     </g>
    </g>
    <g id="text_37">
     <!-- libc -->
     <g transform="translate(959.542187 177.223437) scale(0.1 -0.1)">
      <use xlink:href="#DejaVuSans-6c"/>
      <use xlink:href="#DejaVuSans-69" transform="translate(27.783203 0)"/>
      <use xlink:href="#DejaVuSans-62" transform="translate(55.566406 0)"/>
      <use xlink:href="#DejaVuSans-63" transform="translate(119.042969 0)"/>
     </g>
    </g>
    <g id="line2d_70">
     <path d="M 931.542187 188.401562 
L 941.542187 188.401562 
L 951.542187 188.401562 
" style="fill: none; stroke: #8c564b; stroke-width: 1.5; stroke-linecap: square"/>
     <g>
      <use xlink:href="#mdd3635872d" x="941.542187" y="188.401562" style="fill: #8c564b; stroke: #8c564b"/>
     </g>
    </g>
    <g id="text_38">
     <!-- musl_asm -->
     <g transform="translate(959.542187 191.901562) scale(0.1 -0.1)">
      <use xlink:href="#DejaVuSans-6d"/>
      <use xlink:href="#DejaVuSans-75" transform="translate(97.412109 0)"/>
      <use xlink:href="#DejaVuSans-73" transform="translate(160.791016 0)"/>
      <use xlink:href="#DejaVuSans-6c" transform="translate(212.890625 0)"/>
      <use xlink:href="#DejaVuSans-5f" transform="translate(240.673828 0)"/>
      <use xlink:href="#DejaVuSans-61" transform="translate(290.673828 0)"/>
      <use xlink:href="#DejaVuSans-73" transform="translate(351.953125 0)"/>
      <use xlink:href="#DejaVuSans-6d" transform="translate(404.052734 0)"/>
     </g>
    </g>
    <g id="line2d_71">
     <path d="M 931.542187 203.357812 
L 941.542187 203.357812 
L 951.542187 203.357812 
" style="fill: none; stroke: #e377c2; stroke-width: 1.5; stroke-linecap: square"/>
     <g>
      <use xlink:href="#m5b19729802" x="941.542187" y="203.357812" style="fill: #e377c2; stroke: #e377c2"/>
     </g>
    </g>
    <g id="text_39">
     <!-- rpkak -->
     <g transform="translate(959.542187 206.857812) scale(0.1 -0.1)">
      <defs>
       <path id="DejaVuSans-6b" d="M 581 4863 
L 1159 4863 
L 1159 1991 
L 2875 3500 
L 3609 3500 
L 1753 1863 
L 3688 0 
L 2938 0 
L 1159 1709 
L 1159 0 
L 581 0 
L 581 4863 
z
" transform="scale(0.015625)"/>
      </defs>
      <use xlink:href="#DejaVuSans-72"/>
      <use xlink:href="#DejaVuSans-70" transform="translate(41.113281 0)"/>
      <use xlink:href="#DejaVuSans-6b" transform="translate(104.589844 0)"/>
      <use xlink:href="#DejaVuSans-61" transform="translate(160.75 0)"/>
      <use xlink:href="#DejaVuSans-6b" transform="translate(222.029297 0)"/>
     </g>
    </g>
    <g id="line2d_72">
     <path d="M 931.542187 218.035937 
L 941.542187 218.035937 
L 951.542187 218.035937 
" style="fill: none; stroke: #7f7f7f; stroke-width: 1.5; stroke-linecap: square"/>
     <g>
      <use xlink:href="#mbd3e28c973" x="941.542187" y="218.035937" style="fill: #7f7f7f; stroke: #7f7f7f"/>
     </g>
    </g>
    <g id="text_40">
     <!-- skk64 -->
     <g transform="translate(959.542187 221.535937) scale(0.1 -0.1)">
      <use xlink:href="#DejaVuSans-73"/>
      <use xlink:href="#DejaVuSans-6b" transform="translate(52.099609 0)"/>
      <use xlink:href="#DejaVuSans-6b" transform="translate(110.009766 0)"/>
      <use xlink:href="#DejaVuSans-36" transform="translate(167.919922 0)"/>
      <use xlink:href="#DejaVuSans-34" transform="translate(231.542969 0)"/>
     </g>
    </g>
   </g>
  </g>
 </g>
 <defs>
  <clipPath id="p3f1f6e70b5">
   <rect x="144" y="86.4" width="892.8" height="554.4"/>
  </clipPath>
 </defs>
</svg>
